<svg width="57" height="65" viewBox="0 0 57 65" fill="none" xmlns="http://www.w3.org/2000/svg">
<path d="M6.95713 36.9629C9.77554 36.9629 12.068 34.6701 12.068 31.852C12.068 29.0339 9.77526 26.7411 6.95713 26.7411C4.139 26.7411 1.84625 29.0339 1.84625 31.852C1.84625 34.6701 4.139 36.9629 6.95713 36.9629ZM6.95713 28.1471C8.99985 28.1471 10.6618 29.809 10.6618 31.8517C10.6618 33.8945 8.99985 35.5564 6.95713 35.5564C4.91441 35.5564 3.2525 33.8945 3.2525 31.8517C3.2525 29.809 4.91441 28.1471 6.95713 28.1471Z" fill="#FCE086"/>
<path d="M50.0427 36.9629C52.8611 36.9629 55.1536 34.6701 55.1536 31.852C55.1536 29.0339 52.8608 26.7411 50.0427 26.7411C47.2246 26.7411 44.9318 29.0339 44.9318 31.852C44.9318 34.6701 47.2243 36.9629 50.0427 36.9629ZM50.0427 28.1471C52.0854 28.1471 53.7473 29.809 53.7473 31.8517C53.7473 33.8945 52.0854 35.5564 50.0427 35.5564C48 35.5564 46.3381 33.8945 46.3381 31.8517C46.3381 29.809 48 28.1471 50.0427 28.1471Z" fill="#FCE086"/>
<path d="M54.2774 59.8972H52.2149V38.0227C52.2149 37.6343 51.9002 37.3195 51.5118 37.3195C51.1234 37.3195 50.8087 37.6343 50.8087 38.0227V59.8972H49.2764V38.0227C49.2764 37.7693 49.14 37.5353 48.919 37.4104C48.6982 37.2855 48.4273 37.2892 48.2102 37.4205C36.0523 44.7473 20.9473 44.7473 8.78966 37.4205C8.57282 37.2897 8.30169 37.2858 8.08091 37.4104C7.86013 37.535 7.72344 37.769 7.72344 38.0227V59.8972H6.19119V38.0227C6.19119 37.6343 5.87647 37.3195 5.48807 37.3195C5.09966 37.3195 4.78494 37.6343 4.78494 38.0227V59.8972H2.72254C1.55085 59.8972 0.597412 60.8503 0.597412 62.022C0.597412 63.1937 1.55085 64.1469 2.72254 64.1469H11.1921C12.3638 64.1469 13.3172 63.1937 13.3172 62.022C13.3172 60.8503 12.3638 59.8972 11.1921 59.8972H9.12969V42.9032C15.1583 46.2883 21.8287 47.9829 28.4999 47.9829C35.1712 47.9829 41.8416 46.2883 47.8702 42.9032V59.8972H45.8078C44.6361 59.8972 43.6827 60.8503 43.6827 62.022C43.6827 63.1937 44.6361 64.1469 45.8078 64.1469H54.2774C55.449 64.1469 56.4025 63.1937 56.4025 62.022C56.4025 60.8503 55.449 59.8972 54.2774 59.8972ZM11.911 62.0223C11.911 62.4186 11.5887 62.7409 11.1921 62.7409H2.72254C2.32626 62.7409 2.00366 62.4186 2.00366 62.0223C2.00366 61.626 2.32597 61.3037 2.72254 61.3037H11.1921C11.5887 61.3034 11.911 61.626 11.911 62.0223ZM9.12969 41.2781V39.2453C21.186 46.0144 35.8136 46.0144 47.8699 39.2453V41.2781C35.8844 48.3361 21.1154 48.3361 9.12969 41.2781ZM54.2774 62.7409H45.8078C45.4115 62.7409 45.0889 62.4186 45.0889 62.0223C45.0889 61.626 45.4112 61.3037 45.8078 61.3037H54.2774C54.6736 61.3037 54.9962 61.626 54.9962 62.0223C54.9962 62.4186 54.6736 62.7409 54.2774 62.7409Z" fill="#FCE086"/>
<path d="M16.3707 18.2007C13.8543 17.3578 11.4215 16.2446 9.12988 14.8957V12.8609C11.2949 14.0753 13.575 15.0867 15.9238 15.8736C16.2919 15.9974 16.6904 15.7985 16.8139 15.4304C16.9371 15.0619 16.7388 14.6637 16.3707 14.5402C13.73 13.6554 11.1794 12.4767 8.78985 11.0364C8.57301 10.9056 8.30188 10.9017 8.0811 11.0263C7.86032 11.1509 7.72363 11.3849 7.72363 11.6386V22.9662C7.72363 23.3546 8.03835 23.6693 8.42676 23.6693C8.81516 23.6693 9.12988 23.3546 9.12988 22.9662V16.5194C11.2949 17.7338 13.5748 18.7469 15.9238 19.5341C15.998 19.5588 16.0731 19.5707 16.1474 19.5707C16.4413 19.5707 16.7155 19.3848 16.8139 19.0908C16.9374 18.7224 16.7388 18.3242 16.3707 18.2007Z" fill="#FCE086"/>
<path d="M5.48804 10.9354C5.09963 10.9354 4.78491 11.2502 4.78491 11.6386V22.9662C4.78491 23.3546 5.09963 23.6693 5.48804 23.6693C5.87644 23.6693 6.19116 23.3546 6.19116 22.9662V11.6386C6.19116 11.2502 5.87644 10.9354 5.48804 10.9354Z" fill="#FCE086"/>
<path d="M12.0684 5.46769C12.0684 2.64956 9.77568 0.356812 6.95755 0.356812C4.13943 0.356812 1.84668 2.64956 1.84668 5.46769C1.84668 8.28609 4.13943 10.5786 6.95755 10.5786C9.77568 10.5786 12.0684 8.28609 12.0684 5.46769ZM6.95727 9.17231C4.91455 9.17231 3.25265 7.51041 3.25265 5.46769C3.25265 3.42497 4.91455 1.76306 6.95727 1.76306C8.99999 1.76306 10.6619 3.42497 10.6619 5.46769C10.6619 7.51041 8.99999 9.17231 6.95727 9.17231Z" fill="#FCE086"/>
<path d="M48.9192 11.0263C48.6984 10.9014 48.4276 10.9051 48.2104 11.0364C45.8035 12.4868 43.2348 13.6717 40.5756 14.5582C40.2072 14.6811 40.0081 15.0791 40.131 15.4475C40.2539 15.8163 40.6521 16.0151 41.0203 15.8922C43.3884 15.1027 45.6876 14.0852 47.8701 12.8609V14.8957C45.5619 16.2544 43.1111 17.3735 40.5753 18.219C40.2069 18.3419 40.0078 18.7401 40.1307 19.1083C40.2288 19.403 40.5033 19.5892 40.7975 19.5892C40.8712 19.5892 40.9463 19.5774 41.02 19.5529C43.389 18.7632 45.6873 17.744 47.8698 16.5197V22.9668C47.8698 23.3552 48.1846 23.6699 48.573 23.6699C48.9614 23.6699 49.2761 23.3552 49.2761 22.9668V11.6386C49.2767 11.3852 49.14 11.1512 48.9192 11.0263Z" fill="#FCE086"/>
<path d="M51.5123 10.9354C51.1239 10.9354 50.8092 11.2502 50.8092 11.6386V22.9662C50.8092 23.3546 51.1239 23.6693 51.5123 23.6693C51.9007 23.6693 52.2155 23.3546 52.2155 22.9662V11.6386C52.2155 11.2502 51.9007 10.9354 51.5123 10.9354Z" fill="#FCE086"/>
<path d="M50.0427 0.356812C47.2243 0.356812 44.9318 2.64956 44.9318 5.46769C44.9318 8.28609 47.2246 10.5786 50.0427 10.5786C52.8608 10.5786 55.1536 8.28581 55.1536 5.46769C55.1536 2.64956 52.8608 0.356812 50.0427 0.356812ZM50.0427 9.17231C48 9.17231 46.3381 7.51041 46.3381 5.46769C46.3381 3.42497 48 1.76306 50.0427 1.76306C52.0854 1.76306 53.7473 3.42497 53.7473 5.46769C53.7473 7.51041 52.0854 9.17231 50.0427 9.17231Z" fill="#FCE086"/>
<path d="M22.9934 31.3342C22.605 31.3342 22.2903 31.0195 22.2903 30.6311V25.3397C22.2903 24.9513 22.605 24.6365 22.9934 24.6365C23.3818 24.6365 23.6965 24.9513 23.6965 25.3397V30.6311C23.6965 31.0195 23.3818 31.3342 22.9934 31.3342Z" fill="#FCE086"/>
<path d="M34.0063 31.3342C33.6179 31.3342 33.3032 31.0195 33.3032 30.6311V25.3397C33.3032 24.9513 33.6179 24.6365 34.0063 24.6365C34.3948 24.6365 34.7095 24.9513 34.7095 25.3397V30.6311C34.7095 31.0195 34.3948 31.3342 34.0063 31.3342Z" fill="#FCE086"/>
<path d="M39.9376 61.1968H17.0624C16.674 61.1968 16.3593 61.5115 16.3593 61.8999C16.3593 62.2883 16.674 62.6031 17.0624 62.6031H39.9373C40.3257 62.6031 40.6404 62.2883 40.6404 61.8999C40.6404 61.5115 40.3257 61.1968 39.9376 61.1968Z" fill="#FCE086"/>
<path d="M19.0701 59.4035H37.9302C38.3186 59.4035 38.6333 59.0888 38.6333 58.7004V49.3117C38.6333 48.9233 38.3186 48.6086 37.9302 48.6086C37.5418 48.6086 37.2271 48.9233 37.2271 49.3117V57.9973H19.7733V49.3117C19.7733 48.9233 19.4585 48.6086 19.0701 48.6086C18.6817 48.6086 18.367 48.9233 18.367 49.3117V58.7004C18.367 59.0885 18.6817 59.4035 19.0701 59.4035Z" fill="#FCE086"/>
<path d="M19.0701 40.4009C19.4585 40.4009 19.7733 40.0862 19.7733 39.6978V34.3152H37.2271V39.6978C37.2271 40.0862 37.5418 40.4009 37.9302 40.4009C38.3186 40.4009 38.6333 40.0862 38.6333 39.6978V5.92079C38.6333 5.53238 38.3186 5.21767 37.9302 5.21767H19.0701C18.6817 5.21767 18.367 5.53238 18.367 5.92079V39.6975C18.367 40.0859 18.6817 40.4009 19.0701 40.4009ZM37.2271 6.62392V32.909H19.7733V6.62392H37.2271Z" fill="#FCE086"/>
<path d="M28.0026 27.6673C28.1399 27.8046 28.3199 27.8732 28.4999 27.8732C28.6799 27.8732 28.8599 27.8046 28.9971 27.6673L34.5037 22.1607C34.7169 21.9475 34.7706 21.6221 34.6368 21.3519L29.1302 10.2203C29.0118 9.98063 28.7674 9.82876 28.4999 9.82876C28.2324 9.82876 27.9883 9.98063 27.8696 10.2203L22.363 21.3519C22.2292 21.6221 22.2829 21.9475 22.4961 22.1607L28.0026 27.6673ZM28.4999 26.1759L24.6909 22.3669H32.3091L28.4999 26.1759ZM28.4999 12.1176L32.8742 20.9604H24.1253L28.4999 12.1176Z" fill="#FCE086"/>
</svg>
