<svg width="48" height="62" viewBox="0 0 48 62" fill="none" xmlns="http://www.w3.org/2000/svg">
<path d="M10.1701 48.4064C9.75727 48.4064 9.42273 48.0719 9.42273 47.659V37.5006C9.42273 37.0877 9.75727 36.7532 10.1701 36.7532C10.583 36.7532 10.9175 37.0877 10.9175 37.5006V47.659C10.9175 48.0719 10.583 48.4064 10.1701 48.4064Z" fill="#FCE086"/>
<path d="M37.8271 48.4064C37.4142 48.4064 37.0797 48.0719 37.0797 47.659V37.5006C37.0797 37.0877 37.4142 36.7532 37.8271 36.7532C38.24 36.7532 38.5745 37.0877 38.5745 37.5006V47.659C38.5745 48.0719 38.24 48.4064 37.8271 48.4064Z" fill="#FCE086"/>
<path d="M36.8326 8.31332L32.4531 0.606701C32.3204 0.373213 32.0723 0.228516 31.8035 0.228516H16.1953C15.9266 0.228516 15.6784 0.372914 15.5457 0.606701L11.1656 8.31332C11.0242 8.56206 11.0371 8.86909 11.1988 9.10497L23.3824 26.883C23.5217 27.0866 23.7522 27.208 23.9988 27.208C24.2455 27.208 24.476 27.0866 24.6153 26.883L36.7988 9.10497C36.9609 8.86909 36.9737 8.56206 36.8326 8.31332ZM28.3906 9.42994L23.9991 23.5391L19.6077 9.42994H28.3906ZM19.9981 7.93514L23.9991 2.27132L28.0001 7.93514H19.9981ZM25.4422 1.72332H30.7894L29.1541 6.97786L25.4422 1.72332ZM18.8444 6.97756L17.2091 1.72332H22.5563L18.8444 6.97756ZM22.0427 22.2841L13.2338 9.42994H18.042L22.0427 22.2841ZM29.9562 9.42994H34.7644L25.9552 22.2841L29.9562 9.42994ZM34.8983 7.93514H30.4214L32.0056 2.84502L34.8983 7.93514ZM15.9923 2.84502L17.5765 7.93514H13.0999L15.9923 2.84502Z" fill="#FCE086"/>
<path d="M47.1839 23.0706H43.8439V2.94392C43.8439 2.53106 43.5093 2.19652 43.0965 2.19652H36.0434C35.6305 2.19652 35.296 2.53106 35.296 2.94392C35.296 3.35679 35.6305 3.69132 36.0434 3.69132H42.3491V23.0706H28.8749C28.462 23.0706 28.1275 23.4051 28.1275 23.818C28.1275 24.2309 28.462 24.5654 28.8749 24.5654H46.4365V28.3559H1.56121V24.5654H19.1981C19.611 24.5654 19.9455 24.2309 19.9455 23.818C19.9455 23.4051 19.611 23.0706 19.1981 23.0706H5.64861V3.69132H12.0867C12.4996 3.69132 12.8341 3.35679 12.8341 2.94392C12.8341 2.53106 12.4996 2.19652 12.0867 2.19652H4.90121C4.48834 2.19652 4.1538 2.53106 4.1538 2.94392V23.0706H0.813809C0.400944 23.0706 0.0664062 23.4051 0.0664062 23.818V29.1033C0.0664062 29.5162 0.400944 29.8507 0.813809 29.8507H47.1839C47.5967 29.8507 47.9313 29.5162 47.9313 29.1033V23.818C47.9313 23.4051 47.5967 23.0706 47.1839 23.0706Z" fill="#FCE086"/>
<path d="M47.1839 54.6956H43.6274V50.1095C43.6274 49.6966 43.2929 49.3621 42.88 49.3621H5.11735C4.70449 49.3621 4.36995 49.6966 4.36995 50.1095V54.6956H0.813809C0.400944 54.6956 0.0664062 55.0301 0.0664062 55.443V60.7283C0.0664062 61.1412 0.400944 61.4757 0.813809 61.4757H47.1839C47.5967 61.4757 47.9313 61.1412 47.9313 60.7283V55.443C47.9313 55.0301 47.5967 54.6956 47.1839 54.6956ZM5.86476 50.8569H42.1326V54.6956H5.86476V50.8569ZM46.4365 59.9809H1.56121V56.1904H46.4365V59.9809Z" fill="#FCE086"/>
<path d="M4.90146 30.8065C4.48859 30.8065 4.15405 31.1411 4.15405 31.5539V34.8335C4.15405 35.2464 4.48859 35.5809 4.90146 35.5809H6.71495L5.82226 47.6037C5.79176 48.0153 6.10059 48.3738 6.51226 48.4046C6.53109 48.4061 6.54963 48.4067 6.56846 48.4067C6.95622 48.4067 7.28388 48.1074 7.31317 47.7149L8.21394 35.5812H12.127L13.0281 47.7149C13.0574 48.1074 13.3851 48.4067 13.7728 48.4067C13.7914 48.4067 13.8102 48.4061 13.829 48.4046C14.2407 48.3738 14.5495 48.0153 14.519 47.6037L13.6263 35.5809H15.4398C15.8527 35.5809 16.1872 35.2464 16.1872 34.8335V31.5539C16.1872 31.1411 15.8527 30.8065 15.4398 30.8065C15.027 30.8065 14.6924 31.1411 14.6924 31.5539V34.0861H5.64886V31.5539C5.64886 31.1411 5.31402 30.8065 4.90146 30.8065Z" fill="#FCE086"/>
<path d="M32.5592 30.8065C32.1463 30.8065 31.8118 31.1411 31.8118 31.5539V34.8335C31.8118 35.2464 32.1463 35.5809 32.5592 35.5809H34.3727L33.48 47.6037C33.4495 48.0153 33.7583 48.3738 34.17 48.4046C34.1888 48.4061 34.2073 48.4067 34.2262 48.4067C34.6139 48.4067 34.9416 48.1074 34.9709 47.7149L35.872 35.5812H39.7851L40.6858 47.7149C40.7151 48.1074 41.0428 48.4067 41.4305 48.4067C41.4491 48.4067 41.4679 48.4061 41.4867 48.4046C41.8984 48.3738 42.2072 48.0153 42.1767 47.6037L41.284 35.5809H43.0976C43.5104 35.5809 43.845 35.2464 43.845 34.8335V31.5539C43.845 31.1411 43.5104 30.8065 43.0976 30.8065C42.6847 30.8065 42.3501 31.1411 42.3501 31.5539V34.0861H33.3072V31.5539C33.3066 31.1411 32.972 30.8065 32.5592 30.8065Z" fill="#FCE086"/>
<path d="M29.2326 48.4064C29.6454 48.4064 29.98 48.0719 29.98 47.659V39.1589C29.98 38.7461 29.6454 38.4115 29.2326 38.4115H18.7653C18.3525 38.4115 18.0179 38.7461 18.0179 39.1589V47.659C18.0179 48.0719 18.3525 48.4064 18.7653 48.4064C19.1782 48.4064 19.5128 48.0719 19.5128 47.659V39.9063H23.2516V47.659C23.2516 48.0719 23.5861 48.4064 23.999 48.4064C24.4118 48.4064 24.7464 48.0719 24.7464 47.659V39.9063H28.4852V47.659C28.4852 48.0719 28.8197 48.4064 29.2326 48.4064Z" fill="#FCE086"/>
</svg>
