<svg width="56" height="68" viewBox="0 0 56 68" fill="none" xmlns="http://www.w3.org/2000/svg">
<path d="M27.879 48.1898C20.8183 48.1898 13.7576 46.2924 7.46005 42.4971C7.12762 42.297 7.02083 41.8651 7.22091 41.5326C7.42099 41.2002 7.85263 41.0931 8.18535 41.2935C20.333 48.6142 35.4254 48.6142 47.5727 41.2935C47.9052 41.0937 48.3371 41.2002 48.5372 41.5326C48.7375 41.8651 48.6305 42.2967 48.298 42.4971C42.0005 46.2924 34.9398 48.1898 27.879 48.1898Z" fill="#FCE086"/>
<path d="M27.879 51.8488C20.8183 51.8488 13.7576 49.9514 7.46005 46.156C7.12762 45.9559 7.02083 45.524 7.22091 45.1916C7.42099 44.8591 7.85263 44.7518 8.18535 44.9524C20.333 52.2731 35.4254 52.2731 47.5727 44.9524C47.9052 44.7523 48.3371 44.8591 48.5372 45.1916C48.7375 45.524 48.6305 45.9556 48.298 46.156C42.0005 49.9514 34.9398 51.8488 27.879 51.8488Z" fill="#FCE086"/>
<path d="M6.35493 40.8373C9.17096 40.8373 11.4615 38.5465 11.4615 35.7307C11.4615 32.9147 9.17068 30.6241 6.35493 30.6241C3.53917 30.6241 1.24835 32.915 1.24835 35.7307C1.24835 38.5465 3.53917 40.8373 6.35493 40.8373ZM6.35493 32.0292C8.39592 32.0292 10.0564 33.6897 10.0564 35.7307C10.0564 37.7717 8.39592 39.4322 6.35493 39.4322C4.31393 39.4322 2.65342 37.7717 2.65342 35.7307C2.65342 33.6897 4.31393 32.0292 6.35493 32.0292Z" fill="#FCE086"/>
<path d="M10.5858 63.7527H8.5251V41.8966C8.5251 41.5085 8.21064 41.1941 7.82257 41.1941C7.43449 41.1941 7.12003 41.5085 7.12003 41.8966V63.7527H5.58907V41.8966C5.58907 41.5085 5.27462 41.1941 4.88654 41.1941C4.49846 41.1941 4.18401 41.5085 4.18401 41.8966V63.7527H2.12334C0.952635 63.7527 0 64.7051 0 65.8758C0 67.0465 0.952635 67.9988 2.12334 67.9988H10.5858C11.7565 67.9988 12.7091 67.0465 12.7091 65.8758C12.7091 64.7051 11.7565 63.7527 10.5858 63.7527ZM10.5858 66.594H2.12334C1.72739 66.594 1.40507 66.272 1.40507 65.8761C1.40507 65.4801 1.72711 65.1581 2.12334 65.1581H10.5858C10.9817 65.1581 11.304 65.4801 11.304 65.8761C11.304 66.272 10.982 66.594 10.5858 66.594Z" fill="#FCE086"/>
<path d="M49.4038 40.8373C52.2198 40.8373 54.5103 38.5465 54.5103 35.7307C54.5103 32.9147 52.2195 30.6241 49.4038 30.6241C46.588 30.6241 44.2972 32.915 44.2972 35.7307C44.2969 38.5465 46.5877 40.8373 49.4038 40.8373ZM49.4038 32.0292C51.4448 32.0292 53.1053 33.6897 53.1053 35.7307C53.1053 37.7717 51.4448 39.4322 49.4038 39.4322C47.3628 39.4322 45.7022 37.7717 45.7022 35.7307C45.7022 33.6897 47.3628 32.0292 49.4038 32.0292Z" fill="#FCE086"/>
<path d="M53.6346 63.7527H51.5739V41.8966C51.5739 41.5085 51.2595 41.1941 50.8714 41.1941C50.4833 41.1941 50.1689 41.5085 50.1689 41.8966V63.7527H48.6379V41.8966C48.6379 41.5085 48.3234 41.1941 47.9354 41.1941C47.5473 41.1941 47.2328 41.5085 47.2328 41.8966V63.7527H45.1722C44.0015 63.7527 43.0488 64.7051 43.0488 65.8758C43.0488 67.0465 44.0015 67.9988 45.1722 67.9988H53.6346C54.8053 67.9988 55.7579 67.0465 55.7579 65.8758C55.7579 64.7051 54.8053 63.7527 53.6346 63.7527ZM53.6346 66.594H45.1722C44.7762 66.594 44.4539 66.272 44.4539 65.8761C44.4539 65.4801 44.7759 65.1581 45.1722 65.1581H53.6346C54.0305 65.1581 54.3529 65.4801 54.3529 65.8761C54.3529 66.272 54.0305 66.594 53.6346 66.594Z" fill="#FCE086"/>
<path d="M39.3069 65.0518H16.4509C16.0629 65.0518 15.7484 65.3662 15.7484 65.7543C15.7484 66.1424 16.0629 66.4568 16.4509 66.4568H39.3066C39.6947 66.4568 40.0091 66.1424 40.0091 65.7543C40.0091 65.3662 39.6947 65.0518 39.3069 65.0518Z" fill="#FCE086"/>
<path d="M46.3666 17.8573C46.3666 12.9262 44.3679 8.46186 41.1364 5.23031C37.9049 1.99876 33.4404 0 28.5094 0C23.5783 0 19.1138 1.99876 15.8824 5.23031C12.6509 8.46182 10.6521 12.9262 10.6521 17.8573C10.6521 22.7884 12.6509 27.2528 15.8824 30.4843C19.1139 33.7159 23.5783 35.7146 28.5094 35.7146C33.4404 35.7146 37.9048 33.7159 41.1364 30.4843C44.3679 27.2528 46.3666 22.7884 46.3666 17.8573ZM28.5196 3.34979L40.7872 25.5111H28.5197H28.5195H16.2518L28.5196 3.34979ZM40.2086 6.14773C43.2008 9.13756 45.0519 13.2686 45.0519 17.8313C45.0519 20.8859 44.219 23.7448 42.7727 26.1996L28.9895 1.32035C33.3671 1.44371 37.3205 3.26186 40.2086 6.14773ZM11.9669 17.877C11.9669 13.3018 13.8154 9.1595 16.8036 6.16149C19.6926 3.263 23.6489 1.4387 28.0292 1.32035L14.2537 26.2869C12.8026 23.8213 11.9669 20.9476 11.9669 17.877ZM28.5199 27.0725H28.52H42.2584C41.6536 27.9747 40.9632 28.8149 40.1964 29.5793C37.2057 32.5609 33.0735 34.4054 28.5094 34.4054C23.9453 34.4054 19.8131 32.5609 16.8223 29.5793C16.0555 28.8149 15.3652 27.9747 14.7603 27.0725H28.5199Z" fill="#FCE086"/>
<path d="M28.5199 18.1539H28.5201H28.8147L28.7921 24.8518L29.9206 24.8789H29.9207L29.915 18.1539L34.5243 18.1498L38.2005 24.9199H38.2006H39.7227L28.8579 5.28333H28.8578L28.8187 16.9291H28.52H28.5199H28.2211L28.1821 5.28333L28.182 5.28359V5.28333L17.3173 24.9199H18.8394H18.8395L22.5155 18.1499L27.1249 18.154L27.1192 24.879H27.1193L28.2478 24.8518L28.2253 18.154H28.5199V18.1539ZM33.8675 16.94L29.9139 16.9291L29.9076 9.64727L33.8675 16.94ZM27.1323 9.64732L27.126 16.9291L23.1724 16.94L27.1323 9.64732Z" fill="#FCE086"/>
</svg>
