<svg width="36" height="43" viewBox="0 0 36 43" fill="none" xmlns="http://www.w3.org/2000/svg">
<path d="M17.4994 30.347C13.0673 30.347 8.6352 29.156 4.68217 26.7736C4.4735 26.648 4.40646 26.3769 4.53206 26.1682C4.65765 25.9595 4.9286 25.8923 5.13745 26.0181C12.7627 30.6134 22.2364 30.6134 29.8614 26.0181C30.0701 25.8927 30.3412 25.9595 30.4668 26.1682C30.5926 26.3769 30.5254 26.6478 30.3167 26.7736C26.3637 29.156 21.9315 30.347 17.4994 30.347Z" fill="#FCE086"/>
<path d="M17.4994 32.6437C13.0673 32.6437 8.6352 31.4527 4.68217 29.0703C4.4735 28.9447 4.40646 28.6736 4.53206 28.4649C4.65765 28.2562 4.9286 28.1889 5.13745 28.3148C12.7627 32.9101 22.2364 32.9101 29.8614 28.3148C30.0701 28.1892 30.3412 28.2562 30.4668 28.4649C30.5926 28.6736 30.5254 28.9445 30.3167 29.0703C26.3637 31.4527 21.9315 32.6437 17.4994 32.6437Z" fill="#FCE086"/>
<path d="M3.99062 25.7317C5.75828 25.7317 7.19608 24.2937 7.19608 22.5263C7.19608 20.7586 5.7581 19.3208 3.99062 19.3208C2.22313 19.3208 0.785156 20.7588 0.785156 22.5263C0.785156 24.2937 2.22313 25.7317 3.99062 25.7317ZM3.99062 20.2028C5.27178 20.2028 6.3141 21.2451 6.3141 22.5263C6.3141 23.8074 5.27178 24.8497 3.99062 24.8497C2.70946 24.8497 1.66713 23.8074 1.66713 22.5263C1.66713 21.2451 2.70946 20.2028 3.99062 20.2028Z" fill="#FCE086"/>
<path d="M6.64482 40.1161H5.35131V26.3968C5.35131 26.1532 5.15393 25.9558 4.91033 25.9558C4.66672 25.9558 4.46934 26.1532 4.46934 26.3968V40.1161H3.50833V26.3968C3.50833 26.1532 3.31095 25.9558 3.06734 25.9558C2.82374 25.9558 2.62635 26.1532 2.62635 26.3968V40.1161H1.33285C0.597981 40.1161 0 40.714 0 41.4488C0 42.1837 0.597981 42.7815 1.33285 42.7815H6.64482C7.37969 42.7815 7.97767 42.1837 7.97767 41.4488C7.97767 40.714 7.37969 40.1161 6.64482 40.1161ZM6.64482 41.8997H1.33285C1.0843 41.8997 0.881978 41.6975 0.881978 41.449C0.881978 41.2005 1.08413 40.9983 1.33285 40.9983H6.64482C6.89336 40.9983 7.09569 41.2005 7.09569 41.449C7.09569 41.6975 6.89354 41.8997 6.64482 41.8997Z" fill="#FCE086"/>
<path d="M31.0101 25.7317C32.7778 25.7317 34.2156 24.2937 34.2156 22.5263C34.2156 20.7586 32.7776 19.3208 31.0101 19.3208C29.2427 19.3208 27.8047 20.7588 27.8047 22.5263C27.8045 24.2937 29.2425 25.7317 31.0101 25.7317ZM31.0101 20.2028C32.2913 20.2028 33.3336 21.2451 33.3336 22.5263C33.3336 23.8074 32.2913 24.8497 31.0101 24.8497C29.729 24.8497 28.6867 23.8074 28.6867 22.5263C28.6867 21.2451 29.729 20.2028 31.0101 20.2028Z" fill="#FCE086"/>
<path d="M33.6683 40.1161H32.3748V26.3968C32.3748 26.1532 32.1774 25.9558 31.9338 25.9558C31.6902 25.9558 31.4928 26.1532 31.4928 26.3968V40.1161H30.5318V26.3968C30.5318 26.1532 30.3344 25.9558 30.0908 25.9558C29.8472 25.9558 29.6498 26.1532 29.6498 26.3968V40.1161H28.3563C27.6214 40.1161 27.0234 40.714 27.0234 41.4488C27.0234 42.1837 27.6214 42.7815 28.3563 42.7815H33.6683C34.4031 42.7815 35.0011 42.1837 35.0011 41.4488C35.0011 40.714 34.4031 40.1161 33.6683 40.1161ZM33.6683 41.8997H28.3563C28.1077 41.8997 27.9054 41.6975 27.9054 41.449C27.9054 41.2005 28.1076 40.9983 28.3563 40.9983H33.6683C33.9168 40.9983 34.1191 41.2005 34.1191 41.449C34.1191 41.6975 33.9168 41.8997 33.6683 41.8997Z" fill="#FCE086"/>
<path d="M24.6747 40.9315H10.3277C10.0841 40.9315 9.88672 41.1289 9.88672 41.3725C9.88672 41.6161 10.0841 41.8135 10.3277 41.8135H24.6745C24.9181 41.8135 25.1155 41.6161 25.1155 41.3725C25.1155 41.1289 24.9181 40.9315 24.6747 40.9315Z" fill="#FCE086"/>
<path d="M29.106 11.3069C29.106 8.21163 27.8513 5.40928 25.8229 3.38079C23.7944 1.35231 20.992 0.0976562 17.8967 0.0976562C14.8014 0.0976562 11.999 1.35231 9.97061 3.38079C7.94215 5.40925 6.6875 8.21163 6.6875 11.3069C6.6875 14.4022 7.94215 17.2046 9.97061 19.233C11.9991 21.2615 14.8014 22.5162 17.8967 22.5162C20.992 22.5162 23.7944 21.2615 25.8229 19.233C27.8513 17.2046 29.106 14.4022 29.106 11.3069ZM17.9031 2.20036L25.6037 16.1113H17.9032H17.9031H10.2025L17.9031 2.20036ZM25.2405 3.95667C27.1188 5.83342 28.2807 8.4265 28.2807 11.2906C28.2807 13.208 27.7578 15.0026 26.85 16.5435L18.1981 0.926454C20.946 1.00389 23.4276 2.14517 25.2405 3.95667ZM7.51279 11.3193C7.51279 8.44737 8.67318 5.84719 10.5489 3.9653C12.3624 2.14589 14.8458 1.00074 17.5954 0.926454L8.94824 16.5983C8.03742 15.0506 7.51279 13.2468 7.51279 11.3193ZM17.9033 17.0914H17.9034H26.5272C26.1475 17.6577 25.7142 18.1851 25.2329 18.665C23.3555 20.5366 20.7617 21.6943 17.8967 21.6943C15.0318 21.6943 12.4379 20.5366 10.5606 18.665C10.0793 18.1851 9.64598 17.6577 9.26628 17.0914H17.9033Z" fill="#FCE086"/>
<path d="M17.9032 11.4931H17.9032H18.0882L18.074 15.6974L18.7824 15.7145H18.7825L18.7789 11.4931L21.6722 11.4905L23.9797 15.7402H23.9798H24.9353L18.1153 3.41406H18.1153L18.0907 10.7243H17.9032H17.9031H17.7156L17.6911 3.41406L17.691 3.41423V3.41406L10.8711 15.7402H11.8266H11.8266L14.1341 11.4906L17.0275 11.4931L17.0239 15.7145H17.024L17.7324 15.6974L17.7182 11.4931H17.9032V11.4931ZM21.2599 10.7311L18.7782 10.7243L18.7742 6.15337L21.2599 10.7311ZM17.0321 6.1534L17.0282 10.7243L14.5465 10.7311L17.0321 6.1534Z" fill="#FCE086"/>
</svg>
