<svg width="44" height="66" viewBox="0 0 44 66" fill="none" xmlns="http://www.w3.org/2000/svg">
<g>
<path d="M39.1723 30.5251L36.7387 15.7666C36.7226 15.6688 36.6891 15.5747 36.6398 15.4887L30.8306 5.36197C30.7578 5.23511 30.6527 5.12965 30.5261 5.05639L21.9693 0.110819C21.6859 -0.0529635 21.3325 -0.0347932 21.0673 0.157364L10.2341 8.00754C10.1063 8.10005 10.0077 8.22707 9.94961 8.37376L3.35535 25.0162C3.27437 25.2207 3.27777 25.4488 3.36497 25.6506L7.13534 40.3214C7.22702 40.5339 7.40325 40.6984 7.62155 40.7752L23.9477 41.4932C24.0367 41.5245 24.1299 41.5402 24.2232 41.5402C24.2907 41.5402 24.3583 41.5319 24.4244 41.5154L36.2302 40.7752C36.5208 40.7026 36.8762 40.1154 36.9556 39.8265L39.1536 30.8796C39.1855 30.7642 39.1918 30.6432 39.1723 30.5251ZM9.04215 39.5162L14.5044 26.2398L22.8943 29.8055L25.6006 35.7878L23.7397 40.6006L9.04215 39.5162ZM26.9966 36.7785L34.0337 38.7322L25.5741 40.4573L26.9966 36.7785ZM27.1003 35.0768L24.364 29.0282L25.9087 13.1395L29.5884 13.5924L35.0299 37.4622L27.1003 35.0768ZM15.2521 9.76956L12.3782 8.50311L20.5554 2.57767L20.214 6.18602L15.2521 9.76956ZM22.2584 2.1946L29.2917 6.2597L29.4171 11.8994L25.6183 11.4319L21.8608 6.39817L22.2584 2.1946ZM5.02461 25.3083L11.1748 9.78624L14.4745 11.2403L14.2214 14.1513C14.1816 14.6078 14.5196 15.0101 14.9761 15.0498C15.0005 15.0518 15.0248 15.0529 15.0488 15.0529C15.4746 15.0529 15.837 14.727 15.8745 14.295L16.1462 11.1707L20.8283 7.78916L24.3084 12.4511L22.8004 27.9624L14.9752 24.6367L15.2276 21.734C15.2674 21.2775 14.9294 20.8752 14.4729 20.8356C14.0158 20.7962 13.6141 21.1338 13.5745 21.5903L13.2829 24.9439L7.93343 37.983L5.02461 25.3083ZM36.2302 35.2612L31.0956 12.7376L31.0129 9.01454L35.1259 16.1844L37.5055 30.6158L36.2302 35.2612Z" fill="#FCE086"/>
<path d="M14.7245 18.7719C15.1827 18.7719 15.5542 18.4004 15.5542 17.9422C15.5542 17.4841 15.1827 17.1125 14.7245 17.1125H14.7239C14.2657 17.1125 13.8945 17.4841 13.8945 17.9422C13.8945 18.4004 14.2662 18.7719 14.7245 18.7719Z" fill="#FCE086"/>
</g>
<path d="M40.2736 40.4874H3.11074C1.39556 40.4874 0 41.8482 0 43.5206C0 45.193 1.39556 46.5537 3.11074 46.5537H5.46733V50.1787C5.46733 50.6607 5.86785 51.0512 6.36215 51.0512H8.00288V64.9224C8.00288 65.4044 8.4034 65.7949 8.8977 65.7949C9.392 65.7949 9.79252 65.4044 9.79252 64.9224V51.0512H33.5918V64.9224C33.5918 65.4044 33.9923 65.7949 34.4866 65.7949C34.9809 65.7949 35.3814 65.4044 35.3814 64.9224V51.0512H37.0221C37.5164 51.0512 37.917 50.6607 37.917 50.1787V46.5537H40.2736C41.9887 46.5537 43.3843 45.193 43.3843 43.5206C43.3843 41.8482 41.9887 40.4874 40.2736 40.4874ZM36.1273 49.3062H7.25696V46.5537H36.1273V49.3062ZM40.2736 44.8087H3.11074C2.38236 44.8087 1.78963 44.2308 1.78963 43.5206C1.78963 42.8104 2.38236 42.2324 3.11074 42.2324H40.2736C41.0019 42.2324 41.5947 42.8104 41.5947 43.5206C41.5947 44.2308 41.0019 44.8087 40.2736 44.8087Z" fill="#FCE086"/>
<path d="M19.4457 65.7941C18.9514 65.7941 18.5509 65.4036 18.5509 64.9216V56.6068C18.5509 55.7821 17.863 55.1113 17.0176 55.1113C16.1718 55.1113 15.4838 55.7821 15.4838 56.6068V64.9216C15.4838 65.4036 15.0833 65.7941 14.589 65.7941C14.0947 65.7941 13.6942 65.4036 13.6942 64.9216V56.6068C13.6942 54.8199 15.185 53.3663 17.0172 53.3663C18.8498 53.3663 20.3406 54.8199 20.3406 56.6068V64.9216C20.3406 65.4032 19.9397 65.7941 19.4457 65.7941Z" fill="#FCE086"/>
<path d="M28.7955 65.7941C28.3012 65.7941 27.9007 65.4036 27.9007 64.9216V56.6068C27.9007 55.7821 27.2127 55.1113 26.3673 55.1113C25.5215 55.1113 24.8336 55.7821 24.8336 56.6068V64.9216C24.8336 65.4036 24.4331 65.7941 23.9388 65.7941C23.4445 65.7941 23.0439 65.4036 23.0439 64.9216V56.6068C23.0439 54.8199 24.5347 53.3663 26.3669 53.3663C28.1995 53.3663 29.6903 54.8199 29.6903 56.6068V64.9216C29.6903 65.4032 29.2898 65.7941 28.7955 65.7941Z" fill="#FCE086"/>
<defs>
<clipPath id="clip0">
<rect width="42.4805" height="42.4805" fill="white"/>
</clipPath>
</defs>
</svg>
