<svg width="28" height="43" viewBox="0 0 28 43" fill="none" xmlns="http://www.w3.org/2000/svg">
<g>
<path d="M25.1445 19.5932L23.5824 10.1201C23.5721 10.0574 23.5506 9.99696 23.519 9.94178L19.7902 3.4417C19.7435 3.36027 19.676 3.29258 19.5947 3.24556L14.1024 0.0711394C13.9205 -0.0339875 13.6936 -0.0223245 13.5234 0.101016L6.56992 5.13981C6.48791 5.19919 6.42459 5.28073 6.38731 5.37489L2.15464 16.0572C2.10266 16.1884 2.10485 16.3349 2.16082 16.4644L4.58091 25.8811C4.63976 26.0175 4.75287 26.1231 4.89299 26.1724L15.3723 26.6333C15.4294 26.6534 15.4892 26.6635 15.5491 26.6635C15.5924 26.6635 15.6358 26.6581 15.6783 26.6475L23.256 26.1724C23.4426 26.1258 23.6707 25.7489 23.7216 25.5635L25.1325 19.8207C25.153 19.7467 25.157 19.669 25.1445 19.5932ZM5.80484 25.3643L9.31089 16.8426L14.6961 19.1313L16.4332 22.9712L15.2388 26.0604L5.80484 25.3643ZM17.3293 23.6071L21.8462 24.8611L16.4162 25.9684L17.3293 23.6071ZM17.3958 22.5148L15.6395 18.6324L16.631 8.4339L18.9929 8.72457L22.4856 24.0459L17.3958 22.5148ZM9.79083 6.27081L7.94616 5.45791L13.1948 1.65454L12.9757 3.97064L9.79083 6.27081ZM14.288 1.40866L18.8025 4.01793L18.8829 7.63789L16.4446 7.33779L14.0328 4.10681L14.288 1.40866ZM3.22609 16.2447L7.17374 6.28151L9.29172 7.21482L9.12924 9.0833C9.10373 9.37632 9.32064 9.63455 9.61365 9.66001C9.62931 9.66134 9.64491 9.66203 9.66036 9.66203C9.93361 9.66203 10.1662 9.45284 10.1903 9.17554L10.3647 7.17014L13.37 4.99965L15.6038 7.99204L14.6358 17.9483L9.61312 15.8136L9.77512 13.9505C9.80063 13.6574 9.58372 13.3992 9.29071 13.3737C8.99727 13.3485 8.73946 13.5652 8.714 13.8582L8.52686 16.0108L5.09318 24.3802L3.22609 16.2447ZM23.256 22.6331L19.9603 8.17588L19.9072 5.78618L22.5473 10.3883L24.0746 19.6514L23.256 22.6331Z" fill="#FCE086"/>
<path d="M9.45069 12.0492C9.74482 12.0492 9.98324 11.8108 9.98324 11.5167C9.98324 11.2226 9.74482 10.9841 9.45069 10.9841H9.45031C9.15618 10.9841 8.91797 11.2226 8.91797 11.5167C8.91797 11.8108 9.15655 12.0492 9.45069 12.0492Z" fill="#FCE086"/>
</g>
<path d="M25.8504 25.9877H1.99669C0.895768 25.9877 0 26.8612 0 27.9346C0 29.0081 0.895768 29.8815 1.99669 29.8815H3.50932V32.2083C3.50932 32.5177 3.7664 32.7683 4.08368 32.7683H5.13682V41.6719C5.13682 41.9812 5.3939 42.2319 5.71118 42.2319C6.02845 42.2319 6.28553 41.9812 6.28553 41.6719V32.7683H21.5616V41.6719C21.5616 41.9812 21.8187 42.2319 22.1359 42.2319C22.4532 42.2319 22.7103 41.9812 22.7103 41.6719V32.7683H23.7634C24.0807 32.7683 24.3378 32.5177 24.3378 32.2083V29.8815H25.8504C26.9514 29.8815 27.8471 29.0081 27.8471 27.9346C27.8471 26.8612 26.9514 25.9877 25.8504 25.9877ZM23.1891 31.6483H4.65804V29.8815H23.1891V31.6483ZM25.8504 28.7614H1.99669C1.52917 28.7614 1.14871 28.3905 1.14871 27.9346C1.14871 27.4787 1.52917 27.1078 1.99669 27.1078H25.8504C26.318 27.1078 26.6984 27.4787 26.6984 27.9346C26.6984 28.3905 26.318 28.7614 25.8504 28.7614Z" fill="#FCE086"/>
<path d="M12.4847 42.2312C12.1674 42.2312 11.9103 41.9806 11.9103 41.6712V36.3342C11.9103 35.8048 11.4688 35.3743 10.9261 35.3743C10.3832 35.3743 9.94168 35.8048 9.94168 36.3342V41.6712C9.94168 41.9806 9.6846 42.2312 9.36733 42.2312C9.05005 42.2312 8.79297 41.9806 8.79297 41.6712V36.3342C8.79297 35.1872 9.74985 34.2542 10.9259 34.2542C12.1022 34.2542 13.0591 35.1872 13.0591 36.3342V41.6712C13.0591 41.9804 12.8018 42.2312 12.4847 42.2312Z" fill="#FCE086"/>
<path d="M18.4847 42.2312C18.1674 42.2312 17.9103 41.9806 17.9103 41.6712V36.3342C17.9103 35.8048 17.4688 35.3743 16.9261 35.3743C16.3832 35.3743 15.9417 35.8048 15.9417 36.3342V41.6712C15.9417 41.9806 15.6846 42.2312 15.3673 42.2312C15.0501 42.2312 14.793 41.9806 14.793 41.6712V36.3342C14.793 35.1872 15.7499 34.2542 16.9259 34.2542C18.1022 34.2542 19.0591 35.1872 19.0591 36.3342V41.6712C19.0591 41.9804 18.802 42.2312 18.4847 42.2312Z" fill="#FCE086"/>
<defs>
<clipPath id="clip0">
<rect width="27.267" height="27.267" fill="white"/>
</clipPath>
</defs>
</svg>
