<svg xmlns="http://www.w3.org/2000/svg" viewBox="0 0 57.05 96.13"><defs><style>.cls-1{fill:#333132;fill-rule:evenodd;}</style></defs><title>Ресурс 6</title><g id="Слой_2" data-name="Слой 2"><g id="_1" data-name="1"><polygon class="cls-1" points="0 29.74 17.17 0 14.14 0 0 24.49 0 24.49 0 24.49 0 29.74 0 29.74"/><polygon class="cls-1" points="0.66 0 0.66 20.74 12.63 0 9.6 0 3.28 10.95 3.28 0 0.66 0"/><polygon class="cls-1" points="18.8 0 1.63 29.74 55.41 29.74 38.24 0 35.22 0 50.87 27.12 6.18 27.12 21.83 0 18.8 0"/><path class="cls-1" d="M29.18,0V12.9H27.87V0H23.35L8.45,25.8h3l5.93-10.28h7.84V25.8h2.62V15.52h1.31V25.8H31.8V15.52h7.84L45.57,25.8h3L33.7,0ZM18.93,12.9h0L25.25,2v11Zm12.87,0h0V2l6.32,11Z"/><polygon class="cls-1" points="39.88 0 57.05 29.74 57.05 24.49 42.91 0 39.88 0"/><polygon class="cls-1" points="56.39 20.73 56.39 0 53.77 0 53.77 10.95 47.45 0 44.42 0 56.39 20.73"/><polygon class="cls-1" points="17.17 96.13 26.89 79.29 0 79.29 0 81.92 22.35 81.92 14.14 96.13 17.17 96.13"/><path class="cls-1" d="M0,96.13H12.63l7.45-12.9h-3L11.11,93.51H3.28V83.23H.66V93.51H0v2.62Z"/><polygon class="cls-1" points="28.52 79.29 18.8 96.13 21.83 96.13 28.52 84.54 28.52 84.54 35.22 96.13 38.24 96.13 28.52 79.29"/><path class="cls-1" d="M29.18,88.3v7.83H33.7L29.18,88.3Zm-1.31,7.83V88.3l-4.52,7.83Z"/><polygon class="cls-1" points="0 31.23 26.89 77.8 0 77.8 0 75.18 22.35 75.18 0 36.47 0 36.47 0 36.47 0 31.23 0 31.23"/><path class="cls-1" d="M0,61H.66V40.23L20.08,73.87h-3L11.11,63.59H3.28V73.87H.66V63.59H0V61Zm9.6,0h0L3.28,50V61Z"/><path class="cls-1" d="M28.52,77.8,1.63,31.23H55.41L28.52,77.8Zm0-5.24h0L50.87,33.85H6.18Z"/><path class="cls-1" d="M29.18,68.8V48.06H27.87V68.8L8.45,35.16h3l5.93,10.28h7.84V35.16h2.62V45.44h1.31V35.16H31.8V45.44h7.84l5.93-10.28h3L29.18,68.8ZM18.93,48.06h0L25.25,59V48.06Zm12.87,0h0V59l6.32-10.95Z"/><polygon class="cls-1" points="57.05 79.29 30.16 79.29 39.88 96.13 42.91 96.13 34.7 81.92 57.05 81.92 57.05 79.29"/><path class="cls-1" d="M56.39,96.13h.66V93.51h-.66V83.23H53.77V93.51H45.93L40,83.23H37l7.45,12.9h12Z"/><polygon class="cls-1" points="57.05 77.8 30.16 77.8 57.05 31.23 57.05 36.47 34.7 75.18 57.05 75.18 57.05 77.8"/><path class="cls-1" d="M56.39,40.23V61h.66v2.62h-.66V73.87H53.77V63.59H45.93L40,73.87H37L56.39,40.23ZM53.77,61h0V50L47.45,61Z"/></g></g></svg>