<svg width="24" height="24" viewBox="0 0 24 24" fill="none" xmlns="http://www.w3.org/2000/svg">
<g clip-path="url(#clip0)">
<path d="M22.7581 24.0001C23.0742 24.0001 23.3903 23.8798 23.6305 23.6378C24.1127 23.1556 24.1127 22.3739 23.6305 21.8917L2.10052 0.361646C1.61833 -0.120549 0.836571 -0.120549 0.354376 0.361646C-0.127819 0.843842 -0.127819 1.6256 0.354376 2.1081L21.8841 23.6378C22.1261 23.8783 22.4422 24.0001 22.7581 24.0001Z" fill="white"/>
<path d="M1.22655 24.0001C1.54269 24.0001 1.85852 23.8798 2.09902 23.6378L23.6305 2.1081C24.1127 1.6256 24.1127 0.843842 23.6305 0.361646C23.1483 -0.120549 22.3666 -0.120549 21.8841 0.361646L0.354376 21.8917C-0.127819 22.3739 -0.127819 23.1556 0.354376 23.6378C0.596378 23.8783 0.912216 24.0001 1.22655 24.0001Z" fill="white"/>
</g>
<defs>
<clipPath id="clip0">
<rect width="24" height="24" fill="white" transform="matrix(-1 0 0 1 24 0)"/>
</clipPath>
</defs>
</svg>
