<svg xmlns="http://www.w3.org/2000/svg" xmlns:xlink="http://www.w3.org/1999/xlink" viewBox="0 0 183.23 183.23"><defs><style>.cls-1{fill:url(#linear-gradient);}</style><linearGradient id="linear-gradient" x1="19206.71" y1="-2269.84" x2="25681.2" y2="-8744.36" gradientTransform="matrix(0.03, 0, 0, -0.03, -543.5, -64.19)" gradientUnits="userSpaceOnUse"><stop offset="0" stop-color="#b0a74a"/><stop offset="0.06" stop-color="#75573a"/><stop offset="0.17" stop-color="#b0a74a"/><stop offset="0.37" stop-color="#e7eb91"/><stop offset="0.54" stop-color="#75573a"/><stop offset="0.72" stop-color="#d3b14a"/><stop offset="1" stop-color="#75573a"/></linearGradient></defs><title>Ресурс 4</title><g id="Слой_2" data-name="Слой 2"><g id="_1" data-name="1"><path class="cls-1" d="M168.09,135.86h0l-.57,1a88.26,88.26,0,0,1-151.76,0c-.2-.34-.4-.65-.57-1s-.36-.65-.56-1A88.3,88.3,0,0,1,90.51,3.43h2.32a88.3,88.3,0,0,1,75.88,131.44c-.19.34-.36.65-.56,1ZM87.82,37.81,39.26,121.94h3.83L59.58,93.37H84.5v28.57h3.32V93.37h7.59v28.57h3.32V93.37h24.91l16.5,28.57H144L95.41,37.81V90H87.82ZM84.5,90h-23l23-39.8Zm14.26-39.8h0l23,39.8h-23Zm43.37,24.55-.77-.12V66.19h-1.87v.22l.76.12v8.13l-.76.12V75h2.64ZM145,71.35a3.06,3.06,0,0,0,1.44.34,2.48,2.48,0,0,0,1-.2,2.14,2.14,0,0,0,.79-.62v1.21a3.77,3.77,0,0,1-.51,2.24,1.59,1.59,0,0,1-1.36.68,1.21,1.21,0,0,1-.85-.28.8.8,0,0,1-.34-.68,1.34,1.34,0,0,1,.05-.31,1.07,1.07,0,0,1,.23-.26.52.52,0,0,0-.2-.45.78.78,0,0,0-.48-.17.79.79,0,0,0-.59.25.87.87,0,0,0-.23.63,1.12,1.12,0,0,0,.31.76,2.26,2.26,0,0,0,.85.54,3.4,3.4,0,0,0,1.22.2,2.79,2.79,0,0,0,2.38-1.13,5.58,5.58,0,0,0,.85-3.38,7.33,7.33,0,0,0-.68-3.48A2.41,2.41,0,0,0,146.6,66a3.18,3.18,0,0,0-1.47.34,2.72,2.72,0,0,0-1.08,1,3.11,3.11,0,0,0-.39,1.56,3,3,0,0,0,.34,1.5,2.36,2.36,0,0,0,1,1Zm0-3h0a2.64,2.64,0,0,1,.42-1.56,1.44,1.44,0,0,1,1.22-.56,1.34,1.34,0,0,1,1.22.65,3.81,3.81,0,0,1,.4,1.9V70.3a2.18,2.18,0,0,1-.71.79,1.8,1.8,0,0,1-1,.28,1.35,1.35,0,0,1-1.14-.5,2.53,2.53,0,0,1-.37-1.48V68.31Zm6.29,4.59a2,2,0,0,0,.79,1.7,3.65,3.65,0,0,0,2.21.6,3.51,3.51,0,0,0,1.45-.28,2.74,2.74,0,0,0,1.11-.88,2.36,2.36,0,0,0,.42-1.42,2.08,2.08,0,0,0-.48-1.39,6.22,6.22,0,0,0-1.33-1.1l-.29-.17a5.41,5.41,0,0,0,.83-.57,2.1,2.1,0,0,0,.53-.65,1.81,1.81,0,0,0,.23-.91,1.43,1.43,0,0,0-.37-1,2.08,2.08,0,0,0-.9-.62,3.17,3.17,0,0,0-1.2-.23,3.22,3.22,0,0,0-1.33.26,2.38,2.38,0,0,0-1,.73,1.71,1.71,0,0,0-.37,1.11,1.92,1.92,0,0,0,.31,1,3.85,3.85,0,0,0,.88.88l.51.34a5.22,5.22,0,0,0-1.47,1.07,2.27,2.27,0,0,0-.57,1.59Zm1.59-4.62h0a1.25,1.25,0,0,1-.29-.82.93.93,0,0,1,.23-.65,1.33,1.33,0,0,1,.6-.45,1.58,1.58,0,0,1,.76-.17,1.54,1.54,0,0,1,1.16.45,1.62,1.62,0,0,1,.46,1.16,2.69,2.69,0,0,1-.2,1,1.9,1.9,0,0,1-.71.88L153.75,69a2.83,2.83,0,0,1-.82-.71Zm-.17,3.26h0a2.54,2.54,0,0,1,.93-1.1l1.19.76a4.23,4.23,0,0,1,1.05,1,1.84,1.84,0,0,1,.34,1.07,1.68,1.68,0,0,1-.22.82,1.9,1.9,0,0,1-.71.63,2.49,2.49,0,0,1-1.05.23,1.7,1.7,0,0,1-1.39-.57,2.31,2.31,0,0,1-.45-1.42A3.56,3.56,0,0,1,152.73,71.57Zm6.57-4.25H163a9.4,9.4,0,0,1-.6,1.56c-.22.48-.54,1.08-.93,1.76s-.6,1.08-.8,1.47a9,9,0,0,0-.53,1.33,7,7,0,0,0-.32,1.54h1.51a10.89,10.89,0,0,1,.34-2c.17-.62.42-1.39.73-2.29s.57-1.73.74-2.41a16,16,0,0,0,.43-2.13h-4.82v2.47H159Zm-112,83.1v.19H49.6v-.19l-.72-.15v-3.61h.69a1.14,1.14,0,0,1,.84.3,1.8,1.8,0,0,1,.35,1l.18,1.61a1.91,1.91,0,0,0,.32.91.92.92,0,0,0,.68.26,1.22,1.22,0,0,0,1-.6l-.13-.19c-.19.23-.34.34-.5.34h-.06A.41.41,0,0,1,52,150a2,2,0,0,1-.13-.67l-.18-1.47a1.66,1.66,0,0,0-.44-1,1.51,1.51,0,0,0-1-.45,1.1,1.1,0,0,0,.43-.45,2.62,2.62,0,0,0,.29-.76l.25-1.2c0-.23.15-.34.31-.34s.31.15.41.42h.15a.36.36,0,0,0,.35-.19.74.74,0,0,0,.12-.46.7.7,0,0,0-.19-.48.65.65,0,0,0-.47-.19.69.69,0,0,0-.56.26,2.16,2.16,0,0,0-.34.79l-.25,1.21a2.55,2.55,0,0,1-.41.94,1,1,0,0,1-.66.37h-.84v-3.16l.72-.15v-.22H47.25v.22l.75.15v7l-.75.15Zm8.89-7.68H56L53.7,150l-.79.38v.19h1.73v-.19l-.72-.38.65-2H56.7l.69,2.3-.66.11v.19h2.35v-.19l-.72-.15-2.19-7.53Zm-1.54,5.08h0l1-3.38,1,3.38Zm4.92,2.6v.19h1.72v-.19l-.78-.38v-6.77l2.37,7.45H63l2.38-7.15v6.7l-.75.15v.19H67v-.19l-.72-.15v-7l.72-.15v-.23H65.34l-2,6.18-2-6.18H59.52v.23l.75.15V150Zm12.32,0v.19h2.38v-.19l-.75-.15v-7l.75-.15v-.23H71.84v.23l.75.15v3.16h-3v-3.16l.72-.15v-.23H67.93v.23l.75.15v7l-.75.15v.19h2.35v-.19l-.72-.15v-3.61h3v3.61Zm3.32,0v.19h5v-2.37H80l-.66,2.11h-2.5v-3.54h1l.47,1.43h.22v-3.05h-.22l-.47,1.39h-1v-3.46h2.37l.63,2H80v-2.22H75.19v.22l.75.15v7l-.75.15Zm8.6-2.78a2.23,2.23,0,0,0,1.75-.61,2.49,2.49,0,0,0,.6-1.77,2.1,2.1,0,0,0-2.35-2.33h-2.5v.23l.72.15v7l-.72.15v.19h2.35v-.19l-.76-.15v-2.64h.91Zm-.91-4.48h.79c1,0,1.47.64,1.47,1.92v.37c0,1.28-.5,1.92-1.47,1.92h-.79v-4.21ZM87,150.42v.19h5v-2.37H91.8l-.66,2.11h-2.5v-3.54h1l.47,1.43h.22v-3.05h-.22l-.47,1.39h-1v-3.46H91l.63,2h.21v-2.22H87.05v.22l.72.15v7l-.72.15Zm9.44-.34a1.12,1.12,0,0,1-1,.53,1.83,1.83,0,0,1-.81-.15,2.43,2.43,0,0,1-.53-.34c-.13-.15-.19-.19-.19-.23l-.47-1.61H93.3v2.48h.16l.53-.49a1.47,1.47,0,0,0,.22.19,4.17,4.17,0,0,0,.53.3,2.49,2.49,0,0,0,2.44-.41,2.18,2.18,0,0,0,.57-1.62,2.26,2.26,0,0,0-.41-1.4,2.21,2.21,0,0,0-1.35-.71,1.78,1.78,0,0,0,1.13-.6,2,2,0,0,0,.38-1.21,2.12,2.12,0,0,0-.5-1.47,2.26,2.26,0,0,0-1.6-.52,1.85,1.85,0,0,0-.63.11,4.14,4.14,0,0,0-.47.23l-.18.11-.53-.45h-.16v2.37h.16l.5-1.62a.89.89,0,0,1,.15-.15,1.35,1.35,0,0,1,.44-.26,1.74,1.74,0,0,1,.69-.12.92.92,0,0,1,.84.45,2.59,2.59,0,0,1,.32,1.36v.08a2,2,0,0,1-.32,1.24,1.09,1.09,0,0,1-1,.41h-.59v.23h.59a1.31,1.31,0,0,1,1.16.49,2.19,2.19,0,0,1,.38,1.39v.11a2.65,2.65,0,0,1-.35,1.43ZM66.77,165.63v.19h1.72v-.19l-.72-.38.66-2h2.13l.69,2.3-.66.11v.19h2.35v-.19l-.72-.15L70,157.91H69.9l-2.31,7.3-.79.38Zm2.76-6h0l1,3.39h-2l1.07-3.39Zm29.31-9.22v.19h2.35v-.19l-.75-.15v-3.61h3v3.61l-.75.15v.19h2.38v-.19l-.75-.15v-7l.75-.15v-.23h-2.38v.23l.75.15v3.16h-3v-3.16l.75-.15v-.23H98.84v.23l.75.15v7Zm-19.15,7.91v-.23H77.32v.23l.75.15v3.16H75v-3.16l.72-.15v-.23H73.41v.23l.72.15v7l-.72.15v.19h2.34v-.19l-.72-.15v-3.61h3v3.61l-.75.15v.19h2.37v-.19l-.75-.15v-7Zm26.41-8v.23h2.66a2.58,2.58,0,0,0,1.75-.53,2.11,2.11,0,0,0,.59-1.62,2,2,0,0,0-.59-1.61,2.39,2.39,0,0,0-1.75-.53h-1v-3l.75-.15V143h-2.35v.19l.75.15v7l-.75.15Zm1.63-3.87h.9a1.39,1.39,0,0,1,1.1.41,2,2,0,0,1,.37,1.32v.37a2,2,0,0,1-.37,1.32,1.35,1.35,0,0,1-1.1.42h-.9v-3.84ZM80.54,160.25h.22l.62-1.92H82.7v7.11l-.75.15v.19h2.34v-.19l-.72-.15v-7.11h1.32l.59,1.92h.25V158.1H80.54Zm30.85-9.87v.19h2.34v-.19l-.72-.15v-7l.72-.15v-.22h-2.34v.22l.72.15v7Zm-20.12,8a2.58,2.58,0,0,0-1.56-.53h0a2.41,2.41,0,0,0-1.57.53,3.24,3.24,0,0,0-1.06,1.43,6,6,0,0,0,0,4.22,3.24,3.24,0,0,0,1.06,1.43,2.58,2.58,0,0,0,1.57.53h0a2.35,2.35,0,0,0,1.56-.53,3.24,3.24,0,0,0,1.06-1.43,6,6,0,0,0,0-4.22A3.49,3.49,0,0,0,91.27,158.4Zm.47,4.25h0a5.18,5.18,0,0,1-.25,1.66,2.49,2.49,0,0,1-.72,1.06,1.8,1.8,0,0,1-1,.37,1.58,1.58,0,0,1-1-.37,2.76,2.76,0,0,1-.72-1.06,4.53,4.53,0,0,1-.25-1.66v-1.46a5.52,5.52,0,0,1,.25-1.66,2.39,2.39,0,0,1,.72-1.05,1.54,1.54,0,0,1,1-.38,1.52,1.52,0,0,1,1,.38,2.17,2.17,0,0,1,.72,1.05,4.36,4.36,0,0,1,.25,1.66Zm25.65-21.19a.89.89,0,0,0-.15-.45.56.56,0,0,0-.38-.19.43.43,0,0,0-.34.19.65.65,0,0,0-.16.45.94.94,0,0,0,.44.83,1.82,1.82,0,0,0,1.06.26,1.87,1.87,0,0,0,1.07-.26.91.91,0,0,0,.4-.83.89.89,0,0,0-.15-.45.5.5,0,0,0-.35-.19.6.6,0,0,0-.37.19.65.65,0,0,0-.16.45.44.44,0,0,1,.25.42.48.48,0,0,1-.19.34,1,1,0,0,1-1.06,0,.37.37,0,0,1-.19-.34.65.65,0,0,1,.06-.23.69.69,0,0,1,.19-.19Zm1.25,8.89v.18H121v-.18l-.75-.15v-7L121,143v-.22h-2.38V143l.76.15v.27l-3.13,6v-6.25L117,143v-.22h-2.35V143l.72.15v7l-.72.15v.18H117v-.18l-.72-.15v-.31l3.13-6v6.29Zm-20.93,7.9.76.15v3.16h-3V158.4l.72-.15V158H93.8v.22l.72.15v7l-.72.15v.19h2.35v-.19l-.72-.15v-3.61h3v3.61l-.76.15v.19h2.38v-.19l-.75-.15v-7l.75-.15V158H97.71Zm27.54-10.39a6.43,6.43,0,0,1-.35,1.32,2.71,2.71,0,0,1-.5.86.72.72,0,0,1-.53.27h-.25l-.13,2.37h.25l.85-2.11h3.78l.85,2.11h.25l-.13-2.37h-.68v-7.12l.75-.15v-.22h-4.7V143l.85.42-.1,2.07c0,1-.12,1.8-.18,2.29Zm.4-2.29h0l.13-2.49h2v7.23h-3.26l.13-.11a3.38,3.38,0,0,0,.25-.34,3.79,3.79,0,0,0,.28-.57,6.27,6.27,0,0,0,.31-1.35,20.94,20.94,0,0,0,.22-2.37Zm-19.93,12.79a2.63,2.63,0,0,0-1.56-.52h0a2.4,2.4,0,0,0-1.57.52,3.32,3.32,0,0,0-1.06,1.43,6.2,6.2,0,0,0,0,4.22,3.58,3.58,0,0,0,1.06,1.43,2.58,2.58,0,0,0,1.57.53h0a2.35,2.35,0,0,0,1.56-.53,3.26,3.26,0,0,0,1.07-1.43,6.2,6.2,0,0,0,0-4.22A3.51,3.51,0,0,0,105.72,158.36Zm.47,4.26h0a5.16,5.16,0,0,1-.25,1.65,2.35,2.35,0,0,1-.72,1.06,1.77,1.77,0,0,1-1,.37,1.54,1.54,0,0,1-1-.37,2.59,2.59,0,0,1-.72-1.06,4.31,4.31,0,0,1-.25-1.65v-1.47a5.22,5.22,0,0,1,.25-1.66,2.37,2.37,0,0,1,.72-1.05,1.59,1.59,0,0,1,2.06,0,2.09,2.09,0,0,1,.72,1.05,4.36,4.36,0,0,1,.25,1.66Zm29.94-13.85a6,6,0,0,0,0-4.22,3.49,3.49,0,0,0-1.06-1.43,2.58,2.58,0,0,0-1.56-.53h0a2.35,2.35,0,0,0-1.57.53,3.24,3.24,0,0,0-1.06,1.43,6,6,0,0,0,0,4.22,3.24,3.24,0,0,0,1.06,1.43,2.64,2.64,0,0,0,1.57.52h0a2.39,2.39,0,0,0,1.56-.52A3.24,3.24,0,0,0,136.13,148.77Zm-1.59,1.35h0a1.6,1.6,0,0,1-2.07,0,2.45,2.45,0,0,1-.72-1.05,4.6,4.6,0,0,1-.25-1.66v-1.47a5.4,5.4,0,0,1,.25-1.65,2.43,2.43,0,0,1,.72-1.06,1.83,1.83,0,0,1,1-.37,1.57,1.57,0,0,1,1,.37,2.35,2.35,0,0,1,.72,1.06,4.51,4.51,0,0,1,.25,1.65v1.47a5.52,5.52,0,0,1-.25,1.66A2.45,2.45,0,0,1,134.54,150.12Zm-23,11.52v0a1.71,1.71,0,0,0,1.44-1.77,1.92,1.92,0,0,0-.22-1,1.23,1.23,0,0,0-.75-.57,4.55,4.55,0,0,0-1.37-.19h-2.44v.23l.72.15v7l-.72.15v.19H111a2.56,2.56,0,0,0,1.75-.53,1.86,1.86,0,0,0,.66-1.58,1.7,1.7,0,0,0-.5-1.35,2.38,2.38,0,0,0-1.38-.64Zm-1.72-3.39h.82c.94,0,1.37.53,1.37,1.58v0a2.05,2.05,0,0,1-.34,1.24,1.15,1.15,0,0,1-1,.45h-.88Zm2.63,5.38h0a2.08,2.08,0,0,1-.37,1.36,1.33,1.33,0,0,1-1.07.49h-1.22v-3.69H111a1.41,1.41,0,0,1,1.07.41,2,2,0,0,1,.37,1.32Zm26-20.47,2.38,7.45H141l2.38-7.15v6.7l-.75.15v.19H145v-.19l-.75-.15v-7L145,143v-.23h-1.63L141.33,149l-2-6.17h-1.75V143l.75.15v6.77l-.75.38v.19h1.72v-.19l-.78-.38ZM117,157.84h-.13l-2.31,7.3-.78.38v.18h1.72v-.18l-.72-.38.65-2h2.13l.69,2.29-.66.12v.18H120v-.18l-.72-.15-2.19-7.57Zm-1.54,5.08h0l1.07-3.39,1,3.39h-2ZM15.05,74.15a3.69,3.69,0,0,0,1.82.51A2.63,2.63,0,0,0,18.71,74a2.26,2.26,0,0,0,.68-1.73A2.44,2.44,0,0,0,19,70.7a2.35,2.35,0,0,0-1.3-.77l-1.79-.48a3,3,0,0,1-1-.48,1.09,1.09,0,0,1-.37-.85A1.46,1.46,0,0,1,15,67a1.93,1.93,0,0,1,1.36-.45,3.32,3.32,0,0,1,1.61.37l.71,1.44h.23v-2h-.23l-.74.31a4.36,4.36,0,0,0-1.61-.31,2.57,2.57,0,0,0-1.25.31,1.86,1.86,0,0,0-.79.83A2.85,2.85,0,0,0,14,68.63a2.07,2.07,0,0,0,.43,1.3,2.35,2.35,0,0,0,1.3.77l1.65.42a2.87,2.87,0,0,1,1.19.57,1.24,1.24,0,0,1,.37,1,1.6,1.6,0,0,1-.57,1.3,2.17,2.17,0,0,1-1.45.46,3.17,3.17,0,0,1-1.89-.6l-.86-1.87h-.22v2.55h.22l.86-.42Zm8.65.12-.91-.15V66.87l.91-.14V66.5H20.78v.23l.9.14v7.25l-.9.15v.19H23.7Zm3.37,0-1-.4V67.49l5,7h.25V67.09l.94-.39v-.23H30.13v.23l.94.39v5.42l-4.31-6H24.92v.23l.93.39v6.78l-.93.4v.19H27v-.19Zm8.19-.12a3.53,3.53,0,0,0,1.9.51,3.19,3.19,0,0,0,.91-.14,2.73,2.73,0,0,0,.82-.45l.71.51h.2V72h-.2L39,73.61a2.19,2.19,0,0,1-.85.6,2.69,2.69,0,0,1-1,.23,2,2,0,0,1-1.22-.37,2.64,2.64,0,0,1-.82-1,4,4,0,0,1-.28-1.65V69.56a4.1,4.1,0,0,1,.31-1.64,2.33,2.33,0,0,1,.82-1,2.07,2.07,0,0,1,1.25-.37,2.1,2.1,0,0,1,.9.2,2.15,2.15,0,0,1,.83.51l.62,1.56h.2V66.3h-.2l-.68.57a4.64,4.64,0,0,0-.79-.43,2.49,2.49,0,0,0-.88-.14,3.64,3.64,0,0,0-1.93.51A3.25,3.25,0,0,0,34,68.29a5.51,5.51,0,0,0,0,4.36,3.56,3.56,0,0,0,1.25,1.47Zm12.22-2.09h-.26l-.82,2.18H43.28V70.58h1.28l.6,1.48h.25V68.91h-.25l-.6,1.44h-1.3v-3.6H46.2l.77,2h.28V66.5h-6v.23l.94.14v7.25l-.94.15v.19h6.24v-2.4Zm-21.43,57.4h0L91.59,15.93l65.56,113.53Zm-5.75,3.31H162.93L91.61,9.27ZM91.61,0a91.62,91.62,0,1,0,91.62,91.61A91.72,91.72,0,0,0,91.61,0Z"/></g></g></svg>