<?xml version="1.0" encoding="UTF-8"?>
<!DOCTYPE svg PUBLIC "-//W3C//DTD SVG 1.1//EN" "http://www.w3.org/2000/svg">
<!-- Creator: CorelDRAW 2019 (64-Bit) -->
<svg xmlns="http://www.w3.org/2000/svg" xml:space="preserve" width="210mm" height="297mm" version="1.1" style="shape-rendering:geometricPrecision; text-rendering:geometricPrecision; image-rendering:optimizeQuality; fill-rule:evenodd; clip-rule:evenodd"
     viewBox="0 0 110000 30367">
 <defs>
  <style type="text/css">
   <![CDATA[
    .str1 {stroke:#2B2A29;stroke-width:69.99;stroke-miterlimit:22.9256}
    .str2 {stroke:#2B2A29;stroke-width:150;stroke-miterlimit:22.9256}
    .str0 {stroke:#2B2A29;stroke-width:10;stroke-miterlimit:22.9256}
    .fil4 {fill:none}
    .fil2 {fill:none;fill-rule:nonzero}
    .fil0 {fill:#FEFEFE}
    .fil3 {fill:#2B2A29}
    .fil5 {fill:#2B2A29}
    .fil1 {fill:#2B2A29;fill-rule:nonzero}
   ]]>
  </style>
 </defs>
 <g id="Слой_x0020_1">
  <metadata id="CorelCorpID_0Corel-Layer"/>
  <g id="_3205492573344">
   <path class="fil0" d="M11655.72 22926.71l-356.93 -657.34 0.57 656.36 356.36 0.98zm-482 109.42l26.56 0 -2.02 603.7 101.71 2.45 -0.52 -606.15 415.47 -0.38 331.33 610.22 137.2 0 -979.27 -1769.91 -3.53 1049.67 -26.93 0 -26.93 0 -3.53 -1049.67 -979.27 1769.91 137.2 0 331.33 -610.22 415.47 0.38 -0.52 606.15 101.72 -2.45 -2.03 -603.7 26.56 0zm-481.99 -109.42l356.92 -657.34 -0.57 656.36 -356.35 0.98z"/>
   <path class="fil1" d="M8268.55 24965.14l0 122.28 -9.61 0c-3.12,-23.49 -8.73,-42.18 -16.83,-56.06 -8.09,-13.89 -19.66,-24.92 -34.7,-33.11 -14.96,-8.19 -30.44,-12.28 -46.46,-12.28 -18.16,0 -33.11,5.51 -44.94,16.55 -11.84,11.04 -17.8,23.67 -17.8,37.73 0,10.77 3.74,20.65 11.21,29.55 10.86,13 36.49,30.44 77.07,52.15 33.11,17.8 55.71,31.42 67.82,40.85 12.1,9.53 21.45,20.65 27.94,33.55 6.5,12.91 9.79,26.35 9.79,40.5 0,26.79 -10.41,49.84 -31.15,69.24 -20.82,19.4 -47.61,29.1 -80.27,29.1 -10.33,0 -19.94,-0.8 -29.01,-2.4 -5.43,-0.89 -16.56,-4.1 -33.56,-9.61 -16.91,-5.52 -27.67,-8.28 -32.21,-8.28 -4.36,0 -7.84,1.33 -10.33,3.91 -2.49,2.67 -4.36,8.1 -5.6,16.38l-9.62 0 0 -121.21 9.62 0c4.54,25.36 10.59,44.41 18.24,56.95 7.65,12.64 19.4,23.14 35.15,31.42 15.76,8.37 33.02,12.55 51.8,12.55 21.72,0 38.98,-5.79 51.53,-17.27 12.64,-11.57 18.96,-25.18 18.96,-40.85 0,-8.72 -2.41,-17.53 -7.12,-26.43 -4.81,-8.9 -12.2,-17.17 -22.25,-24.92 -6.77,-5.25 -25.37,-16.28 -55.72,-33.19 -30.34,-16.82 -51.97,-30.35 -64.78,-40.41 -12.82,-10.05 -22.61,-21.27 -29.2,-33.37 -6.67,-12.19 -9.96,-25.63 -9.96,-40.23 0,-25.36 9.79,-47.26 29.28,-65.59 19.49,-18.33 44.41,-27.5 74.49,-27.5 18.86,0 38.8,4.63 59.89,13.8 9.79,4.36 16.64,6.49 20.65,6.49 4.54,0 8.28,-1.33 11.12,-4 2.85,-2.76 5.17,-8.1 6.95,-16.29l9.61 0z"/>
   <path id="1" class="fil1" d="M8763.1 24973.15l3.74 83.21 -9.88 0c-1.95,-14.59 -4.54,-25.09 -7.83,-31.32 -5.43,-10.06 -12.55,-17.54 -21.54,-22.25 -8.98,-4.81 -20.73,-7.21 -35.33,-7.21l-49.84 0 0 270.19c0,21.81 2.32,35.42 7.04,40.85 6.58,7.3 16.73,10.95 30.43,10.95l12.2 0 0 9.61 -150.59 0 0 -9.61 12.73 0c15.13,0 25.81,-4.54 32.22,-13.62 3.82,-5.6 5.78,-18.33 5.78,-38.18l0 -270.19 -42.45 0c-16.55,0 -28.3,1.24 -35.24,3.65 -9.08,3.29 -16.73,9.61 -23.23,19.04 -6.41,9.35 -10.24,22.07 -11.48,38.09l-9.88 0 3.74 -83.21 289.41 0z"/>
   <path id="2" class="fil1" d="M9099.07 24965.14c45.83,0 85.62,17.44 119.17,52.33 33.64,34.89 50.46,78.41 50.46,130.65 0,53.75 -16.91,98.34 -50.82,133.85 -33.82,35.51 -74.84,53.22 -122.99,53.22 -48.59,0 -89.44,-17.35 -122.55,-51.97 -33.11,-34.62 -49.66,-79.39 -49.66,-134.39 0,-56.16 19.13,-101.99 57.31,-137.5 33.2,-30.79 72.89,-46.19 119.08,-46.19zm-4.98 18.69c-31.51,0 -56.87,11.75 -75.92,35.24 -23.76,29.28 -35.68,72.09 -35.68,128.51 0,57.76 12.28,102.26 36.93,133.41 18.95,23.67 43.87,35.51 74.93,35.51 33.2,0 60.52,-12.99 82.15,-38.89 21.62,-25.99 32.39,-66.84 32.39,-122.73 0,-60.6 -11.92,-105.81 -35.69,-135.54 -19.04,-23.67 -45.38,-35.51 -79.11,-35.51z"/>
   <path id="3" class="fil1" d="M9415.99 24973.15l95.14 0 216.88 265.83 0 -204.42c0,-21.81 -2.49,-35.42 -7.38,-40.85 -6.5,-7.3 -16.82,-10.95 -30.89,-10.95l-12.46 0 0 -9.61 124.42 0 0 9.61 -12.64 0c-15.21,0 -25.89,4.54 -32.3,13.62 -3.83,5.61 -5.79,18.33 -5.79,38.18l0 298.32 -9.43 0 -232.99 -285.15 0 218.04c0,21.81 2.4,35.42 7.12,40.85 6.67,7.3 16.99,10.95 30.97,10.95l12.63 0 0 9.61 -124.41 0 0 -9.61 12.46 0c15.3,0 26.07,-4.54 32.48,-13.62 3.83,-5.6 5.79,-18.33 5.79,-38.18l0 -246.16c-10.24,-12.02 -18.07,-19.94 -23.32,-23.76 -5.34,-3.83 -13.08,-7.39 -23.32,-10.77 -5.07,-1.52 -12.73,-2.32 -22.96,-2.32l0 -9.61z"/>
   <path id="4" class="fil1" d="M10053.83 24992.37l0 139.91 77.96 0c20.21,0 33.64,-3.03 40.41,-9.08 9.08,-8.01 14.06,-22.07 15.13,-42.18l9.61 0 0 123.34 -9.61 0c-2.41,-17.26 -4.9,-28.39 -7.3,-33.28 -3.12,-6.05 -8.28,-10.86 -15.4,-14.33 -7.12,-3.47 -18.06,-5.25 -32.84,-5.25l-77.96 0 0 116.76c0,15.67 0.71,25.19 2.05,28.57 1.42,3.38 3.83,6.14 7.3,8.1 3.47,2.05 10.14,3.03 19.84,3.03l59.9 0c19.93,0 34.44,-1.43 43.52,-4.19 8.99,-2.76 17.71,-8.27 25.98,-16.46 10.77,-10.77 21.81,-27.06 33.11,-48.77l10.68 0 -30.53 88.64 -272.77 0 0 -9.61 12.55 0c8.36,0 16.28,-2.05 23.76,-6.05 5.61,-2.76 9.43,-6.95 11.39,-12.55 2.05,-5.61 3.03,-17 3.03,-34.27l0 -230.14c0,-22.43 -2.23,-36.22 -6.77,-41.38 -6.31,-6.95 -16.73,-10.42 -31.41,-10.42l-12.55 0 0 -9.61 272.86 0 3.74 77.96 -10.14 0c-3.65,-18.78 -7.66,-31.68 -12.11,-38.71 -4.45,-7.03 -11.03,-12.37 -19.67,-16.11 -6.94,-2.58 -19.22,-3.92 -36.75,-3.92l-97.01 0z"/>
   <polygon id="5" class="fil1" points="10423.79,25187.28 10558.89,25187.28 10558.89,25226.79 10423.79,25226.79 "/>
   <path id="6" class="fil1" d="M11034.68 24965.14l8.01 120.15 -8.01 0c-10.77,-35.96 -26.08,-61.94 -46.02,-77.7 -19.93,-15.84 -43.78,-23.76 -71.73,-23.76 -23.31,0 -44.49,5.96 -63.36,17.89 -18.87,11.92 -33.73,30.88 -44.59,57.05 -10.77,26.07 -16.2,58.56 -16.2,97.36 0,32.04 5.08,59.8 15.31,83.3 10.24,23.49 25.63,41.47 46.1,54.02 20.56,12.55 43.97,18.78 70.22,18.78 22.87,0 43.07,-4.9 60.52,-14.69 17.53,-9.79 36.75,-29.28 57.67,-58.47l8.1 5.34c-17.71,31.42 -38.36,54.38 -61.95,68.98 -23.58,14.5 -51.61,21.8 -84.01,21.8 -58.47,0 -103.77,-21.72 -135.81,-65.23 -23.94,-32.4 -35.95,-70.49 -35.95,-114.28 0,-35.33 7.92,-67.81 23.67,-97.36 15.75,-29.63 37.47,-52.51 65.06,-68.79 27.67,-16.29 57.84,-24.39 90.6,-24.39 25.45,0 50.55,6.23 75.38,18.78 7.2,3.83 12.46,5.78 15.57,5.78 4.63,0 8.72,-1.69 12.19,-4.98 4.54,-4.72 7.75,-11.21 9.61,-19.58l9.62 0z"/>
   <path id="7" class="fil1" d="M11564.03 25327.18l-94.78 0 -120.24 -165.53c-8.63,0.35 -15.66,0.53 -21.09,0.53 -2.22,0 -4.63,-0.09 -7.12,-0.18 -2.58,-0.09 -5.16,-0.18 -7.92,-0.35l0 103.05c0,22.25 2.4,36.05 7.3,41.39 6.58,7.65 16.46,11.48 29.63,11.48l13.8 0 0 9.61 -151.65 0 0 -9.61 13.26 0c14.95,0 25.63,-4.9 32.04,-14.6 3.65,-5.34 5.43,-18.15 5.43,-38.27l0 -229.07c0,-22.25 -2.41,-36.05 -7.3,-41.39 -6.77,-7.65 -16.82,-11.48 -30.17,-11.48l-13.26 0 0 -9.61 128.86 0c37.65,0 65.33,2.76 83.13,8.19 17.89,5.52 33.02,15.66 45.39,30.35 12.46,14.68 18.69,32.21 18.69,52.59 0,21.81 -7.12,40.68 -21.27,56.69 -14.24,16.02 -36.14,27.33 -65.95,34l73.24 101.37c16.73,23.32 31.06,38.89 43.08,46.54 11.92,7.75 27.59,12.55 46.9,14.69l0 9.61zm-251.15 -182.09c3.29,0 6.14,0 8.54,0.09 2.41,0.09 4.36,0.18 5.88,0.18 33.37,0 58.56,-7.3 75.47,-21.89 16.99,-14.69 25.45,-33.29 25.45,-55.89 0,-22.07 -6.85,-40.05 -20.47,-53.94 -13.71,-13.79 -31.86,-20.73 -54.38,-20.73 -9.96,0 -23.49,1.6 -40.49,4.8l0 147.38z"/>
   <path id="8" class="fil1" d="M11937.19 25209.17l-137.14 0 -23.68 55.45c-5.87,13.7 -8.89,24.02 -8.89,30.79 0,5.34 2.58,10.14 7.74,14.24 5.07,4 16.2,6.67 33.19,7.92l0 9.61 -111.6 0 0 -9.61c14.78,-2.58 24.3,-5.96 28.66,-10.15 8.9,-8.36 18.69,-25.36 29.46,-50.9l124.5 -291.38 8.81 0 123.09 294.49c9.87,23.67 18.86,38.98 26.96,46.1 8.1,7.03 19.31,10.95 33.82,11.84l0 9.61 -139.55 0 0 -9.61c14.07,-0.71 23.59,-3.03 28.57,-7.03 4.99,-4.01 7.39,-8.9 7.39,-14.69 0,-7.65 -3.47,-19.75 -10.41,-36.31l-20.92 -50.37zm-8.01 -19.22l-59.63 -142.84 -61.23 142.84 120.86 0z"/>
   <path id="9" class="fil1" d="M12321.13 24992.37l0 138.84 64.07 0c14.87,0 25.81,-3.2 32.67,-9.61 6.94,-6.5 11.48,-19.4 13.79,-38.98l9.61 0 0 120.14 -9.61 0c-0.18,-13.7 -1.96,-23.85 -5.34,-30.26 -3.47,-6.49 -8.19,-11.3 -14.24,-14.5 -6.05,-3.3 -14.95,-4.9 -26.88,-4.9l-64.07 0 0 111.6c0,17.89 1.15,29.73 3.38,35.43 1.69,4.36 5.34,8.09 10.86,11.21 7.56,4.18 15.48,6.23 23.85,6.23l12.63 0 0 9.61 -151.65 0 0 -9.61 12.55 0c14.69,0 25.28,-4.27 31.95,-12.73 4.18,-5.6 6.23,-18.95 6.23,-40.14l0 -229.07c0,-17.89 -1.16,-29.73 -3.38,-35.42 -1.78,-4.36 -5.34,-8.1 -10.77,-11.22 -7.47,-4.18 -15.48,-6.23 -24.03,-6.23l-12.55 0 0 -9.61 262.72 0 3.74 77.96 -9.08 0c-4.54,-16.64 -9.79,-28.83 -15.75,-36.58 -6.05,-7.74 -13.44,-13.43 -22.16,-16.9 -8.81,-3.48 -22.34,-5.26 -40.76,-5.26l-77.78 0z"/>
   <path id="10" class="fil1" d="M12951.31 24973.15l3.74 83.21 -9.88 0c-1.95,-14.59 -4.54,-25.09 -7.83,-31.32 -5.43,-10.06 -12.55,-17.54 -21.54,-22.25 -8.98,-4.81 -20.73,-7.21 -35.33,-7.21l-49.84 0 0 270.19c0,21.81 2.32,35.42 7.04,40.85 6.58,7.3 16.73,10.95 30.43,10.95l12.2 0 0 9.61 -150.59 0 0 -9.61 12.73 0c15.13,0 25.81,-4.54 32.22,-13.62 3.82,-5.6 5.78,-18.33 5.78,-38.18l0 -270.19 -42.45 0c-16.55,0 -28.3,1.24 -35.24,3.65 -9.08,3.29 -16.73,9.61 -23.23,19.04 -6.41,9.35 -10.24,22.07 -11.48,38.09l-9.88 0 3.74 -83.21 289.41 0z"/>
   <path id="11" class="fil1" d="M13266.81 25317.57l0 9.61 -151.65 0 0 -9.61 12.55 0c14.68,0 25.27,-4.27 31.95,-12.73 4.18,-5.6 6.23,-18.95 6.23,-40.14l0 -229.07c0,-17.89 -1.16,-29.73 -3.38,-35.42 -1.78,-4.36 -5.34,-8.1 -10.77,-11.22 -7.66,-4.18 -15.67,-6.23 -24.03,-6.23l-12.55 0 0 -9.61 151.65 0 0 9.61 -12.73 0c-14.41,0 -24.92,4.27 -31.5,12.73 -4.36,5.61 -6.5,18.96 -6.5,40.14l0 229.07c0,17.89 1.16,29.73 3.38,35.43 1.69,4.36 5.34,8.09 10.95,11.21 7.48,4.18 15.31,6.23 23.67,6.23l12.73 0z"/>
   <path id="12" class="fil1" d="M13406.01 24973.15l95.14 0 216.88 265.83 0 -204.42c0,-21.81 -2.49,-35.42 -7.38,-40.85 -6.5,-7.3 -16.82,-10.95 -30.89,-10.95l-12.46 0 0 -9.61 124.42 0 0 9.61 -12.64 0c-15.21,0 -25.89,4.54 -32.3,13.62 -3.83,5.61 -5.79,18.33 -5.79,38.18l0 298.32 -9.43 0 -232.99 -285.15 0 218.04c0,21.81 2.4,35.42 7.12,40.85 6.67,7.3 16.99,10.95 30.97,10.95l12.63 0 0 9.61 -124.41 0 0 -9.61 12.46 0c15.3,0 26.07,-4.54 32.48,-13.62 3.83,-5.6 5.79,-18.33 5.79,-38.18l0 -246.16c-10.24,-12.02 -18.07,-19.94 -23.32,-23.76 -5.34,-3.83 -13.08,-7.39 -23.32,-10.77 -5.07,-1.52 -12.73,-2.32 -22.96,-2.32l0 -9.61z"/>
   <path id="13" class="fil1" d="M14259.58 24965.14l9.08 111.6 -9.61 0c-9.17,-27.67 -21.1,-48.5 -35.6,-62.56 -21.01,-20.2 -47.97,-30.35 -80.9,-30.35 -44.86,0 -79.03,17.8 -102.44,53.49 -19.58,29.99 -29.36,65.86 -29.36,107.42 0,33.73 6.49,64.43 19.57,92.29 13,27.76 30.09,48.14 51.18,61.14 21.09,12.9 42.8,19.4 65.05,19.4 13,0 25.64,-1.69 37.83,-4.99 12.1,-3.29 23.85,-8.18 35.15,-14.68l0 -102.61c0,-17.8 -1.33,-29.46 -4,-34.89 -2.76,-5.52 -6.95,-9.7 -12.55,-12.55 -5.7,-2.94 -15.67,-4.36 -29.91,-4.36l0 -9.61 136.7 0 0 9.61 -6.49 0c-13.53,0 -22.79,4.54 -27.86,13.62 -3.47,6.41 -5.16,19.13 -5.16,38.18l0 108.48c-19.94,10.86 -39.69,18.78 -59.09,23.85 -19.49,5.08 -41.12,7.57 -64.88,7.57 -68.26,0 -120.06,-21.89 -155.48,-65.77 -26.61,-32.84 -39.87,-70.84 -39.87,-113.74 0,-31.15 7.48,-61.05 22.43,-89.53 17.71,-33.9 42,-60.07 72.88,-78.31 25.9,-15.13 56.43,-22.7 91.76,-22.7 12.82,0 24.47,1.07 34.98,3.12 10.5,2.13 25.36,6.67 44.67,13.79 9.7,3.65 16.29,5.52 19.58,5.52 3.29,0 6.05,-1.51 8.46,-4.54 2.31,-3.03 3.73,-8.99 4.27,-17.89l9.61 0z"/>
   <path id="14" class="fil2 str0" d="M8268.55 24965.14l0 122.28 -9.61 0c-3.12,-23.49 -8.73,-42.18 -16.83,-56.06 -8.09,-13.89 -19.66,-24.92 -34.7,-33.11 -14.96,-8.19 -30.44,-12.28 -46.46,-12.28 -18.16,0 -33.11,5.51 -44.94,16.55 -11.84,11.04 -17.8,23.67 -17.8,37.73 0,10.77 3.74,20.65 11.21,29.55 10.86,13 36.49,30.44 77.07,52.15 33.11,17.8 55.71,31.42 67.82,40.85 12.1,9.53 21.45,20.65 27.94,33.55 6.5,12.91 9.79,26.35 9.79,40.5 0,26.79 -10.41,49.84 -31.15,69.24 -20.82,19.4 -47.61,29.1 -80.27,29.1 -10.33,0 -19.94,-0.8 -29.01,-2.4 -5.43,-0.89 -16.56,-4.1 -33.56,-9.61 -16.91,-5.52 -27.67,-8.28 -32.21,-8.28 -4.36,0 -7.84,1.33 -10.33,3.91 -2.49,2.67 -4.36,8.1 -5.6,16.38l-9.62 0 0 -121.21 9.62 0c4.54,25.36 10.59,44.41 18.24,56.95 7.65,12.64 19.4,23.14 35.15,31.42 15.76,8.37 33.02,12.55 51.8,12.55 21.72,0 38.98,-5.79 51.53,-17.27 12.64,-11.57 18.96,-25.18 18.96,-40.85 0,-8.72 -2.41,-17.53 -7.12,-26.43 -4.81,-8.9 -12.2,-17.17 -22.25,-24.92 -6.77,-5.25 -25.37,-16.28 -55.72,-33.19 -30.34,-16.82 -51.97,-30.35 -64.78,-40.41 -12.82,-10.05 -22.61,-21.27 -29.2,-33.37 -6.67,-12.19 -9.96,-25.63 -9.96,-40.23 0,-25.36 9.79,-47.26 29.28,-65.59 19.49,-18.33 44.41,-27.5 74.49,-27.5 18.86,0 38.8,4.63 59.89,13.8 9.79,4.36 16.64,6.49 20.65,6.49 4.54,0 8.28,-1.33 11.12,-4 2.85,-2.76 5.17,-8.1 6.95,-16.29l9.61 0z"/>
   <path id="15" class="fil2 str0" d="M8763.1 24973.15l3.74 83.21 -9.88 0c-1.95,-14.59 -4.54,-25.09 -7.83,-31.32 -5.43,-10.06 -12.55,-17.54 -21.54,-22.25 -8.98,-4.81 -20.73,-7.21 -35.33,-7.21l-49.84 0 0 270.19c0,21.81 2.32,35.42 7.04,40.85 6.58,7.3 16.73,10.95 30.43,10.95l12.2 0 0 9.61 -150.59 0 0 -9.61 12.73 0c15.13,0 25.81,-4.54 32.22,-13.62 3.82,-5.6 5.78,-18.33 5.78,-38.18l0 -270.19 -42.45 0c-16.55,0 -28.3,1.24 -35.24,3.65 -9.08,3.29 -16.73,9.61 -23.23,19.04 -6.41,9.35 -10.24,22.07 -11.48,38.09l-9.88 0 3.74 -83.21 289.41 0z"/>
   <path id="16" class="fil2 str0" d="M9099.07 24965.14c45.83,0 85.62,17.44 119.17,52.33 33.64,34.89 50.46,78.41 50.46,130.65 0,53.75 -16.91,98.34 -50.82,133.85 -33.82,35.51 -74.84,53.22 -122.99,53.22 -48.59,0 -89.44,-17.35 -122.55,-51.97 -33.11,-34.62 -49.66,-79.39 -49.66,-134.39 0,-56.16 19.13,-101.99 57.31,-137.5 33.2,-30.79 72.89,-46.19 119.08,-46.19zm-4.98 18.69c-31.51,0 -56.87,11.75 -75.92,35.24 -23.76,29.28 -35.68,72.09 -35.68,128.51 0,57.76 12.28,102.26 36.93,133.41 18.95,23.67 43.87,35.51 74.93,35.51 33.2,0 60.52,-12.99 82.15,-38.89 21.62,-25.99 32.39,-66.84 32.39,-122.73 0,-60.6 -11.92,-105.81 -35.69,-135.54 -19.04,-23.67 -45.38,-35.51 -79.11,-35.51z"/>
   <path id="17" class="fil2 str0" d="M9415.99 24973.15l95.14 0 216.88 265.83 0 -204.42c0,-21.81 -2.49,-35.42 -7.38,-40.85 -6.5,-7.3 -16.82,-10.95 -30.89,-10.95l-12.46 0 0 -9.61 124.42 0 0 9.61 -12.64 0c-15.21,0 -25.89,4.54 -32.3,13.62 -3.83,5.61 -5.79,18.33 -5.79,38.18l0 298.32 -9.43 0 -232.99 -285.15 0 218.04c0,21.81 2.4,35.42 7.12,40.85 6.67,7.3 16.99,10.95 30.97,10.95l12.63 0 0 9.61 -124.41 0 0 -9.61 12.46 0c15.3,0 26.07,-4.54 32.48,-13.62 3.83,-5.6 5.79,-18.33 5.79,-38.18l0 -246.16c-10.24,-12.02 -18.07,-19.94 -23.32,-23.76 -5.34,-3.83 -13.08,-7.39 -23.32,-10.77 -5.07,-1.52 -12.73,-2.32 -22.96,-2.32l0 -9.61z"/>
   <path id="18" class="fil2 str0" d="M10053.83 24992.37l0 139.91 77.96 0c20.21,0 33.64,-3.03 40.41,-9.08 9.08,-8.01 14.06,-22.07 15.13,-42.18l9.61 0 0 123.34 -9.61 0c-2.41,-17.26 -4.9,-28.39 -7.3,-33.28 -3.12,-6.05 -8.28,-10.86 -15.4,-14.33 -7.12,-3.47 -18.06,-5.25 -32.84,-5.25l-77.96 0 0 116.76c0,15.67 0.71,25.19 2.05,28.57 1.42,3.38 3.83,6.14 7.3,8.1 3.47,2.05 10.14,3.03 19.84,3.03l59.9 0c19.93,0 34.44,-1.43 43.52,-4.19 8.99,-2.76 17.71,-8.27 25.98,-16.46 10.77,-10.77 21.81,-27.06 33.11,-48.77l10.68 0 -30.53 88.64 -272.77 0 0 -9.61 12.55 0c8.36,0 16.28,-2.05 23.76,-6.05 5.61,-2.76 9.43,-6.95 11.39,-12.55 2.05,-5.61 3.03,-17 3.03,-34.27l0 -230.14c0,-22.43 -2.23,-36.22 -6.77,-41.38 -6.31,-6.95 -16.73,-10.42 -31.41,-10.42l-12.55 0 0 -9.61 272.86 0 3.74 77.96 -10.14 0c-3.65,-18.78 -7.66,-31.68 -12.11,-38.71 -4.45,-7.03 -11.03,-12.37 -19.67,-16.11 -6.94,-2.58 -19.22,-3.92 -36.75,-3.92l-97.01 0z"/>
   <polygon id="19" class="fil2 str0" points="10423.79,25187.28 10558.89,25187.28 10558.89,25226.79 10423.79,25226.79 "/>
   <path id="20" class="fil2 str0" d="M11034.68 24965.14l8.01 120.15 -8.01 0c-10.77,-35.96 -26.08,-61.94 -46.02,-77.7 -19.93,-15.84 -43.78,-23.76 -71.73,-23.76 -23.31,0 -44.49,5.96 -63.36,17.89 -18.87,11.92 -33.73,30.88 -44.59,57.05 -10.77,26.07 -16.2,58.56 -16.2,97.36 0,32.04 5.08,59.8 15.31,83.3 10.24,23.49 25.63,41.47 46.1,54.02 20.56,12.55 43.97,18.78 70.22,18.78 22.87,0 43.07,-4.9 60.52,-14.69 17.53,-9.79 36.75,-29.28 57.67,-58.47l8.1 5.34c-17.71,31.42 -38.36,54.38 -61.95,68.98 -23.58,14.5 -51.61,21.8 -84.01,21.8 -58.47,0 -103.77,-21.72 -135.81,-65.23 -23.94,-32.4 -35.95,-70.49 -35.95,-114.28 0,-35.33 7.92,-67.81 23.67,-97.36 15.75,-29.63 37.47,-52.51 65.06,-68.79 27.67,-16.29 57.84,-24.39 90.6,-24.39 25.45,0 50.55,6.23 75.38,18.78 7.2,3.83 12.46,5.78 15.57,5.78 4.63,0 8.72,-1.69 12.19,-4.98 4.54,-4.72 7.75,-11.21 9.61,-19.58l9.62 0z"/>
   <path id="21" class="fil2 str0" d="M11564.03 25327.18l-94.78 0 -120.24 -165.53c-8.63,0.35 -15.66,0.53 -21.09,0.53 -2.22,0 -4.63,-0.09 -7.12,-0.18 -2.58,-0.09 -5.16,-0.18 -7.92,-0.35l0 103.05c0,22.25 2.4,36.05 7.3,41.39 6.58,7.65 16.46,11.48 29.63,11.48l13.8 0 0 9.61 -151.65 0 0 -9.61 13.26 0c14.95,0 25.63,-4.9 32.04,-14.6 3.65,-5.34 5.43,-18.15 5.43,-38.27l0 -229.07c0,-22.25 -2.41,-36.05 -7.3,-41.39 -6.77,-7.65 -16.82,-11.48 -30.17,-11.48l-13.26 0 0 -9.61 128.86 0c37.65,0 65.33,2.76 83.13,8.19 17.89,5.52 33.02,15.66 45.39,30.35 12.46,14.68 18.69,32.21 18.69,52.59 0,21.81 -7.12,40.68 -21.27,56.69 -14.24,16.02 -36.14,27.33 -65.95,34l73.24 101.37c16.73,23.32 31.06,38.89 43.08,46.54 11.92,7.75 27.59,12.55 46.9,14.69l0 9.61zm-251.15 -182.09c3.29,0 6.14,0 8.54,0.09 2.41,0.09 4.36,0.18 5.88,0.18 33.37,0 58.56,-7.3 75.47,-21.89 16.99,-14.69 25.45,-33.29 25.45,-55.89 0,-22.07 -6.85,-40.05 -20.47,-53.94 -13.71,-13.79 -31.86,-20.73 -54.38,-20.73 -9.96,0 -23.49,1.6 -40.49,4.8l0 147.38z"/>
   <path id="22" class="fil2 str0" d="M11937.19 25209.17l-137.14 0 -23.68 55.45c-5.87,13.7 -8.89,24.02 -8.89,30.79 0,5.34 2.58,10.14 7.74,14.24 5.07,4 16.2,6.67 33.19,7.92l0 9.61 -111.6 0 0 -9.61c14.78,-2.58 24.3,-5.96 28.66,-10.15 8.9,-8.36 18.69,-25.36 29.46,-50.9l124.5 -291.38 8.81 0 123.09 294.49c9.87,23.67 18.86,38.98 26.96,46.1 8.1,7.03 19.31,10.95 33.82,11.84l0 9.61 -139.55 0 0 -9.61c14.07,-0.71 23.59,-3.03 28.57,-7.03 4.99,-4.01 7.39,-8.9 7.39,-14.69 0,-7.65 -3.47,-19.75 -10.41,-36.31l-20.92 -50.37zm-8.01 -19.22l-59.63 -142.84 -61.23 142.84 120.86 0z"/>
   <path id="23" class="fil2 str0" d="M12321.13 24992.37l0 138.84 64.07 0c14.87,0 25.81,-3.2 32.67,-9.61 6.94,-6.5 11.48,-19.4 13.79,-38.98l9.61 0 0 120.14 -9.61 0c-0.18,-13.7 -1.96,-23.85 -5.34,-30.26 -3.47,-6.49 -8.19,-11.3 -14.24,-14.5 -6.05,-3.3 -14.95,-4.9 -26.88,-4.9l-64.07 0 0 111.6c0,17.89 1.15,29.73 3.38,35.43 1.69,4.36 5.34,8.09 10.86,11.21 7.56,4.18 15.48,6.23 23.85,6.23l12.63 0 0 9.61 -151.65 0 0 -9.61 12.55 0c14.69,0 25.28,-4.27 31.95,-12.73 4.18,-5.6 6.23,-18.95 6.23,-40.14l0 -229.07c0,-17.89 -1.16,-29.73 -3.38,-35.42 -1.78,-4.36 -5.34,-8.1 -10.77,-11.22 -7.47,-4.18 -15.48,-6.23 -24.03,-6.23l-12.55 0 0 -9.61 262.72 0 3.74 77.96 -9.08 0c-4.54,-16.64 -9.79,-28.83 -15.75,-36.58 -6.05,-7.74 -13.44,-13.43 -22.16,-16.9 -8.81,-3.48 -22.34,-5.26 -40.76,-5.26l-77.78 0z"/>
   <path id="24" class="fil2 str0" d="M12951.31 24973.15l3.74 83.21 -9.88 0c-1.95,-14.59 -4.54,-25.09 -7.83,-31.32 -5.43,-10.06 -12.55,-17.54 -21.54,-22.25 -8.98,-4.81 -20.73,-7.21 -35.33,-7.21l-49.84 0 0 270.19c0,21.81 2.32,35.42 7.04,40.85 6.58,7.3 16.73,10.95 30.43,10.95l12.2 0 0 9.61 -150.59 0 0 -9.61 12.73 0c15.13,0 25.81,-4.54 32.22,-13.62 3.82,-5.6 5.78,-18.33 5.78,-38.18l0 -270.19 -42.45 0c-16.55,0 -28.3,1.24 -35.24,3.65 -9.08,3.29 -16.73,9.61 -23.23,19.04 -6.41,9.35 -10.24,22.07 -11.48,38.09l-9.88 0 3.74 -83.21 289.41 0z"/>
   <path id="25" class="fil2 str0" d="M13266.81 25317.57l0 9.61 -151.65 0 0 -9.61 12.55 0c14.68,0 25.27,-4.27 31.95,-12.73 4.18,-5.6 6.23,-18.95 6.23,-40.14l0 -229.07c0,-17.89 -1.16,-29.73 -3.38,-35.42 -1.78,-4.36 -5.34,-8.1 -10.77,-11.22 -7.66,-4.18 -15.67,-6.23 -24.03,-6.23l-12.55 0 0 -9.61 151.65 0 0 9.61 -12.73 0c-14.41,0 -24.92,4.27 -31.5,12.73 -4.36,5.61 -6.5,18.96 -6.5,40.14l0 229.07c0,17.89 1.16,29.73 3.38,35.43 1.69,4.36 5.34,8.09 10.95,11.21 7.48,4.18 15.31,6.23 23.67,6.23l12.73 0z"/>
   <path id="26" class="fil2 str0" d="M13406.01 24973.15l95.14 0 216.88 265.83 0 -204.42c0,-21.81 -2.49,-35.42 -7.38,-40.85 -6.5,-7.3 -16.82,-10.95 -30.89,-10.95l-12.46 0 0 -9.61 124.42 0 0 9.61 -12.64 0c-15.21,0 -25.89,4.54 -32.3,13.62 -3.83,5.61 -5.79,18.33 -5.79,38.18l0 298.32 -9.43 0 -232.99 -285.15 0 218.04c0,21.81 2.4,35.42 7.12,40.85 6.67,7.3 16.99,10.95 30.97,10.95l12.63 0 0 9.61 -124.41 0 0 -9.61 12.46 0c15.3,0 26.07,-4.54 32.48,-13.62 3.83,-5.6 5.79,-18.33 5.79,-38.18l0 -246.16c-10.24,-12.02 -18.07,-19.94 -23.32,-23.76 -5.34,-3.83 -13.08,-7.39 -23.32,-10.77 -5.07,-1.52 -12.73,-2.32 -22.96,-2.32l0 -9.61z"/>
   <path id="27" class="fil2 str0" d="M14259.58 24965.14l9.08 111.6 -9.61 0c-9.17,-27.67 -21.1,-48.5 -35.6,-62.56 -21.01,-20.2 -47.97,-30.35 -80.9,-30.35 -44.86,0 -79.03,17.8 -102.44,53.49 -19.58,29.99 -29.36,65.86 -29.36,107.42 0,33.73 6.49,64.43 19.57,92.29 13,27.76 30.09,48.14 51.18,61.14 21.09,12.9 42.8,19.4 65.05,19.4 13,0 25.64,-1.69 37.83,-4.99 12.1,-3.29 23.85,-8.18 35.15,-14.68l0 -102.61c0,-17.8 -1.33,-29.46 -4,-34.89 -2.76,-5.52 -6.95,-9.7 -12.55,-12.55 -5.7,-2.94 -15.67,-4.36 -29.91,-4.36l0 -9.61 136.7 0 0 9.61 -6.49 0c-13.53,0 -22.79,4.54 -27.86,13.62 -3.47,6.41 -5.16,19.13 -5.16,38.18l0 108.48c-19.94,10.86 -39.69,18.78 -59.09,23.85 -19.49,5.08 -41.12,7.57 -64.88,7.57 -68.26,0 -120.06,-21.89 -155.48,-65.77 -26.61,-32.84 -39.87,-70.84 -39.87,-113.74 0,-31.15 7.48,-61.05 22.43,-89.53 17.71,-33.9 42,-60.07 72.88,-78.31 25.9,-15.13 56.43,-22.7 91.76,-22.7 12.82,0 24.47,1.07 34.98,3.12 10.5,2.13 25.36,6.67 44.67,13.79 9.7,3.65 16.29,5.52 19.58,5.52 3.29,0 6.05,-1.51 8.46,-4.54 2.31,-3.03 3.73,-8.99 4.27,-17.89l9.61 0z"/>
   <path class="fil1" d="M12985.76 22404.01l352.98 0 804.68 986.28 0 -758.45c0,-80.9 -9.25,-131.42 -27.41,-151.56 -24.1,-27.07 -62.41,-40.61 -114.58,-40.61l-46.22 0 0 -35.66 461.61 0 0 35.66 -46.89 0c-56.46,0 -96.09,16.84 -119.86,50.52 -14.2,20.8 -21.46,68.02 -21.46,141.65l0 1106.8 -35 0 -864.45 -1057.93 0 808.97c0,80.89 8.92,131.41 26.42,151.56 24.76,27.07 63.07,40.61 114.91,40.61l46.88 0 0 35.66 -461.6 0 0 -35.66 46.22 0c56.8,0 96.75,-16.84 120.52,-50.52 14.2,-20.8 21.46,-68.02 21.46,-141.65l0 -913.31c-37.97,-44.58 -67.02,-73.97 -86.51,-88.16 -19.81,-14.2 -48.53,-27.41 -86.51,-39.96 -18.82,-5.61 -47.21,-8.58 -85.19,-8.58l0 -35.66z"/>
   <path id="1" class="fil1" d="M15166.68 22374.29c170.05,0 317.64,64.72 442.13,194.15 124.81,129.44 187.22,290.9 187.22,484.72 0,199.44 -62.74,364.87 -188.54,496.61 -125.48,131.75 -277.7,197.46 -456.33,197.46 -180.28,0 -331.84,-64.39 -454.67,-192.83 -122.83,-128.45 -184.25,-294.54 -184.25,-498.59 0,-208.36 70.99,-378.4 212.64,-510.15 123.17,-114.25 270.43,-171.37 441.8,-171.37zm-18.49 69.34c-116.89,0 -210.99,43.59 -281.65,130.76 -88.17,108.63 -132.41,267.45 -132.41,476.79 0,214.3 45.57,379.39 137.03,494.96 70.33,87.83 162.78,131.75 278.02,131.75 123.16,0 224.53,-48.21 304.77,-144.3 80.23,-96.41 120.19,-247.97 120.19,-455.33 0,-224.86 -44.25,-392.6 -132.41,-502.88 -70.66,-87.83 -168.4,-131.75 -293.54,-131.75z"/>
   <path id="2" class="fil1" d="M17279.25 22404.01l0 35.66c-46.23,8.58 -81.56,23.44 -105.34,44.9 -34,31.7 -64.38,80.57 -90.8,146.28l-455.99 1116.38 -35.66 0 -491 -1131.24c-25.09,-58.44 -42.92,-94.1 -53.16,-106.98 -16.18,-20.14 -35.99,-35.99 -59.76,-47.55 -23.45,-11.23 -55.15,-18.49 -95.1,-21.79l0 -35.66 535.57 0 0 35.66c-60.75,5.94 -100.05,16.18 -118.21,31.04 -17.83,14.85 -27.07,33.68 -27.07,57.12 0,32.03 14.86,82.55 44.57,150.9l333.83 769.01 310.05 -759.44c30.37,-74.95 45.56,-126.79 45.56,-155.85 0,-18.49 -9.57,-36.65 -28.06,-53.49 -18.82,-17.17 -50.52,-29.39 -94.77,-36.32 -3.3,-0.66 -8.91,-1.65 -16.51,-2.97l0 -35.66 401.85 0z"/>
   <path class="fil3" d="M11655.73 22926.71l-356.92 -657.34 0.56 656.36 356.36 0.98zm-482 109.42l26.57 0 -2.03 603.7 101.71 2.45 -0.51 -606.15 415.46 -0.38 331.34 610.22 137.19 0 -979.27 -1769.91 -3.52 1049.67 -26.94 0 -26.93 0 -3.52 -1049.67 -979.28 1769.91 137.2 0 331.34 -610.22 415.46 0.38 -0.52 606.15 101.72 -2.45 -2.03 -603.7 26.56 0zm-481.99 -109.42l356.92 -657.34 -0.56 656.36 -356.36 0.98z"/>
   <circle class="fil4 str1" cx="11172.82" cy="23009.38" r="1522.94"/>
   <path class="fil3" d="M11173.73 21501.41l1276.04 2305.11 -1276.04 0 -1276.04 0 1276.04 -2305.11zm0 200.35l1105.73 1997.48 -1105.73 0 -1105.74 0 1105.74 -1997.48z"/>
   <path class="fil5" d="M11655.72 22926.71l-356.93 -657.34 0.57 656.36 356.36 0.98zm-482 109.42l26.56 0 -2.02 603.7 101.71 2.45 -0.52 -606.15 415.47 -0.38 331.33 610.22 137.2 0 -979.27 -1769.91 -3.53 1049.67 -26.93 0 -26.93 0 -3.53 -1049.67 -979.27 1769.91 137.2 0 331.33 -610.22 415.47 0.38 -0.52 606.15 101.72 -2.45 -2.03 -603.7 26.56 0zm-481.99 -109.42l356.92 -657.34 -0.57 656.36 -356.35 0.98z"/>
   <circle class="fil4 str2" cx="11172.81" cy="23009.38" r="1522.94"/>
   <path class="fil5" d="M11173.72 21501.41l1276.04 2305.11 -1276.04 0 -1276.04 0 1276.04 -2305.11zm0 200.35l1105.73 1997.48 -1105.73 0 -1105.74 0 1105.74 -1997.48z"/>
   <path class="fil1" d="M6154.67 23267.45l-523.03 0 -90.29 211.45c-22.4,52.27 -33.94,91.65 -33.94,117.44 0,20.37 9.85,38.69 29.53,54.31 19.35,15.27 61.77,25.45 126.6,30.2l0 36.66 -425.62 0 0 -36.66c56.34,-9.84 92.66,-22.74 109.29,-38.69 33.94,-31.9 71.28,-96.73 112.35,-194.14l474.83 -1111.23 33.6 0 469.41 1123.11c37.67,90.28 71.95,148.66 102.84,175.81 30.88,26.82 73.65,41.75 128.97,45.14l0 36.66 -532.19 0 0 -36.66c53.63,-2.71 89.94,-11.54 108.95,-26.81 19.01,-15.27 28.17,-33.94 28.17,-56 0,-29.19 -13.24,-75.35 -39.71,-138.48l-79.76 -192.11zm-30.55 -73.31l-227.4 -544.75 -233.52 544.75 460.92 0z"/>
   <path id="1" class="fil1" d="M6665.14 22367.34l362.83 0 827.14 1013.81 0 -779.62c0,-83.16 -9.5,-135.09 -28.17,-155.79 -24.78,-27.83 -64.15,-41.75 -117.78,-41.75l-47.52 0 0 -36.65 474.5 0 0 36.65 -48.2 0c-58.04,0 -98.76,17.31 -123.2,51.93 -14.6,21.39 -22.06,69.92 -22.06,145.61l0 1137.7 -35.98 0 -888.58 -1087.47 0 831.56c0,83.15 9.17,135.08 27.16,155.79 25.45,27.83 64.82,41.74 118.11,41.74l48.2 0 0 36.66 -474.5 0 0 -36.66 47.52 0c58.38,0 99.45,-17.31 123.88,-51.93 14.6,-21.38 22.07,-69.91 22.07,-145.6l0 -938.81c-39.04,-45.82 -68.9,-76.03 -88.93,-90.62 -20.36,-14.6 -49.89,-28.17 -88.93,-41.07 -19.34,-5.77 -48.53,-8.83 -87.56,-8.83l0 -36.65z"/>
   <path id="2" class="fil1" d="M9342.06 22367.34l14.26 317.35 -37.68 0c-7.47,-55.67 -17.31,-95.72 -29.87,-119.48 -20.7,-38.35 -47.85,-66.86 -82.13,-84.85 -34.28,-18.33 -79.09,-27.49 -134.75,-27.49l-190.07 0 0 1030.45c0,83.15 8.83,135.08 26.81,155.79 25.12,27.83 63.81,41.74 116.08,41.74l46.5 0 0 36.66 -574.28 0 0 -36.66 48.54 0c57.69,0 98.42,-17.31 122.86,-51.93 14.6,-21.38 22.06,-69.91 22.06,-145.6l0 -1030.45 -161.9 0c-63.13,0 -107.93,4.75 -134.4,13.91 -34.62,12.56 -63.81,36.66 -88.59,72.64 -24.44,35.64 -39.03,84.17 -43.78,145.27l-37.68 0 14.26 -317.35 1103.76 0z"/>
  </g>
 </g>
</svg>
