<?xml version="1.0" encoding="utf-8"?>
<svg version="1.1" id="Layer_1" xmlns="http://www.w3.org/2000/svg" xmlns:xlink="http://www.w3.org/1999/xlink" x="0px" y="0px"
     width="200px" height="60px" viewBox="0 0 3061.417 1003.465" enable-background="new 0 0 3061.417 1003.465"
     xml:space="preserve" fill="#660f28">
<g>
	<path d="M1918.03,409.965c0-112.974-45.793-215.256-119.829-289.293s-176.32-119.83-289.293-119.83
		c-112.974,0-215.258,45.793-289.293,119.83c-74.036,74.036-119.829,176.319-119.829,289.293
		c0,112.974,45.793,215.257,119.829,289.293c74.036,74.037,176.319,119.83,289.293,119.83c112.973,0,215.256-45.793,289.293-119.83
		C1872.238,625.222,1918.03,522.939,1918.03,409.965z M1509.142,77.588l281.059,507.73h-281.057h-0.003h-281.062L1509.142,77.588z
		 M1767.075,151.797c66.066,66.065,106.935,157.346,106.935,258.167c0,67.497-18.39,130.669-50.321,184.911L1519.367,45.128
		C1616.021,47.854,1703.309,88.029,1767.075,151.797z M1143.806,409.965c0-100.821,40.87-192.102,106.935-258.167
		c63.872-63.872,151.34-104.073,248.183-106.681l-304.56,550.17C1162.284,540.954,1143.806,477.63,1143.806,409.965z
		 M1509.141,612.588h0.003h303.481c-13.361,19.989-28.611,38.606-45.549,55.544c-66.065,66.066-157.346,106.935-258.167,106.935
		s-192.102-40.868-258.168-106.935c-16.938-16.938-32.187-35.555-45.549-55.544H1509.141z"/>
    <path d="M775.45,965.203c-0.877-1.737-1.948-3.367-3.198-4.863c-1.257-1.503-2.697-2.89-4.312-4.159
		c-1.596-1.242-3.855-2.744-6.761-4.497c-2.846-1.713-6.415-3.727-10.69-6.021c-5.084-2.718-9.24-5.177-12.453-7.358
		c-3.169-2.145-5.405-4.002-6.706-5.549c-1.667-1.98-2.504-4.184-2.504-6.574c0-1.573,0.335-3.067,0.99-4.457
		c0.675-1.429,1.698-2.788,3.067-4.062c2.723-2.538,6.195-3.812,10.426-3.812c1.917,0,3.8,0.246,5.632,0.727
		c1.852,0.488,3.68,1.23,5.479,2.213c1.793,0.975,3.386,2.128,4.763,3.437c1.359,1.297,2.528,2.779,3.492,4.428
		c0.966,1.661,1.793,3.63,2.471,5.896c0.696,2.318,1.238,4.93,1.62,7.81l0.169,1.28h5.192v-32.552v-1.467h-5.092l-0.251,1.158
		c-0.206,0.952-0.441,1.726-0.696,2.325c-0.215,0.501-0.438,0.863-0.655,1.08c-0.206,0.184-0.456,0.334-0.728,0.43
		c-0.302,0.109-0.667,0.165-1.082,0.165c-0.361,0-0.916-0.117-1.649-0.346c-0.832-0.258-1.838-0.655-3.02-1.18
		c-2.764-1.2-5.464-2.11-8.076-2.711c-2.656-0.614-5.232-0.921-7.727-0.921c-3.997,0-7.668,0.615-10.99,1.839
		c-3.334,1.23-6.327,3.087-8.947,5.552c-2.615,2.46-4.594,5.18-5.914,8.138c-1.324,2.972-1.993,6.177-1.993,9.599
		c0,1.963,0.229,3.871,0.682,5.705c0.448,1.823,1.132,3.569,2.033,5.221c0.883,1.632,1.993,3.209,3.305,4.704
		c1.304,1.494,2.812,2.912,4.493,4.232c1.667,1.309,3.915,2.849,6.723,4.599c2.732,1.705,6.054,3.644,9.943,5.799
		c3.897,2.172,7.005,3.947,9.294,5.309c2.289,1.362,3.853,2.368,4.684,3.011c1.212,0.934,2.26,1.893,3.128,2.869
		c0.869,0.976,1.585,1.982,2.134,2.998c0.539,1.027,0.957,2.05,1.229,3.063c0.265,0.983,0.403,1.978,0.403,2.96
		c0,1.779-0.358,3.439-1.069,4.972c-0.72,1.555-1.814,3.005-3.269,4.338c-1.435,1.312-3.161,2.311-5.152,2.976
		c-2.028,0.678-4.352,1.021-6.958,1.021c-2.287,0-4.464-0.25-6.531-0.751c-2.074-0.502-4.064-1.257-5.957-2.266
		c-1.896-0.997-3.554-2.124-4.948-3.372c-1.371-1.224-2.513-2.588-3.419-4.083c-0.913-1.496-1.74-3.401-2.471-5.693
		c-0.746-2.335-1.406-5.098-1.972-8.273l-0.214-1.214h-5.142v33.746h5.173l0.189-1.249c0.143-0.953,0.322-1.743,0.531-2.356
		c0.17-0.496,0.346-0.846,0.517-1.028c0.161-0.161,0.357-0.287,0.581-0.373c0.264-0.099,0.595-0.152,0.971-0.152
		c0.472,0,1.332,0.162,2.562,0.482c1.329,0.341,3.06,0.859,5.173,1.55c2.165,0.701,3.97,1.264,5.417,1.678
		c1.441,0.415,2.545,0.687,3.31,0.816c1.198,0.208,2.439,0.37,3.702,0.475c1.273,0.106,2.582,0.159,3.93,0.159
		c4.316,0,8.264-0.648,11.832-1.939c3.587-1.303,6.78-3.258,9.571-5.861c2.778-2.6,4.874-5.459,6.27-8.558
		c1.406-3.129,2.116-6.497,2.116-10.107c0-1.899-0.226-3.771-0.672-5.608C776.988,968.733,776.322,966.946,775.45,965.203z"/>
    <path d="M1474.616,975.867c-2.62,3.654-5.123,6.694-7.501,9.109c-2.345,2.374-4.576,4.155-6.683,5.329
		c-4.208,2.363-9.109,3.546-14.667,3.546c-3.214,0-6.251-0.382-9.089-1.139c-2.838-0.758-5.509-1.898-7.997-3.419
		c-2.474-1.514-4.646-3.363-6.495-5.532c-1.855-2.172-3.41-4.69-4.649-7.533c-1.256-2.883-2.198-6.04-2.823-9.453
		c-0.625-3.419-0.939-7.135-0.939-11.137c0-4.861,0.338-9.312,1.007-13.344c0.667-4.012,1.67-7.633,2.997-10.844
		c1.326-3.199,2.899-5.963,4.701-8.271c1.784-2.28,3.806-4.132,6.06-5.554c2.274-1.438,4.696-2.521,7.236-3.237
		c2.545-0.72,5.248-1.08,8.089-1.08c3.393,0,6.534,0.482,9.423,1.438c2.869,0.95,5.506,2.38,7.902,4.281
		c2.38,1.879,4.502,4.4,6.356,7.527c1.891,3.191,3.508,7.032,4.842,11.496l0.315,1.048h4.692l-2.139-32.105l-0.091-1.371h-4.982
		l-0.259,1.153c-0.205,0.933-0.496,1.769-0.853,2.509c-0.335,0.675-0.734,1.262-1.189,1.74c-0.299,0.276-0.624,0.493-0.968,0.638
		c-0.329,0.135-0.704,0.205-1.104,0.205c-0.226,0-0.59-0.094-1.074-0.273c-0.602-0.222-1.342-0.566-2.225-1.036
		c-3.252-1.64-6.536-2.876-9.834-3.698c-3.316-0.825-6.653-1.238-9.99-1.238c-4.285,0-8.411,0.537-12.378,1.599
		c-3.957,1.065-7.762,2.67-11.396,4.804c-3.61,2.131-6.852,4.711-9.711,7.729c-2.858,3.02-5.32,6.466-7.369,10.336
		c-2.06,3.865-3.615,7.926-4.645,12.17c-1.033,4.249-1.553,8.678-1.553,13.262c0,5.706,0.787,11.058,2.354,16.036
		c1.57,4.991,3.932,9.622,7.075,13.878c4.212,5.719,9.311,10.022,15.284,12.889c5.958,2.861,12.772,4.296,20.416,4.296
		c4.22,0,8.185-0.482,11.876-1.44c3.719-0.963,7.14-2.407,10.249-4.327c3.116-1.927,6.042-4.407,8.751-7.427
		c2.697-3.002,5.202-6.547,7.504-10.632l0.669-1.185l-4.375-2.89L1474.616,975.867z"/>
    <polygon points="1317.044,962.088 1317.044,975.069 1354.32,975.069 1354.32,962.088 1318.512,962.088 	"/>
    <path d="M1271.9,975.911c-1.42,2.732-2.814,5.11-4.173,7.108c-1.336,1.969-2.668,3.618-3.98,4.933
		c-0.965,0.957-1.966,1.766-2.976,2.404c-0.991,0.627-2.007,1.103-3.02,1.414c-1.065,0.323-2.476,0.575-4.226,0.739
		c-1.758,0.168-3.9,0.256-6.409,0.256h-15.225c-1.161,0-2.138-0.059-2.905-0.173c-0.648-0.097-1.121-0.229-1.393-0.39l-0.03-0.018
		c-0.299-0.168-0.548-0.368-0.745-0.585c-0.188-0.208-0.346-0.457-0.461-0.73c-0.118-0.297-0.218-0.981-0.29-2.049
		c-0.083-1.151-0.126-2.715-0.126-4.678v-28.215h18.348c1.815,0,3.375,0.106,4.663,0.312c1.239,0.197,2.263,0.493,3.044,0.874
		c0.774,0.376,1.443,0.828,1.984,1.33c0.528,0.49,0.957,1.05,1.276,1.667c0.243,0.517,0.52,1.429,0.801,2.729
		c0.303,1.379,0.608,3.14,0.901,5.259l0.179,1.267h5.18v-34.288h-5.295l-0.075,1.395c-0.13,2.397-0.491,4.437-1.083,6.095
		c-0.555,1.556-1.315,2.762-2.278,3.613c-1.434,1.281-4.528,1.928-9.296,1.928h-18.348V915.48h23.189
		c2.187,0,4.026,0.083,5.506,0.238c1.435,0.152,2.55,0.378,3.331,0.66c0.936,0.411,1.769,0.918,2.486,1.499
		c0.699,0.569,1.297,1.248,1.785,2.008c0.492,0.78,0.976,1.934,1.452,3.452c0.496,1.596,0.974,3.565,1.422,5.884l0.232,1.191h5.324
		l-1.091-22.753h-72.225v5.376h4.656c1.719,0,3.164,0.197,4.332,0.59c1.083,0.358,1.946,0.89,2.571,1.576
		c0.385,0.454,0.696,1.409,0.931,2.864c0.27,1.652,0.405,3.882,0.405,6.671v58.503c0,2.195-0.059,3.978-0.186,5.338
		c-0.114,1.326-0.281,2.286-0.499,2.887c-0.181,0.525-0.454,0.986-0.798,1.365c-0.355,0.393-0.813,0.727-1.359,0.995l-0.05,0.024
		c-0.839,0.448-1.708,0.795-2.603,1.024c-0.866,0.221-1.787,0.334-2.744,0.334h-4.656v5.379h71.852l8.769-25.467h-5.658
		L1271.9,975.911z"/>
    <path d="M1013.119,919.377c-8.816-9.165-19.285-13.754-31.346-13.754c-6.045,0-11.684,1.017-16.901,3.038
		c-5.218,2.025-10.01,5.065-14.365,9.1c-5.006,4.654-8.772,10.001-11.279,16.02c-2.503,6.007-3.759,12.675-3.759,20.003
		c0,7.161,1.083,13.674,3.246,19.528c2.169,5.869,5.435,11.083,9.784,15.642c4.343,4.545,9.216,7.962,14.592,10.244
		c5.376,2.284,11.251,3.425,17.62,3.425c6.312,0,12.179-1.171,17.584-3.51c5.394-2.332,10.309-5.828,14.738-10.477
		c4.443-4.653,7.782-9.913,10.001-15.764c2.215-5.837,3.326-12.264,3.326-19.27c0-6.811-1.104-13.077-3.311-18.787
		C1020.847,929.103,1017.527,923.949,1013.119,919.377z M970.282,915.412c3.019-1.4,6.435-2.104,10.227-2.104
		c4.082,0,7.707,0.71,10.859,2.124c3.127,1.406,5.837,3.527,8.114,6.351c2.885,3.613,5.066,8.203,6.527,13.747
		c1.474,5.602,2.215,12.208,2.215,19.792c0,6.987-0.67,13.014-2.004,18.074c-1.314,4.986-3.281,9.054-5.887,12.182
		c-2.611,3.128-5.561,5.473-8.84,7.029c-3.271,1.552-6.917,2.33-10.916,2.33c-3.73,0-7.085-0.704-10.055-2.113
		c-2.964-1.402-5.585-3.524-7.847-6.354c-3.011-3.803-5.274-8.443-6.783-13.901c-1.523-5.506-2.286-11.877-2.286-19.102
		c0-7.046,0.74-13.224,2.21-18.52c1.455-5.248,3.636-9.659,6.529-13.224C964.621,918.92,967.27,916.809,970.282,915.412z"/>
    <path d="M897.774,907.659h-76.367l-1.08,24.088h5.394l0.106-1.359c0.147-1.922,0.454-3.65,0.912-5.168
		c0.443-1.471,1.033-2.744,1.756-3.8c0.742-1.08,1.552-1.987,2.423-2.7c0.845-0.693,1.769-1.227,2.771-1.588
		c0.774-0.267,1.854-0.475,3.225-0.616c1.412-0.144,3.161-0.221,5.233-0.221h9.324v67.213c0,2.447-0.117,4.447-0.352,5.984
		c-0.206,1.382-0.496,2.348-0.848,2.879c-1.332,1.887-3.654,2.835-6.99,2.835h-4.704v5.379h41.211v-5.379h-4.565
		c-1.582,0-2.935-0.202-4.054-0.605c-1.053-0.378-1.922-0.947-2.597-1.687c-0.408-0.482-0.739-1.453-0.986-2.899
		c-0.279-1.632-0.42-3.807-0.42-6.507v-67.213h11.202c1.772,0,3.351,0.144,4.73,0.423c1.358,0.276,2.553,0.689,3.575,1.235
		c0.989,0.516,1.893,1.203,2.697,2.039c0.813,0.843,1.534,1.857,2.168,3.02c0.355,0.681,0.691,1.635,0.986,2.835
		c0.317,1.276,0.598,2.826,0.84,4.626l0.173,1.273h5.32l-1.021-22.682L897.774,907.659z"/>
    <path d="M1127.287,913.035h4.634c1.62,0,3.014,0.207,4.159,0.614c1.068,0.378,1.942,0.941,2.603,1.685
		c0.44,0.487,0.798,1.467,1.059,2.916c0.291,1.62,0.441,3.783,0.441,6.486v47.853l-52.972-64.931h-24.877h-1.467v5.376h1.467
		c1.276,0,2.369,0.05,3.261,0.138c0.875,0.089,1.599,0.227,2.162,0.389c1.213,0.404,2.295,0.821,3.232,1.252
		c0.895,0.414,1.652,0.837,2.251,1.268c0.61,0.444,1.393,1.153,2.332,2.107c0.883,0.901,1.884,1.999,2.985,3.278v62.042
		c0,2.447-0.118,4.447-0.352,5.984c-0.206,1.382-0.496,2.348-0.848,2.879c-1.333,1.887-3.675,2.835-7.059,2.835h-4.634v5.379h34.559
		v-5.379h-4.677c-1.612,0-2.997-0.205-4.147-0.61c-1.07-0.378-1.955-0.939-2.627-1.667c-0.416-0.479-0.757-1.458-1.012-2.929
		c-0.285-1.635-0.431-3.803-0.431-6.492V932.19l57.071,69.843h4.554v-77.297c0-2.448,0.118-4.447,0.353-5.984
		c0.205-1.383,0.496-2.351,0.848-2.88c0.651-0.924,1.531-1.625,2.634-2.092c1.172-0.493,2.636-0.746,4.38-0.746h4.68v-5.376h-34.562
		V913.035z"/>
    <path d="M1773.682,907.659v5.376h4.658c0.977,0,1.913,0.118,2.788,0.341c0.88,0.229,1.748,0.581,2.591,1.05
		c0.574,0.329,1.041,0.684,1.39,1.048c0.32,0.331,0.558,0.689,0.71,1.062c0.235,0.601,0.423,1.596,0.552,2.96
		c0.136,1.417,0.206,3.257,0.206,5.509v58.233c0,2.644-0.123,4.768-0.375,6.368c-0.221,1.432-0.517,2.409-0.89,2.926
		c-0.684,0.866-1.588,1.529-2.694,1.975c-1.166,0.463-2.595,0.698-4.279,0.698h-4.658v5.379h41.485v-5.379h-4.68
		c-0.952,0-1.87-0.114-2.742-0.341c-0.875-0.226-1.743-0.578-2.606-1.053c-0.581-0.326-1.057-0.678-1.417-1.054
		c-0.317-0.328-0.552-0.681-0.693-1.051c-0.235-0.605-0.423-1.596-0.552-2.961c-0.136-1.414-0.206-3.254-0.206-5.508v-26.903h14.82
		c1.447,0,2.686,0.094,3.712,0.279c0.981,0.179,1.793,0.443,2.439,0.792c0.631,0.334,1.2,0.757,1.696,1.263
		c0.499,0.507,0.942,1.121,1.309,1.81c0.353,0.669,0.634,1.582,0.833,2.715c0.214,1.224,0.337,2.673,0.358,4.314l0.018,1.45h5.353
		v-33.473h-5.213l-0.152,1.3c-0.278,2.374-0.696,4.335-1.238,5.882c-0.502,1.421-1.107,2.465-1.811,3.122
		c-0.699,0.651-1.638,1.156-2.802,1.496c-1.241,0.364-2.75,0.552-4.502,0.552h-14.82V915.48h18.304c2.298,0,4.264,0.109,5.893,0.318
		c1.596,0.205,2.914,0.513,3.935,0.912c0.969,0.384,1.876,0.901,2.7,1.529c0.84,0.64,1.617,1.414,2.307,2.301
		c0.678,0.881,1.332,2.045,1.954,3.484c0.631,1.476,1.235,3.252,1.793,5.306l0.292,1.082h4.967l-1.093-22.753H1773.682z"/>
    <path d="M1733.077,994.373c-1.247-0.433-2.318-1.038-3.202-1.807c-0.915-0.804-1.91-2.119-2.966-3.932
		c-1.113-1.908-2.287-4.327-3.504-7.246l-31.669-75.765h-4.176l-32.03,74.967c-1.334,3.172-2.62,5.825-3.844,7.94
		c-1.174,2.035-2.277,3.543-3.313,4.514c-0.396,0.382-1.106,0.755-2.123,1.112c-1.139,0.406-2.605,0.766-4.392,1.075l-1.221,0.211
		v5.144h31.304v-5.277l-1.364-0.096c-2.073-0.147-3.783-0.391-5.112-0.704c-1.198-0.285-2.043-0.622-2.528-0.998
		c-0.49-0.391-0.86-0.808-1.091-1.233c-0.206-0.378-0.312-0.798-0.312-1.235c0-0.725,0.176-1.681,0.511-2.844
		c0.361-1.244,0.91-2.723,1.632-4.411l5.635-13.201h32.918l4.943,11.904c0.863,2.057,1.508,3.833,1.928,5.3
		c0.401,1.403,0.605,2.531,0.605,3.366c0,0.514-0.103,0.98-0.303,1.383c-0.211,0.422-0.555,0.827-1.027,1.206
		c-0.467,0.375-1.201,0.69-2.193,0.93c-1.112,0.273-2.526,0.454-4.22,0.537l-1.4,0.068v5.305h38.406v-5.291l-1.382-0.082
		C1735.889,995.11,1734.378,994.828,1733.077,994.373z M1698.974,962.767h-26.301L1686,931.682L1698.974,962.767z"/>
    <path d="M1602.117,993.941c-1.86-0.574-3.495-1.32-4.901-2.23c-1.411-0.897-2.993-2.298-4.733-4.181
		c-1.793-1.944-3.736-4.373-5.817-7.272l-17.347-24.009c3.031-0.806,5.728-1.819,8.083-3.034c2.946-1.517,5.391-3.369,7.318-5.543
		c1.919-2.172,3.364-4.541,4.328-7.105c0.966-2.567,1.453-5.333,1.453-8.273c0-2.749-0.426-5.329-1.274-7.715
		c-0.85-2.392-2.128-4.599-3.826-6.6c-1.659-1.967-3.513-3.639-5.556-5.006c-2.042-1.365-4.272-2.425-6.677-3.164
		c-2.353-0.719-5.352-1.259-8.977-1.617c-3.596-0.352-7.789-0.531-12.578-0.531h-34.225v5.376h4.839
		c1.515,0,2.833,0.212,3.938,0.634c1.06,0.403,1.943,1.004,2.653,1.811c0.425,0.464,0.769,1.438,1.027,2.909
		c0.291,1.661,0.437,3.873,0.437,6.617v58.233c0,2.505-0.111,4.536-0.325,6.071c-0.193,1.391-0.461,2.342-0.807,2.847
		c-0.66,1.002-1.549,1.758-2.644,2.257c-1.156,0.525-2.585,0.792-4.279,0.792h-4.839v5.379h41.486v-5.379h-4.975
		c-1.5,0-2.791-0.211-3.868-0.628c-1.027-0.396-1.884-0.995-2.559-1.778l-0.029-0.035c-0.425-0.464-0.769-1.438-1.028-2.908
		c-0.289-1.662-0.437-3.871-0.437-6.618v-24.664l2.356,0.068l4.634-0.114l30.544,42.056h24.84h1.467v-5.226l-1.305-0.141
		C1606.158,994.96,1604.022,994.531,1602.117,993.941z M1572.363,933.129c0,2.665-0.497,5.085-1.479,7.257
		c-0.987,2.166-2.486,4.121-4.479,5.843c-4.017,3.467-10.103,5.204-18.228,5.209l-2.198-0.064v-34.785
		c3.657-0.649,6.606-0.974,8.825-0.974c2.682,0,5.094,0.411,7.222,1.221c2.113,0.804,3.97,2.014,5.562,3.615
		c1.58,1.611,2.775,3.473,3.57,5.565C1571.96,928.126,1572.363,930.503,1572.363,933.129z"/>
    <path d="M1962.391,907.659h-76.367l-1.08,24.088h5.394l0.109-1.359c0.147-1.922,0.455-3.65,0.914-5.168
		c0.443-1.471,1.032-2.744,1.755-3.8c0.742-1.08,1.552-1.987,2.423-2.7c0.846-0.693,1.772-1.227,2.77-1.588
		c0.775-0.267,1.856-0.475,3.225-0.616c1.412-0.144,3.161-0.221,5.233-0.221h9.323v67.213c0,2.447-0.117,4.447-0.352,5.984
		c-0.205,1.382-0.496,2.348-0.848,2.879c-1.333,1.887-3.654,2.835-6.99,2.835h-4.704v5.379h41.212v-5.379h-4.567
		c-1.582,0-2.935-0.202-4.054-0.605c-1.053-0.378-1.922-0.947-2.593-1.689c-0.411-0.488-0.743-1.459-0.99-2.897
		c-0.279-1.632-0.42-3.807-0.42-6.507v-67.213h11.202c1.772,0,3.354,0.144,4.73,0.423c1.36,0.276,2.553,0.689,3.575,1.235
		c0.991,0.519,1.893,1.206,2.7,2.039c0.816,0.845,1.541,1.86,2.162,3.014c0.361,0.687,0.693,1.637,0.989,2.84
		c0.317,1.276,0.598,2.826,0.84,4.626l0.17,1.273h5.32l-1.017-22.682L1962.391,907.659z"/>
    <path d="M2141.524,913.035h4.634c1.621,0,3.011,0.207,4.159,0.614c1.068,0.378,1.942,0.941,2.603,1.685
		c0.44,0.487,0.798,1.467,1.059,2.916c0.291,1.62,0.441,3.783,0.441,6.486v47.853l-52.975-64.931h-24.874h-1.467v5.376h1.467
		c1.283,0,2.369,0.05,3.264,0.138c0.845,0.086,1.558,0.217,2.116,0.379c1.262,0.417,2.359,0.84,3.274,1.262
		c0.904,0.416,1.664,0.842,2.251,1.268c0.61,0.444,1.394,1.153,2.333,2.107c0.883,0.901,1.884,1.999,2.984,3.278v62.042
		c0,2.447-0.117,4.447-0.352,5.984c-0.206,1.382-0.496,2.348-0.848,2.879c-1.332,1.887-3.674,2.835-7.058,2.835h-4.634v5.379h34.56
		v-5.379h-4.678c-1.612,0-2.996-0.205-4.147-0.61c-1.071-0.378-1.955-0.939-2.627-1.667c-0.416-0.479-0.756-1.458-1.012-2.929
		c-0.285-1.635-0.431-3.803-0.431-6.492V932.19l57.067,69.843h4.557v-77.297c0-2.448,0.118-4.447,0.353-5.984
		c0.208-1.396,0.501-2.371,0.856-2.9c0.649-0.912,1.529-1.608,2.627-2.072c1.171-0.493,2.635-0.746,4.379-0.746h4.68v-5.376h-34.562
		V913.035z"/>
    <path d="M2270.09,953.892h1.469c1.749,0,3.221,0.089,4.407,0.259c1.104,0.159,1.946,0.387,2.528,0.689
		c0.569,0.29,1.071,0.651,1.494,1.074c0.422,0.423,0.777,0.916,1.053,1.465c0.259,0.531,0.467,1.458,0.617,2.768
		c0.16,1.405,0.243,3.228,0.243,5.446v25.23c-1.136,0.619-2.299,1.177-3.478,1.669c-1.426,0.596-2.893,1.101-4.376,1.506
		c-1.5,0.403-3.026,0.71-4.552,0.91c-1.505,0.197-3.072,0.299-4.68,0.299c-2.682,0-5.339-0.39-7.956-1.171
		c-2.639-0.787-5.25-1.972-7.818-3.539c-2.539-1.564-4.85-3.589-6.92-6.06c-2.086-2.494-3.935-5.453-5.525-8.854
		c-1.609-3.427-2.822-7.049-3.628-10.855c-0.804-3.798-1.206-7.795-1.206-11.986c0-5.171,0.605-9.969,1.808-14.374
		c1.199-4.394,3.01-8.446,5.417-12.129c2.835-4.325,6.313-7.563,10.416-9.705c4.117-2.148,8.921-3.225,14.397-3.225
		c4.012,0,7.651,0.613,10.902,1.831c3.235,1.214,6.123,3.04,8.646,5.47c1.744,1.693,3.35,3.815,4.79,6.349
		c1.447,2.547,2.747,5.54,3.88,8.959l0.332,1.01h5.094l-2.436-29.951l-0.111-1.353h-5.171l-0.082,1.382
		c-0.063,1.056-0.176,1.919-0.332,2.577c-0.123,0.524-0.276,0.912-0.44,1.144c-0.313,0.397-0.646,0.6-1.001,0.6
		c-0.293,0-0.795-0.1-1.482-0.294c-0.774-0.218-1.778-0.56-2.991-1.019c-2.42-0.891-4.604-1.637-6.529-2.233
		c-1.949-0.602-3.633-1.045-5.056-1.335c-1.355-0.262-2.82-0.469-4.369-0.607c-1.564-0.141-3.17-0.214-4.799-0.214
		c-4.593,0-8.904,0.499-12.91,1.487c-4.033,0.998-7.75,2.494-11.157,4.487c-4.036,2.383-7.657,5.297-10.837,8.716
		c-3.174,3.407-5.926,7.339-8.241,11.777c-1.955,3.727-3.424,7.549-4.399,11.44c-0.981,3.914-1.474,7.923-1.474,11.993
		c0,5.614,0.875,10.929,2.621,15.913c1.74,4.968,4.359,9.62,7.839,13.918c4.651,5.762,10.392,10.087,17.206,12.971
		c6.773,2.864,14.597,4.296,23.457,4.296c3.065,0,6.011-0.164,8.822-0.49c2.797-0.323,5.481-0.819,8.038-1.484
		c2.551-0.667,5.122-1.521,7.678-2.554c2.538-1.024,5.102-2.238,7.676-3.638l0.77-0.42v-28.443c0-2.38,0.105-4.337,0.308-5.863
		c0.188-1.424,0.462-2.468,0.816-3.126c0.496-0.889,1.197-1.561,2.097-2.001c0.963-0.472,2.201-0.71,3.702-0.71h3.119v-5.376
		h-37.682V953.892z"/>
    <path d="M2001.173,913.035h4.658c0.957,0,1.878,0.115,2.756,0.341c0.894,0.232,1.786,0.586,2.655,1.062
		c0.552,0.317,1.01,0.669,1.364,1.033c0.312,0.328,0.552,0.689,0.705,1.065c0.235,0.601,0.423,1.596,0.552,2.96
		c0.135,1.417,0.206,3.257,0.206,5.509v58.233c0,2.644-0.123,4.768-0.376,6.368c-0.22,1.435-0.523,2.415-0.895,2.937
		c-0.683,0.86-1.579,1.523-2.682,1.961c-1.168,0.466-2.596,0.701-4.284,0.701h-4.658v5.379h41.485v-3.911v-1.469h-4.701
		c-0.945,0-1.858-0.114-2.727-0.341c-0.872-0.226-1.737-0.581-2.582-1.053c-0.587-0.326-1.065-0.678-1.427-1.048
		c-0.323-0.332-0.56-0.684-0.701-1.057c-0.235-0.605-0.423-1.596-0.552-2.961c-0.135-1.414-0.206-3.254-0.206-5.508v-58.233
		c0-2.629,0.13-4.752,0.389-6.356c0.229-1.438,0.55-2.425,0.957-2.943c0.675-0.869,1.566-1.532,2.647-1.97
		c1.156-0.467,2.559-0.702,4.202-0.702h4.701v-5.376h-41.485V913.035z"/>
    <path d="M2524.093,248.53c-43.559,0-80.991,14.518-112.298,43.56c-36.006,33.488-54.052,76.713-54.052,129.673
		c0,51.87,15.61,94.086,46.835,126.737c31.221,32.648,69.746,49.015,115.571,49.015c45.408,0,84.099-16.702,115.993-50.192
		c31.979-33.488,47.924-75.536,47.924-126.233c0-49.267-15.862-90.31-47.59-123.21C2604.836,264.98,2567.319,248.53,2524.093,248.53
		z M2597.115,543.212c-20.397,24.423-46.163,36.677-77.467,36.677c-29.294,0-52.795-11.163-70.67-33.487
		c-23.249-29.377-34.833-71.342-34.833-125.813c0-53.212,11.246-93.585,33.655-121.197c17.963-22.157,41.884-33.238,71.595-33.238
		c31.809,0,56.654,11.164,74.615,33.49c22.409,28.033,33.655,70.671,33.655,127.826
		C2627.665,480.18,2617.511,518.705,2597.115,543.212z"/>
    <path d="M2216.154,265.146h11.751c13.259,0,22.996,3.443,29.124,10.325c4.616,5.121,6.964,17.96,6.964,38.523v192.791
		l-204.539-250.701h-89.723v9.061c9.652,0,16.871,0.758,21.655,2.184c9.652,3.19,16.953,6.547,21.99,10.154
		c4.951,3.61,12.338,11.082,21.989,22.412v232.152c0,18.717-1.846,30.72-5.456,36.005c-6.042,8.564-16.199,12.842-30.635,12.842
		h-11.751v9.066h117.335v-9.066h-11.917c-13.177,0-22.911-3.439-29.207-10.324c-4.448-5.118-6.714-17.96-6.714-38.523V326.417
		l219.731,268.915h8.896V313.995c0-18.715,1.846-30.717,5.454-36.005c6.043-8.561,16.115-12.843,30.469-12.843h11.917v-9.061
		h-117.335V265.146z"/>
    <path d="M2958.941,256.085v9.061c1.931,0.338,3.358,0.587,4.197,0.758c11.246,1.76,19.304,4.865,24.087,9.231
		c4.703,4.279,7.135,8.896,7.135,13.597c0,7.387-3.862,20.564-11.583,39.615l-78.81,193.041l-84.854-195.477
		c-7.555-17.373-11.332-30.212-11.332-38.356c0-5.958,2.351-10.741,6.882-14.518c4.616-3.777,14.605-6.38,30.048-7.892v-9.061
		h-136.137v9.061c10.157,0.84,18.212,2.686,24.173,5.541c6.042,2.938,11.078,6.967,15.189,12.085
		c2.603,3.276,7.135,12.338,13.515,27.196l124.806,287.547h9.063l115.912-283.773c6.714-16.701,14.435-29.123,23.077-37.179
		c6.046-5.456,15.026-9.233,26.777-11.416v-9.061H2958.941z"/>
    <path d="M1509.141,416.764h0.003h6.749l-0.516,153.452l25.855,0.622l0,0h0.002l-0.131-154.074l105.602-0.094l84.223,155.107h0.003
		h34.87h0.003L1516.884,121.89v0.003l-0.002-0.003l-0.896,266.813h-6.843h-0.003h-6.845l-0.894-266.813l-0.003,0.006v-0.006
		l-248.918,449.888h0.003h34.87h0.003l84.22-155.107l105.604,0.094l-0.131,154.074h0.003l0,0l25.855-0.622l-0.517-153.452H1509.141z
		 M1631.658,388.952l-90.58-0.25l-0.144-166.831L1631.658,388.952z M1477.349,221.872l-0.144,166.831l-90.579,0.25L1477.349,221.872
		z"/>
    <path d="M762.995,246.761l-3.621,80.666h9.576c1.206-15.527,4.918-27.865,11.128-36.924c6.298-9.145,13.72-15.272,22.518-18.462
		c6.729-2.33,18.118-3.54,34.165-3.54h41.153v261.93c0,19.24-1.899,31.578-5.608,37.012c-6.213,8.802-16.567,13.201-31.231,13.201
		h-12.338v9.317h145.974v-9.317h-11.818c-13.286,0-23.122-3.537-29.506-10.612c-4.572-5.262-6.818-18.462-6.818-39.601v-261.93
		h48.314c14.152,0,25.538,2.33,34.251,6.99c8.716,4.573,15.615,11.818,20.881,21.568c3.189,6.04,5.693,16.219,7.592,30.368h9.576
		l-3.625-80.666H762.995z"/>
    <path d="M305.225,524.479L185.909,238.996h-8.543L56.668,521.459c-10.439,24.76-19.929,41.239-28.558,49.351
		c-4.226,4.052-13.459,7.331-27.78,9.834v9.317h108.187v-9.317c-16.477-1.209-27.26-3.798-32.178-7.678
		c-5.005-3.97-7.507-8.628-7.507-13.804c0-6.557,2.934-16.567,8.627-29.852l22.949-53.749h132.95l20.274,48.83
		c6.729,16.048,10.095,27.783,10.095,35.202c0,5.608-2.33,10.353-7.161,14.237c-4.833,3.879-14.063,6.125-27.695,6.814v9.317
		h135.278v-9.317c-14.063-0.864-24.933-4.661-32.784-11.475C323.516,562.267,314.801,547.429,305.225,524.479z M108.433,456.925
		l59.357-138.469l57.804,138.469H108.433z"/>
    <path d="M737.029,256.079v-9.318H616.416v9.318h12.079c13.632,0,23.64,3.537,29.938,10.611c4.745,5.262,7.16,18.463,7.16,39.601
		v198.17L455.343,246.761h-92.229v9.318c9.922,0,17.341,0.777,22.26,2.243c9.922,3.281,17.426,6.732,22.603,10.441
		c5.092,3.71,12.683,11.387,22.606,23.034v238.634c0,19.24-1.899,31.578-5.609,37.012c-6.213,8.802-16.652,13.201-31.492,13.201
		h-12.075v9.317h120.609v-9.317h-12.25c-13.547,0-23.554-3.537-30.024-10.612c-4.573-5.262-6.902-18.462-6.902-39.601V319.061
		l225.868,276.421h9.145v-289.19c0-19.24,1.899-31.578,5.609-37.013c6.21-8.801,16.563-13.2,31.317-13.2H737.029z"/>
</g>
</svg>
