<?xml version="1.0" encoding="UTF-8"?>
<!DOCTYPE svg PUBLIC "-//W3C//DTD SVG 1.1//EN" "http://www.w3.org/Graphics/SVG/1.1/DTD/svg11.dtd">
<!-- Creator: CorelDRAW X8 -->
<svg xmlns="http://www.w3.org/2000/svg" xml:space="preserve" width="200px" height="60px" version="1.1" style="shape-rendering:geometricPrecision; text-rendering:geometricPrecision; image-rendering:optimizeQuality; fill-rule:evenodd; clip-rule:evenodd"
viewBox="0 0 110000 30367"
 xmlns:xlink="http://www.w3.org/1999/xlink">
 <defs>
  <style type="text/css">
   <![CDATA[
    .str0 {stroke:#660f28;stroke-width:109.039}
    .fil3 {fill:none}
    .fil1 {fill:none;fill-rule:nonzero}
    .fil2 {fill:#660f28}
    .fil0 {fill:#660f28;fill-rule:nonzero}
   ]]>
  </style>
 </defs>
 <g id="Слой_x0020_1">
  <metadata id="CorelCorpID_0Corel-Layer"/>
  <path class="fil0" d="M32136 29457l336 -204c238,435 514,656 823,656 132,0 259,-33 375,-94 116,-60 204,-143 265,-248 66,-105 93,-215 93,-331 0,-132 -44,-265 -132,-392 -127,-176 -353,-386 -684,-634 -331,-248 -535,-430 -618,-541 -138,-187 -210,-391 -210,-607 0,-171 44,-331 127,-469 83,-143 199,-253 348,-336 149,-83 314,-122 491,-122 187,0 364,45 524,138 165,94 336,265 519,508l-326 248c-149,-198 -276,-331 -381,-391 -105,-61 -220,-94 -347,-94 -160,0 -293,49 -392,143 -105,100 -154,215 -154,359 0,88 16,171 55,254 33,77 99,165 198,259 50,49 221,182 513,397 342,254 580,480 707,679 127,193 193,391 193,596 0,287 -111,535 -326,744 -221,216 -485,320 -800,320 -237,0 -458,-66 -656,-193 -194,-127 -376,-347 -541,-645zm2764 -2836l0 -386 2168 0 0 386 -883 0 0 3575 -402 0 0 -3575 -883 0zm4629 -486c601,0 1103,199 1506,602 403,397 607,894 607,1478 0,580 -199,1071 -601,1473 -409,403 -900,607 -1479,607 -585,0 -1081,-204 -1484,-601 -403,-403 -607,-888 -607,-1462 0,-381 94,-734 276,-1059 182,-326 436,-580 756,-762 314,-182 656,-276 1026,-276zm22 387c-292,0 -574,77 -833,226 -265,154 -469,358 -618,618 -149,259 -221,546 -221,866 0,469 166,866 491,1192 326,325 718,485 1181,485 303,0 590,-77 850,-226 265,-149 469,-353 612,-607 149,-259 221,-546 221,-866 0,-315 -72,-596 -221,-850 -143,-254 -353,-458 -618,-612 -265,-149 -546,-226 -844,-226zm2891 3674l0 -3961 88 0 2632 3029 0 -3029 397 0 0 3961 -88 0 -2621 -3001 0 3001 -408 0zm4083 -3961l2267 0 0 386 -1870 0 0 1241 1854 0 0 387 -1854 0 0 1561 1854 0 0 386 -2251 0 0 -3961zm2648 2306l1479 0 0 331 -1479 0 0 -331zm5826 -1578l-314 243c-171,-226 -376,-397 -618,-513 -243,-116 -508,-171 -795,-171 -314,0 -607,77 -877,226 -270,154 -480,358 -629,612 -143,254 -221,547 -221,866 0,480 166,883 497,1209 331,325 750,485 1252,485 558,0 1021,-215 1391,-651l314 237c-199,249 -441,447 -739,585 -293,138 -624,204 -988,204 -695,0 -1241,-231 -1644,-695 -331,-386 -502,-855 -502,-1407 0,-579 204,-1070 612,-1462 403,-397 916,-596 1529,-596 369,0 700,72 998,216 298,149 546,353 734,612zm817 -728l789 0c441,0 739,16 899,55 237,50 425,165 574,342 149,177 220,397 220,657 0,215 -49,402 -154,568 -99,160 -243,287 -436,369 -188,83 -447,127 -778,127l1424 1843 -486 0 -1429 -1843 -226 0 0 1843 -397 0 0 -3961zm397 386l0 1346 684 6c265,0 463,-28 590,-78 127,-49 227,-126 298,-237 72,-110 105,-237 105,-375 0,-132 -33,-254 -110,-359 -72,-110 -166,-187 -282,-231 -115,-50 -314,-72 -584,-72l-701 0zm4552 -386l1848 3961 -425 0 -618 -1302 -1716 0 -618 1302 -441 0 1870 -3961 100 0zm-50 833l-679 1440 1358 0 -679 -1440zm2510 -833l1986 0 0 386 -1589 0 0 1241 1589 0 0 387 -1589 0 0 1947 -397 0 0 -3961zm2284 386l0 -386 2169 0 0 386 -883 0 0 3575 -403 0 0 -3575 -883 0zm2687 -386l397 0 0 3961 -397 0 0 -3961zm1308 3961l0 -3961 88 0 2632 3029 0 -3029 397 0 0 3961 -88 0 -2621 -3001 0 3001 -408 0zm7906 -3299l-309 292c-221,-215 -464,-380 -728,-496 -260,-111 -519,-166 -773,-166 -309,0 -607,77 -888,226 -281,155 -502,364 -657,624 -154,259 -231,535 -231,827 0,298 82,585 242,850 160,270 381,480 663,634 281,155 590,232 926,232 409,0 756,-116 1038,-342 281,-232 452,-529 502,-894l-1264 0 0 -386 1711 0c-6,613 -188,1098 -547,1457 -358,358 -844,540 -1445,540 -734,0 -1319,-248 -1744,-750 -331,-381 -496,-828 -496,-1330 0,-375 94,-728 281,-1048 193,-325 453,-579 778,-761 331,-182 706,-271 1120,-271 337,0 657,61 949,183 298,121 590,314 872,579z"/>
  <path class="fil1 str0" d="M32135 29474l337 -204c237,435 513,656 822,656 133,0 259,-33 375,-93 116,-61 204,-144 265,-249 66,-105 94,-215 94,-331 0,-132 -44,-265 -132,-392 -127,-176 -353,-386 -685,-634 -330,-249 -535,-431 -617,-541 -139,-187 -210,-392 -210,-607 0,-171 44,-331 127,-469 83,-143 198,-253 347,-336 149,-83 315,-122 491,-122 188,0 364,45 524,138 166,94 337,265 519,508l-326 248c-148,-199 -275,-331 -380,-392 -105,-60 -221,-94 -348,-94 -160,0 -292,50 -391,144 -105,99 -155,215 -155,359 0,88 17,171 55,253 34,78 100,166 199,260 50,49 221,182 513,397 342,254 579,480 706,679 127,193 193,391 193,596 0,287 -110,535 -325,744 -221,216 -486,320 -800,320 -237,0 -458,-66 -657,-193 -193,-127 -375,-347 -541,-645zm2677 722"/>
  <path class="fil1 str0" d="M34883 26638l0 -386 2169 0 0 386 -883 0 0 3575 -403 0 0 -3575 -883 0zm2279 3558"/>
  <path class="fil1 str0" d="M39547 26152c601,0 1103,199 1506,602 403,397 607,894 607,1478 0,580 -198,1071 -602,1473 -408,403 -899,607 -1478,607 -585,0 -1081,-204 -1484,-601 -403,-403 -607,-888 -607,-1462 0,-381 94,-734 276,-1059 182,-326 436,-580 756,-762 314,-182 656,-276 1026,-276zm22 387c-292,0 -574,77 -833,226 -265,154 -469,358 -618,618 -149,259 -221,546 -221,866 0,469 166,866 491,1192 326,325 717,485 1181,485 303,0 590,-77 850,-226 264,-149 469,-353 612,-607 149,-259 221,-546 221,-866 0,-315 -72,-596 -221,-850 -143,-254 -353,-458 -618,-612 -265,-149 -546,-226 -844,-226zm2387 3657"/>
  <path class="fil1 str0" d="M42436 30213l0 -3961 88 0 2632 3029 0 -3029 397 0 0 3961 -88 0 -2621 -3001 0 3001 -408 0zm3603 -17"/>
  <path class="fil1 str0" d="M46513 26252l2268 0 0 386 -1870 0 0 1241 1853 0 0 386 -1853 0 0 1562 1853 0 0 386 -2251 0 0 -3961zm2483 3944"/>
  <polygon class="fil1 str0" points="49166,28889 50645,28889 50645,28558 49166,28558 "/>
  <path class="fil1 str0" d="M55007 26980l-314 243c-172,-226 -375,-397 -618,-513 -243,-116 -508,-171 -795,-171 -314,0 -607,77 -877,226 -270,154 -480,358 -629,612 -143,254 -221,546 -221,866 0,481 166,883 497,1209 331,325 750,485 1252,485 557,0 1021,-215 1391,-651l314 237c-198,249 -441,447 -739,585 -292,138 -624,204 -988,204 -695,0 -1241,-231 -1644,-695 -331,-386 -502,-855 -502,-1407 0,-579 204,-1070 612,-1462 403,-397 916,-596 1529,-596 369,0 701,72 998,216 298,149 547,353 734,612zm306 3216"/>
  <path class="fil1 str0" d="M55800 26252l789 0c442,0 740,16 900,55 237,50 425,165 574,342 149,177 220,397 220,657 0,215 -49,402 -154,568 -100,160 -243,287 -436,369 -188,83 -447,127 -778,127l1424 1843 -486 0 -1429 -1843 -226 0 0 1843 -398 0 0 -3961zm398 386l0 1346 684 6c265,0 463,-28 590,-78 127,-49 226,-127 298,-237 72,-110 105,-237 105,-375 0,-132 -33,-254 -110,-359 -72,-110 -166,-187 -282,-231 -115,-50 -314,-72 -585,-72l-700 0zm2464 3558"/>
  <path class="fil1 str0" d="M60747 26252l1849 3961 -425 0 -618 -1302 -1716 0 -618 1302 -442 0 1871 -3961 99 0zm-50 833l-678 1440 1357 0 -679 -1440zm2047 3111"/>
  <path class="fil1 str0" d="M63241 26252l1986 0 0 386 -1589 0 0 1241 1589 0 0 386 -1589 0 0 1948 -397 0 0 -3961zm2179 3944"/>
  <path class="fil1 str0" d="M65504 26638l0 -386 2168 0 0 386 -883 0 0 3575 -403 0 0 -3575 -882 0zm2266 3558"/>
  <polygon class="fil1 str0" points="68187,30213 68584,30213 68584,26252 68187,26252 "/>
  <path class="fil1 str0" d="M69517 30213l0 -3961 88 0 2632 3029 0 -3029 397 0 0 3961 -88 0 -2621 -3001 0 3001 -408 0zm3583 -17"/>
  <path class="fil1 str0" d="M77418 26914l-309 292c-220,-215 -464,-380 -728,-496 -259,-111 -519,-166 -773,-166 -309,0 -606,77 -888,226 -281,155 -502,364 -656,624 -155,259 -232,535 -232,827 0,298 83,585 243,850 160,270 380,480 662,634 281,155 590,232 927,232 408,0 755,-116 1037,-342 281,-232 452,-529 502,-894l-1264 0 0 -386 1711 0c-6,612 -188,1098 -546,1457 -359,358 -845,540 -1446,540 -734,0 -1319,-248 -1743,-750 -331,-381 -497,-828 -497,-1330 0,-375 94,-728 282,-1048 193,-325 452,-579 777,-761 332,-183 707,-271 1120,-271 337,0 657,61 949,183 298,121 591,314 872,579zm493 3282"/>
  <path class="fil0" d="M94 18579l-94 -75 0 -468 94 -75c430,-19 729,-37 842,-75 131,-37 243,-112 355,-243 94,-112 300,-505 599,-1160l973 -2077 2470 -5632c468,-1104 935,-2208 1403,-3312l599 0 3892 9169 524 1235c149,336 337,729 524,1122 205,412 336,655 411,730 75,75 169,131 281,168 112,38 374,56 767,75l56 75 0 468 -56 75c-655,-56 -1235,-94 -1759,-94 -1010,38 -2021,75 -3031,94l-75 -75 0 -468 75 -75c692,-19 1104,-56 1291,-93 168,-38 243,-150 243,-318 0,-131 -37,-300 -131,-524l-1122 -2788 -5277 0 -1010 2339c-169,411 -262,729 -262,916 0,150 93,262 243,337 168,75 580,112 1254,131l74 75 0 468 -74 75c-786,-56 -1460,-75 -2059,-75 -673,0 -1347,19 -2020,75zm4153 -5127l4622 0 -2283 -5520 -2339 5520zm10591 5127l-75 -94 0 -430 75 -56c374,-19 674,-38 898,-75 225,-38 356,-94 431,-187 56,-75 112,-206 130,-412 19,-187 38,-599 57,-1272 18,-655 37,-1142 37,-1422l0 -7391c0,-300 -56,-543 -168,-693 -113,-131 -262,-243 -468,-280 -187,-38 -524,-56 -992,-56l-75 -75 0 -431 75 -93c842,37 1385,56 1647,56 617,0 1122,-19 1515,-56l2919 3798 4285 5370c524,655 1048,1273 1591,1853l0 -7073c0,-225 -19,-693 -38,-1403 -18,-712 -56,-1179 -75,-1366 -37,-188 -93,-319 -168,-393 -75,-56 -225,-113 -430,-150 -206,-19 -487,-37 -842,-56l-75 -75 0 -412 75 -93c486,37 1197,56 2095,56 842,0 1441,-19 1834,-56l75 93 0 412 -75 75c-393,19 -711,37 -936,75 -205,37 -355,93 -411,187 -56,93 -94,224 -112,411 -19,169 -38,599 -57,1254 -18,674 -37,1141 -37,1441l0 4341 19 2507c0,824 18,1647 18,2489 -299,-112 -823,-243 -1571,-393l-655 -767 -1946 -2377 -6194 -7746 0 7017c0,280 19,786 38,1496 18,712 37,1161 75,1310 37,150 75,262 112,318 56,57 168,113 318,150 168,56 505,75 1010,94l75 56 0 430 -75 94c-318,-56 -823,-75 -1534,-75 -917,0 -1703,19 -2395,75zm25971 -12986l94 75c-56,561 -94,1516 -94,2881l-56 75 -430 0 -75 -93 -112 -842c-38,-449 -75,-730 -113,-824 -18,-93 -74,-168 -131,-224 -56,-38 -261,-75 -598,-112 -337,-19 -711,-38 -1123,-38l-1721 0c-57,1366 -75,2171 -75,2376l0 5333 18 1778c0,692 19,1141 57,1347 18,206 74,337 131,393 56,75 168,131 318,168 168,38 580,75 1235,113l56 37 0 468 -56 75c-1553,-56 -2433,-75 -2620,-75 -187,0 -1067,19 -2601,75l-75 -75 0 -468 75 -37c580,-38 954,-57 1142,-94 187,-37 299,-93 374,-150 56,-56 112,-187 149,-374 57,-187 75,-599 75,-1254l19 -1927 0 -5333c0,-93 -19,-879 -75,-2376l-1366 0c-561,0 -1048,0 -1440,38 -412,18 -655,74 -712,187 -74,93 -131,430 -187,973l-93 842 -75 93 -430 0 -57 -75c-18,-1478 -56,-2432 -93,-2881l93 -75c1048,56 2807,75 5277,75 2526,0 4285,-19 5295,-75z"/>
  <path class="fil0" d="M69004 18504l0 -13435 299 0 8925 10273 0 -10273 1347 0 0 13435 -299 0 -8888 -10179 0 10179 -1384 0zm20226 -13772c2040,0 3743,674 5109,2040 1366,1347 2058,3031 2058,5014 0,1965 -674,3631 -2040,4996 -1384,1366 -3050,2059 -5014,2059 -1984,0 -3668,-693 -5034,-2040 -1366,-1366 -2058,-3012 -2058,-4958 0,-1291 318,-2489 936,-3593 617,-1104 1478,-1965 2563,-2582 1067,-618 2227,-936 3480,-936zm75 1310c-991,0 -1946,262 -2825,767 -898,524 -1591,1217 -2096,2096 -505,879 -748,1852 -748,2938 0,1590 561,2937 1665,4041 1104,1104 2433,1647 4004,1647 1030,0 2002,-262 2882,-767 898,-505 1590,-1198 2077,-2059 505,-879 748,-1852 748,-2937 0,-1067 -243,-2021 -748,-2882 -487,-860 -1198,-1553 -2096,-2077 -898,-505 -1852,-767 -2863,-767zm8776 -973l1459 0 4472 10404 4528 -10404 1460 0 -5857 13435 -299 0 -5763 -13435z"/>
  <path class="fil2" d="M54841 151l10123 18287 -20246 0 10123 -18287zm0 1590l8772 15846 -17544 0 8772 -15846z"/>
  <path class="fil2" d="M58665 11458l-2831 -5214 4 5207 2827 7zm-3824 869l211 0 -16 4789 807 19 -4 -4808 3295 -4 2629 4842 1089 0 -7769 -14041 -28 8327 -427 0 -29 -8327 -7768 14041 1088 0 2629 -4842 3296 4 -4 4808 806 -19 -16 -4789 211 0zm-3824 -869l2832 -5214 -5 5207 -2827 7z"/>
  <path class="fil2" d="M54841 55c6614,0 11975,5340 11975,11928 0,6587 -5361,11928 -11975,11928 -6613,0 -11975,-5341 -11975,-11928 0,-6588 5362,-11928 11975,-11928zm0 852c6141,0 11120,4959 11120,11076 0,6117 -4979,11076 -11120,11076 -6141,0 -11119,-4959 -11119,-11076 0,-6117 4978,-11076 11119,-11076z"/>
  <path class="fil3 str0" d="M54841 55c6614,0 11975,5340 11975,11928 0,6587 -5361,11928 -11975,11928 -6613,0 -11975,-5341 -11975,-11928 0,-6588 5362,-11928 11975,-11928zm0 852c6141,0 11120,4959 11120,11076 0,6117 -4979,11076 -11120,11076 -6141,0 -11119,-4959 -11119,-11076 0,-6117 4978,-11076 11119,-11076z"/>
 </g>
</svg>
