<svg width="57" height="57" viewBox="0 0 57 57" fill="none" xmlns="http://www.w3.org/2000/svg">
<path d="M56.9999 11.8578C56.9999 9.07459 53.9966 6.64886 48.315 4.84239C43.0104 3.15552 35.9728 2.22662 28.4999 2.22662C23.2075 2.22662 18.0516 2.7002 13.5903 3.59517C13.138 3.68606 12.8453 4.12616 12.9358 4.57799C13.0267 5.03026 13.4663 5.32293 13.9186 5.23248C18.2739 4.35838 23.3158 3.89654 28.4999 3.89654C35.8063 3.89654 42.6634 4.7976 47.8092 6.4336C52.5185 7.93087 55.33 9.95869 55.33 11.8578C55.33 11.8587 55.3304 11.86 55.3304 11.8608C55.3304 11.8621 55.33 11.863 55.33 11.8639C55.33 12.7154 54.7642 14.0409 52.0688 15.5229C49.8888 16.7219 46.7756 17.7438 43.0474 18.4892L36.8039 11.6612C36.2394 11.0341 35.4314 10.6745 34.5878 10.6745C34.5873 10.6745 34.5873 10.6745 34.5873 10.6745C33.7437 10.6745 32.9357 11.0341 32.3708 11.6612L25.8781 18.8736L21.8003 14.344C21.2767 13.7625 20.5274 13.429 19.7455 13.429C18.9631 13.429 18.2139 13.7625 17.6911 14.3431L13.949 18.4888C10.2222 17.7434 7.1102 16.7219 4.93104 15.5234C2.23526 14.0409 1.66992 12.7149 1.66992 11.8639C1.66992 11.863 1.66948 11.8621 1.66948 11.8608C1.66948 11.86 1.66992 11.8587 1.66992 11.8578C1.66992 9.7256 5.04976 7.53035 10.7114 5.98568C11.1563 5.86435 11.4181 5.40512 11.2967 4.96025C11.1754 4.51537 10.7166 4.25357 10.2717 4.37447C3.64773 6.18224 0 8.83976 0 11.8578V11.8608V11.8639V35.5402C0 37.8985 2.24395 39.6271 4.12609 40.6626C6.5466 41.9933 9.99342 43.1114 14.0943 43.8959C14.1465 43.9059 14.1991 43.9107 14.2513 43.9107C14.4439 43.9107 14.6322 43.8441 14.7831 43.7193C14.9749 43.5606 15.0862 43.3249 15.0862 43.0761V37.7702C15.0862 37.3093 14.7122 36.9353 14.2513 36.9353C13.7903 36.9353 13.4163 37.3093 13.4163 37.7702V42.0568C9.92471 41.3223 7.00583 40.3403 4.93061 39.1992C2.23526 37.7172 1.66992 36.3917 1.66992 35.5402V15.2529C2.30744 15.8582 3.12718 16.4366 4.12609 16.9863C6.41179 18.2431 9.61334 19.3102 13.4168 20.0856V27.979V27.9851V34.4308C13.4168 34.8918 13.7903 35.2654 14.2513 35.2654C14.7127 35.2654 15.0862 34.8918 15.0862 34.4308V28.6879C19.1623 27.9582 23.782 27.5729 28.4999 27.5729C30.4399 27.5729 32.3769 27.6377 34.2568 27.7655C34.7156 27.7964 35.1148 27.4494 35.1461 26.9893C35.1774 26.5292 34.83 26.1308 34.3699 26.0995C32.4525 25.969 30.4778 25.9029 28.4999 25.9029C23.7981 25.9029 19.1858 26.2795 15.0862 26.9927V19.7208L18.9314 15.4612C19.1419 15.2272 19.4306 15.0985 19.7455 15.0985C20.0599 15.0985 20.3487 15.2272 20.5591 15.4612L25.258 20.6805C25.2584 20.681 25.2588 20.6814 25.2593 20.6818L28.2512 24.0056C28.416 24.1887 28.6435 24.2817 28.8722 24.2817C29.0709 24.2817 29.271 24.2108 29.4306 24.0673C29.7733 23.759 29.8007 23.2311 29.4923 22.8884L27.0014 20.1213L33.6119 12.7784C33.8641 12.4984 34.2107 12.344 34.5878 12.344C34.9648 12.344 35.311 12.4984 35.5675 12.7832L41.9137 19.7238V26.9927C40.5695 26.7588 39.1652 26.5592 37.7236 26.3987C37.2648 26.3474 36.8526 26.6779 36.8017 27.1362C36.7508 27.5946 37.0813 28.0073 37.5397 28.0582C39.0496 28.226 40.5173 28.4374 41.9137 28.6879V43.0761C41.9137 43.3249 42.025 43.561 42.2168 43.7193C42.3677 43.8441 42.556 43.9111 42.7486 43.9111C42.8008 43.9111 42.8534 43.9059 42.9056 43.8959C47.0065 43.1114 50.4537 41.9933 52.8738 40.6626C54.7559 39.6276 56.9999 37.8985 56.9999 35.5406V11.8639C56.9999 11.863 56.9999 11.8621 56.9999 11.8608C56.9995 11.86 56.9999 11.8587 56.9999 11.8578ZM55.33 35.5402C55.33 36.3917 54.7642 37.7172 52.0688 39.1992C49.9936 40.3403 47.0747 41.3223 43.5836 42.0568V27.986C43.5836 27.9834 43.5836 27.9812 43.5836 27.9786V20.0856C47.387 19.3098 50.5881 18.2426 52.8738 16.9863C53.8727 16.4366 54.6924 15.8582 55.33 15.2529V35.5402Z" fill="#FCE086"/>
<path d="M28.8715 10.6145C28.8715 8.96326 27.5282 7.61993 25.8769 7.61993C24.2261 7.61993 22.8828 8.96326 22.8828 10.6145C22.8828 12.2653 24.2261 13.6086 25.8769 13.6086C27.5282 13.6086 28.8715 12.2653 28.8715 10.6145ZM24.5527 10.6145C24.5527 9.8839 25.1468 9.28986 25.8769 9.28986C26.6075 9.28986 27.2016 9.8839 27.2016 10.6145C27.2016 11.3446 26.6075 11.9387 25.8769 11.9387C25.1468 11.9387 24.5527 11.3446 24.5527 10.6145Z" fill="#FCE086"/>
<path d="M28.5015 33.0919C22.5429 33.0919 17.6953 37.9394 17.6953 43.8981C17.6953 49.8563 22.5429 54.7039 28.5015 54.7039C34.4602 54.7039 39.3078 49.8563 39.3078 43.8981C39.3078 37.9394 34.4602 33.0919 28.5015 33.0919ZM28.5015 53.0344C23.4635 53.0344 19.3652 48.9357 19.3652 43.8981C19.3652 38.86 23.4635 34.7618 28.5015 34.7618C33.5391 34.7618 37.6378 38.86 37.6378 43.8981C37.6378 48.9357 33.5391 53.0344 28.5015 53.0344Z" fill="#FCE086"/>
<path d="M30.9932 38.4169L29.0445 36.7308C28.731 36.459 28.2657 36.4595 27.9521 36.7308L26.0034 38.4169C25.6547 38.7187 25.6168 39.2457 25.9182 39.5945C26.22 39.9433 26.7475 39.9811 27.0959 39.6797L28.4983 38.466L29.9004 39.6797C30.0587 39.8163 30.253 39.8833 30.4466 39.8833C30.6805 39.8833 30.9132 39.7854 31.078 39.5945C31.3798 39.2457 31.342 38.7187 30.9932 38.4169Z" fill="#FCE086"/>
<path d="M29.9004 48.5673L28.4983 49.7806L27.0959 48.5673C26.7475 48.2655 26.22 48.3033 25.9182 48.6521C25.6168 49.0009 25.6547 49.528 26.0034 49.8298L27.9521 51.5162C28.1087 51.6519 28.3035 51.7197 28.4983 51.7197C28.6931 51.7197 28.888 51.6519 29.0445 51.5162L30.9932 49.8298C31.342 49.528 31.3802 49.0009 31.0784 48.6521C30.7762 48.3033 30.2491 48.2655 29.9004 48.5673Z" fill="#FCE086"/>
<path d="M33.0271 41.5436C32.6783 41.845 32.64 42.3725 32.9418 42.7213L34.1556 44.1233L32.9418 45.5258C32.64 45.8741 32.6783 46.4016 33.0271 46.703C33.1849 46.84 33.3793 46.9069 33.5728 46.9069C33.8068 46.9069 34.0394 46.8091 34.2047 46.6182L35.8907 44.6695C36.1621 44.356 36.1621 43.8907 35.8907 43.5771L34.2047 41.6284C33.9025 41.2797 33.3758 41.2418 33.0271 41.5436Z" fill="#FCE086"/>
<path d="M23.9695 41.5436C23.6208 41.2418 23.0937 41.2797 22.7919 41.6284L21.1059 43.5771C20.8345 43.8907 20.8345 44.356 21.1059 44.67L22.7919 46.6182C22.9571 46.8091 23.1898 46.9069 23.4238 46.9069C23.6173 46.9069 23.8117 46.84 23.9695 46.7034C24.3183 46.4016 24.3561 45.8741 24.0548 45.5258L22.841 44.1233L24.0548 42.7213C24.3566 42.3725 24.3183 41.845 23.9695 41.5436Z" fill="#FCE086"/>
</svg>
