<svg width="34" height="34" viewBox="0 0 34 34" fill="none" xmlns="http://www.w3.org/2000/svg">
<path d="M33.9999 7.07303C33.9999 5.41288 32.2085 3.96595 28.8195 2.88841C25.6553 1.8822 21.4575 1.32812 17 1.32812C13.8431 1.32812 10.7676 1.61061 8.10647 2.14445C7.8367 2.19867 7.66212 2.46118 7.71608 2.7307C7.77029 3.00047 8.03255 3.17505 8.30232 3.12109C10.9002 2.5997 13.9077 2.32422 17 2.32422C21.3581 2.32422 25.4483 2.86169 28.5178 3.83755C31.3268 4.73066 33.0038 5.94024 33.0038 7.07303C33.0038 7.07355 33.0041 7.07433 33.0041 7.07485C33.0041 7.07563 33.0038 7.07615 33.0038 7.07666C33.0038 7.58457 32.6664 8.37522 31.0586 9.25925C29.7582 9.97441 27.9012 10.584 25.6774 11.0286L21.9532 6.95578C21.6165 6.58173 21.1345 6.36721 20.6313 6.36721C20.631 6.36721 20.631 6.36721 20.631 6.36721C20.1278 6.36721 19.6458 6.58173 19.3089 6.95578L15.436 11.2579L13.0037 8.55602C12.6913 8.2092 12.2444 8.01024 11.778 8.01024C11.3113 8.01024 10.8644 8.2092 10.5526 8.5555L8.32048 11.0283C6.09743 10.5837 4.24117 9.97441 2.94132 9.25951C1.33331 8.37522 0.996092 7.58431 0.996092 7.07666C0.996092 7.07615 0.995832 7.07563 0.995832 7.07485C0.995832 7.07433 0.996092 7.07355 0.996092 7.07303C0.996092 5.8012 3.01214 4.49175 6.38925 3.57037C6.65462 3.498 6.81078 3.22407 6.7384 2.95871C6.66603 2.69334 6.39237 2.53718 6.127 2.6093C2.17584 3.68762 0 5.2728 0 7.07303V7.07485V7.07666V21.1994C0 22.6061 1.3385 23.6372 2.46118 24.2548C3.90499 25.0486 5.96099 25.7155 8.40712 26.1835C8.43825 26.1894 8.46963 26.1923 8.50076 26.1923C8.61567 26.1923 8.72799 26.1526 8.81801 26.0782C8.9324 25.9835 8.99881 25.8429 8.99881 25.6945V22.5296C8.99881 22.2546 8.77572 22.0315 8.50076 22.0315C8.2258 22.0315 8.00272 22.2546 8.00272 22.5296V25.0865C5.92 24.6483 4.17892 24.0626 2.94106 23.382C1.33331 22.4979 0.996092 21.7073 0.996092 21.1994V9.09816C1.37637 9.45924 1.86534 9.80424 2.46118 10.1321C3.82458 10.8818 5.73427 11.5184 8.00297 11.9809V16.6892V16.6928V20.5377C8.00297 20.8126 8.2258 21.0354 8.50076 21.0354C8.77598 21.0354 8.99881 20.8126 8.99881 20.5377V17.112C11.4302 16.6768 14.1857 16.4469 17 16.4469C18.1571 16.4469 19.3125 16.4856 20.4339 16.5618C20.7076 16.5803 20.9457 16.3733 20.9644 16.0988C20.983 15.8244 20.7758 15.5868 20.5013 15.5681C19.3576 15.4903 18.1797 15.4508 17 15.4508C14.1953 15.4508 11.4442 15.6755 8.99881 16.1009V11.7632L11.2924 9.22241C11.418 9.08286 11.5902 9.00607 11.778 9.00607C11.9656 9.00607 12.1378 9.08286 12.2633 9.22241L15.0661 12.3357C15.0664 12.336 15.0667 12.3362 15.0669 12.3365L16.8516 14.3191C16.9499 14.4283 17.0856 14.4838 17.222 14.4838C17.3406 14.4838 17.4599 14.4415 17.5551 14.3559C17.7595 14.172 17.7758 13.8571 17.5919 13.6527L16.1061 12.0021L20.0492 7.62218C20.1997 7.45513 20.4064 7.36304 20.6313 7.36304C20.8562 7.36304 21.0627 7.45513 21.2157 7.62503L25.0011 11.765V16.1009C24.1993 15.9613 23.3617 15.8423 22.5018 15.7466C22.2281 15.7159 21.9822 15.9131 21.9519 16.1865C21.9215 16.4599 22.1187 16.7061 22.3921 16.7364C23.2927 16.8365 24.1682 16.9626 25.0011 17.112V25.6945C25.0011 25.8429 25.0675 25.9837 25.1819 26.0782C25.2719 26.1526 25.3843 26.1925 25.4992 26.1925C25.5303 26.1925 25.5617 26.1894 25.5928 26.1835C28.0389 25.7155 30.0952 25.0486 31.5388 24.2548C32.6614 23.6375 33.9999 22.6061 33.9999 21.1996V7.07666C33.9999 7.07615 33.9999 7.07563 33.9999 7.07485C33.9997 7.07433 33.9999 7.07355 33.9999 7.07303ZM33.0038 21.1994C33.0038 21.7073 32.6664 22.4979 31.0586 23.382C29.8208 24.0626 28.0797 24.6483 25.9972 25.0865V16.6934C25.9972 16.6918 25.9972 16.6905 25.9972 16.689V11.9809C28.2659 11.5181 30.1754 10.8815 31.5388 10.1321C32.1346 9.80424 32.6236 9.45924 33.0038 9.09816V21.1994Z" fill="#FCE086"/>
<path d="M17.2206 6.33145C17.2206 5.34651 16.4193 4.54523 15.4344 4.54523C14.4497 4.54523 13.6484 5.34651 13.6484 6.33145C13.6484 7.31613 14.4497 8.11742 15.4344 8.11742C16.4193 8.11742 17.2206 7.31613 17.2206 6.33145ZM14.6445 6.33145C14.6445 5.89566 14.9989 5.54132 15.4344 5.54132C15.8702 5.54132 16.2245 5.89566 16.2245 6.33145C16.2245 6.76698 15.8702 7.12132 15.4344 7.12132C14.9989 7.12132 14.6445 6.76698 14.6445 6.33145Z" fill="#FCE086"/>
<path d="M17.0005 19.739C13.4462 19.739 10.5547 22.6305 10.5547 26.1848C10.5547 29.7389 13.4462 32.6304 17.0005 32.6304C20.5548 32.6304 23.4463 29.7389 23.4463 26.1848C23.4463 22.6305 20.5548 19.739 17.0005 19.739ZM17.0005 31.6346C13.9954 31.6346 11.5508 29.1897 11.5508 26.1848C11.5508 23.1797 13.9954 20.7351 17.0005 20.7351C20.0054 20.7351 22.4502 23.1797 22.4502 26.1848C22.4502 29.1897 20.0054 31.6346 17.0005 31.6346Z" fill="#FCE086"/>
<path d="M18.4883 22.9153L17.326 21.9096C17.1389 21.7475 16.8614 21.7478 16.6744 21.9096L15.512 22.9153C15.304 23.0954 15.2814 23.4097 15.4611 23.6178C15.6412 23.8258 15.9558 23.8484 16.1636 23.6686L17.0002 22.9446L17.8365 23.6686C17.9309 23.7501 18.0468 23.79 18.1623 23.79C18.3018 23.79 18.4406 23.7317 18.5389 23.6178C18.7189 23.4097 18.6964 23.0954 18.4883 22.9153Z" fill="#FCE086"/>
<path d="M17.8365 28.97L17.0002 29.6937L16.1636 28.97C15.9558 28.7899 15.6412 28.8125 15.4611 29.0206C15.2814 29.2286 15.304 29.543 15.512 29.723L16.6744 30.729C16.7677 30.8099 16.884 30.8504 17.0002 30.8504C17.1164 30.8504 17.2326 30.8099 17.326 30.729L18.4883 29.723C18.6964 29.543 18.7192 29.2286 18.5392 29.0206C18.3589 28.8125 18.0445 28.7899 17.8365 28.97Z" fill="#FCE086"/>
<path d="M19.6996 24.7804C19.4916 24.9602 19.4687 25.2748 19.6488 25.4829L20.3727 26.3192L19.6488 27.1557C19.4687 27.3635 19.4916 27.6781 19.6996 27.8579C19.7938 27.9396 19.9097 27.9796 20.0251 27.9796C20.1647 27.9796 20.3035 27.9212 20.4021 27.8073L21.4077 26.645C21.5696 26.4579 21.5696 26.1804 21.4077 25.9933L20.4021 24.831C20.2218 24.6229 19.9076 24.6004 19.6996 24.7804Z" fill="#FCE086"/>
<path d="M14.2983 24.7804C14.0903 24.6004 13.7759 24.6229 13.5958 24.831L12.5901 25.9933C12.4283 26.1804 12.4283 26.4579 12.5901 26.6452L13.5958 27.8073C13.6944 27.9212 13.8332 27.9796 13.9727 27.9796C14.0882 27.9796 14.2041 27.9396 14.2983 27.8582C14.5063 27.6781 14.5289 27.3635 14.3491 27.1557L13.6252 26.3192L14.3491 25.4829C14.5292 25.2748 14.5063 24.9602 14.2983 24.7804Z" fill="#FCE086"/>
</svg>
