<svg width="85" height="85" viewBox="0 0 85 85" fill="none" xmlns="http://www.w3.org/2000/svg">
<path d="M84.9998 17.6826C84.9998 13.5323 80.5213 9.91494 72.0487 7.22108C64.1383 4.70556 53.6437 3.32037 42.4999 3.32037C34.6077 3.32037 26.9191 4.02659 20.2662 5.36119C19.5918 5.49673 19.1553 6.15301 19.2902 6.8268C19.4257 7.50124 20.0814 7.93767 20.7558 7.80279C27.2505 6.49931 34.7692 5.8106 42.4999 5.8106C53.3953 5.8106 63.6208 7.15429 71.2945 9.59394C78.3171 11.8267 82.5096 14.8507 82.5096 17.6826C82.5096 17.6839 82.5103 17.6859 82.5103 17.6872C82.5103 17.6891 82.5096 17.6904 82.5096 17.6917C82.5096 18.9615 81.6659 20.9381 77.6465 23.1482C74.3956 24.9361 69.753 26.4601 64.1934 27.5716L54.883 17.3895C54.0412 16.4544 52.8363 15.9181 51.5782 15.9181C51.5776 15.9181 51.5776 15.9181 51.5776 15.9181C50.3195 15.9181 49.1146 16.4544 48.2722 17.3895L38.5901 28.1448L32.5092 21.3901C31.7284 20.5231 30.611 20.0257 29.445 20.0257C28.2784 20.0257 27.161 20.5231 26.3815 21.3888L20.8012 27.5709C15.2436 26.4594 10.6029 24.9361 7.35331 23.1488C3.33328 20.9381 2.49023 18.9608 2.49023 17.6917C2.49023 17.6904 2.48958 17.6891 2.48958 17.6872C2.48958 17.6859 2.49023 17.6839 2.49023 17.6826C2.49023 14.5031 7.53035 11.2294 15.9731 8.92598C16.6365 8.74505 17.0269 8.06024 16.846 7.39683C16.6651 6.73341 15.9809 6.34302 15.3175 6.5233C5.43959 9.2191 0 13.1821 0 17.6826V17.6872V17.6917V52.9985C0 56.5153 3.34625 59.0931 6.15294 60.6372C9.76248 62.6216 14.9025 64.2888 21.0178 65.4587C21.0956 65.4736 21.1741 65.4808 21.2519 65.4808C21.5392 65.4808 21.82 65.3816 22.045 65.1954C22.331 64.9587 22.497 64.6073 22.497 64.2363V56.324C22.497 55.6366 21.9393 55.0789 21.2519 55.0789C20.5645 55.0789 20.0068 55.6366 20.0068 56.324V62.7162C14.8 61.6209 10.4473 60.1566 7.35266 58.455C3.33328 56.2449 2.49023 54.2683 2.49023 52.9985V22.7455C3.44093 23.6482 4.66334 24.5107 6.15294 25.3304C9.56144 27.2045 14.3357 28.7959 20.0074 29.9522V41.7231V41.7322V51.3442C20.0074 52.0316 20.5645 52.5887 21.2519 52.5887C21.94 52.5887 22.497 52.0316 22.497 51.3442V42.7801C28.5754 41.692 35.4644 41.1174 42.4999 41.1174C45.3929 41.1174 48.2813 41.214 51.0847 41.4047C51.7689 41.4507 52.3642 40.9332 52.4109 40.2471C52.4576 39.561 51.9394 38.967 51.2533 38.9203C48.3941 38.7257 45.4493 38.6272 42.4999 38.6272C35.4884 38.6272 28.6104 39.1888 22.497 40.2523V29.4081L28.231 23.0561C28.5449 22.7072 28.9755 22.5152 29.445 22.5152C29.9139 22.5152 30.3445 22.7072 30.6584 23.0561L37.6654 30.8394C37.666 30.84 37.6667 30.8407 37.6673 30.8413L42.129 35.7978C42.3748 36.0708 42.7139 36.2096 43.055 36.2096C43.3514 36.2096 43.6497 36.1039 43.8877 35.8899C44.3987 35.4301 44.4396 34.6428 43.9798 34.1318L40.2652 30.0054L50.123 19.0555C50.4991 18.6379 51.016 18.4077 51.5782 18.4077C52.1405 18.4077 52.6567 18.6379 53.0393 19.0626L62.5028 29.4127V40.2523C60.4983 39.9034 58.4043 39.6057 56.2545 39.3664C55.5704 39.2899 54.9556 39.7828 54.8797 40.4663C54.8039 41.1498 55.2967 41.7652 55.9802 41.8411C58.2318 42.0914 60.4205 42.4066 62.5028 42.7801V64.2363C62.5028 64.6073 62.6688 64.9594 62.9548 65.1954C63.1798 65.3816 63.4606 65.4814 63.7479 65.4814C63.8257 65.4814 63.9042 65.4736 63.982 65.4587C70.0974 64.2888 75.238 62.6216 78.8469 60.6372C81.6536 59.0937 84.9998 56.5153 84.9998 52.9992V17.6917C84.9998 17.6904 84.9998 17.6891 84.9998 17.6872C84.9992 17.6859 84.9998 17.6839 84.9998 17.6826ZM82.5096 52.9985C82.5096 54.2683 81.6659 56.2449 77.6465 58.455C74.5519 60.1566 70.1992 61.6209 64.993 62.7162V41.7335C64.993 41.7296 64.993 41.7263 64.993 41.7224V29.9522C70.6648 28.7953 75.4384 27.2039 78.8469 25.3304C80.3365 24.5107 81.5589 23.6482 82.5096 22.7455V52.9985Z" fill="#FCE086"/>
<path d="M43.0555 15.8286C43.0555 13.3662 41.0523 11.363 38.5899 11.363C36.1282 11.363 34.125 13.3662 34.125 15.8286C34.125 18.2903 36.1282 20.2935 38.5899 20.2935C41.0523 20.2935 43.0555 18.2903 43.0555 15.8286ZM36.6152 15.8286C36.6152 14.7391 37.5011 13.8533 38.5899 13.8533C39.6794 13.8533 40.5652 14.7391 40.5652 15.8286C40.5652 16.9174 39.6794 17.8033 38.5899 17.8033C37.5011 17.8033 36.6152 16.9174 36.6152 15.8286Z" fill="#FCE086"/>
<path d="M42.4993 49.3475C33.6136 49.3475 26.3848 56.5763 26.3848 65.4621C26.3848 74.3472 33.6136 81.576 42.4993 81.576C51.385 81.576 58.6138 74.3472 58.6138 65.4621C58.6138 56.5763 51.385 49.3475 42.4993 49.3475ZM42.4993 79.0864C34.9865 79.0864 28.875 72.9743 28.875 65.4621C28.875 57.9492 34.9865 51.8378 42.4993 51.8378C50.0115 51.8378 56.1236 57.9492 56.1236 65.4621C56.1236 72.9743 50.0115 79.0864 42.4993 79.0864Z" fill="#FCE086"/>
<path d="M46.2209 57.2883L43.3149 54.7741C42.8474 54.3688 42.1535 54.3694 41.6859 54.7741L38.78 57.2883C38.2599 57.7384 38.2035 58.5243 38.6529 59.0444C39.1029 59.5645 39.8896 59.621 40.409 59.1715L42.5004 57.3616L44.5912 59.1715C44.8272 59.3752 45.1171 59.475 45.4057 59.475C45.7546 59.475 46.1015 59.3291 46.3473 59.0444C46.7974 58.5243 46.7409 57.7384 46.2209 57.2883Z" fill="#FCE086"/>
<path d="M44.5912 72.4249L42.5004 74.2342L40.409 72.4249C39.8896 71.9748 39.1029 72.0313 38.6529 72.5514C38.2035 73.0715 38.2599 73.8574 38.78 74.3075L41.6859 76.8224C41.9194 77.0247 42.2099 77.1259 42.5004 77.1259C42.7909 77.1259 43.0815 77.0247 43.3149 76.8224L46.2209 74.3075C46.7409 73.8574 46.798 73.0715 46.348 72.5514C45.8973 72.0313 45.1113 71.9748 44.5912 72.4249Z" fill="#FCE086"/>
<path d="M49.2529 61.951C48.7328 62.4004 48.6757 63.1871 49.1258 63.7072L50.9358 65.7979L49.1258 67.8893C48.6757 68.4088 48.7328 69.1954 49.2529 69.6448C49.4883 69.8491 49.7782 69.949 50.0668 69.949C50.4157 69.949 50.7626 69.803 51.009 69.5183L53.5233 66.6124C53.9279 66.1449 53.9279 65.451 53.5233 64.9834L51.009 62.0775C50.5583 61.5574 49.773 61.501 49.2529 61.951Z" fill="#FCE086"/>
<path d="M35.7457 61.951C35.2256 61.501 34.4397 61.5574 33.9896 62.0775L31.4754 64.9834C31.0707 65.451 31.0707 66.1449 31.4754 66.6131L33.9896 69.5183C34.236 69.803 34.583 69.949 34.9319 69.949C35.2205 69.949 35.5103 69.8491 35.7457 69.6455C36.2658 69.1954 36.3223 68.4088 35.8728 67.8893L34.0629 65.7979L35.8728 63.7072C36.3229 63.1871 36.2658 62.4004 35.7457 61.951Z" fill="#FCE086"/>
</svg>
