<?xml version="1.0" encoding="UTF-8"?>
<svg xmlns="http://www.w3.org/2000/svg" xmlns:xlink="http://www.w3.org/1999/xlink" width="50pt" height="50pt" viewBox="0 0 50 50" version="1.1">
<g id="surface4942375">
<path style=" stroke:none;fill-rule:nonzero;fill:rgb(100%,100%,100%);fill-opacity:1;" d="M 25 2 C 12.308594 2 2 12.308594 2 25 C 2 29.078125 3.117188 32.886719 4.984375 36.210938 L 2.035156 46.730469 C 1.941406 47.074219 2.035156 47.441406 2.28125 47.695312 C 2.53125 47.953125 2.894531 48.054688 3.238281 47.972656 L 14.210938 45.253906 C 17.433594 46.972656 21.09375 48 25 48 C 37.691406 48 48 37.691406 48 25 C 48 12.308594 37.691406 2 25 2 Z M 25 4 C 36.609375 4 46 13.390625 46 25 C 46 36.609375 36.609375 46 25 46 C 21.277344 46 17.792969 45.03125 14.761719 43.335938 C 14.539062 43.210938 14.28125 43.175781 14.035156 43.234375 L 4.425781 45.617188 L 7.003906 36.425781 C 7.078125 36.164062 7.039062 35.882812 6.902344 35.648438 C 5.0625 32.523438 4 28.890625 4 25 C 4 13.390625 13.390625 4 25 4 Z M 16.640625 13 C 16 13 15.085938 13.238281 14.335938 14.046875 C 13.882812 14.535156 12 16.371094 12 19.59375 C 12 22.957031 14.332031 25.855469 14.613281 26.226562 L 14.617188 26.226562 L 14.617188 26.230469 C 14.589844 26.195312 14.972656 26.753906 15.484375 27.421875 C 16 28.085938 16.71875 28.964844 17.617188 29.914062 C 19.421875 31.8125 21.957031 34.007812 25.105469 35.347656 C 26.554688 35.964844 27.699219 36.339844 28.5625 36.609375 C 30.167969 37.117188 31.632812 37.039062 32.730469 36.878906 C 33.550781 36.757812 34.457031 36.359375 35.351562 35.796875 C 36.246094 35.230469 37.125 34.523438 37.507812 33.457031 C 37.785156 32.6875 37.925781 31.980469 37.976562 31.398438 C 38.003906 31.105469 38.007812 30.847656 37.988281 30.609375 C 37.96875 30.371094 37.988281 30.1875 37.765625 29.824219 C 37.300781 29.058594 36.773438 29.039062 36.222656 28.769531 C 35.917969 28.617188 35.046875 28.191406 34.175781 27.777344 C 33.304688 27.359375 32.550781 26.992188 32.082031 26.828125 C 31.789062 26.71875 31.429688 26.566406 30.914062 26.628906 C 30.398438 26.6875 29.886719 27.058594 29.585938 27.5 C 29.304688 27.917969 28.171875 29.257812 27.824219 29.652344 C 27.820312 29.648438 27.851562 29.664062 27.710938 29.59375 C 27.285156 29.382812 26.761719 29.203125 25.984375 28.792969 C 25.210938 28.386719 24.242188 27.78125 23.179688 26.847656 L 23.179688 26.84375 C 21.601562 25.457031 20.496094 23.710938 20.148438 23.125 C 20.171875 23.097656 20.144531 23.132812 20.195312 23.082031 L 20.195312 23.078125 C 20.554688 22.730469 20.871094 22.308594 21.136719 22 C 21.515625 21.566406 21.683594 21.179688 21.863281 20.820312 C 22.222656 20.105469 22.023438 19.320312 21.8125 18.902344 C 21.828125 18.929688 21.703125 18.648438 21.5625 18.324219 C 21.425781 18 21.25 17.578125 21.0625 17.128906 C 20.691406 16.234375 20.273438 15.226562 20.023438 14.632812 C 19.730469 13.9375 19.335938 13.4375 18.816406 13.195312 C 18.296875 12.953125 17.839844 13.023438 17.820312 13.019531 C 17.449219 13.003906 17.046875 13 16.640625 13 Z M 16.640625 15 C 17.027344 15 17.410156 15.003906 17.726562 15.019531 C 18.054688 15.035156 18.035156 15.039062 17.972656 15.007812 C 17.90625 14.976562 17.992188 14.96875 18.179688 15.410156 C 18.421875 15.988281 18.84375 17 19.21875 17.898438 C 19.40625 18.351562 19.582031 18.773438 19.722656 19.105469 C 19.863281 19.4375 19.9375 19.621094 20.027344 19.796875 L 20.027344 19.800781 L 20.03125 19.800781 C 20.117188 19.972656 20.109375 19.863281 20.078125 19.921875 C 19.867188 20.34375 19.839844 20.445312 19.625 20.691406 C 19.300781 21.066406 18.96875 21.484375 18.792969 21.65625 C 18.640625 21.808594 18.363281 22.042969 18.191406 22.5 C 18.015625 22.960938 18.097656 23.59375 18.375 24.066406 C 18.746094 24.695312 19.964844 26.679688 21.859375 28.347656 C 23.054688 29.398438 24.164062 30.097656 25.054688 30.5625 C 25.941406 31.03125 26.664062 31.304688 26.828125 31.386719 C 27.210938 31.578125 27.628906 31.726562 28.121094 31.664062 C 28.609375 31.605469 29.027344 31.3125 29.296875 31.007812 L 29.300781 31.003906 C 29.65625 30.601562 30.714844 29.390625 31.226562 28.644531 C 31.246094 28.652344 31.238281 28.644531 31.410156 28.707031 C 31.488281 28.738281 32.453125 29.167969 33.316406 29.578125 C 34.179688 29.992188 35.054688 30.417969 35.339844 30.558594 C 35.75 30.761719 35.941406 30.894531 35.992188 30.894531 C 35.996094 30.984375 36 31.078125 35.988281 31.222656 C 35.953125 31.625 35.84375 32.179688 35.628906 32.773438 C 35.523438 33.066406 34.976562 33.667969 34.285156 34.105469 C 33.589844 34.542969 32.75 34.851562 32.4375 34.898438 C 31.5 35.035156 30.386719 35.085938 29.164062 34.703125 C 28.316406 34.4375 27.257812 34.09375 25.890625 33.507812 C 23.113281 32.324219 20.753906 30.3125 19.070312 28.535156 C 18.226562 27.648438 17.550781 26.824219 17.070312 26.199219 C 16.59375 25.574219 16.382812 25.25 16.210938 25.019531 L 16.207031 25.019531 C 15.898438 24.609375 14 21.972656 14 19.59375 C 14 17.078125 15.167969 16.089844 15.800781 15.410156 C 16.132812 15.050781 16.496094 15 16.640625 15 Z M 16.640625 15 "/>
</g>
</svg>
